G04 EAGLE Gerber RS-274X export*
G75*
%MOMM*%
%FSLAX34Y34*%
%LPD*%
%INSilkscreen Top*%
%IPPOS*%
%AMOC8*
5,1,8,0,0,1.08239X$1,22.5*%
G01*
%ADD10C,0.177800*%
%ADD11C,0.203200*%
%ADD12C,0.152400*%
%ADD13C,0.200000*%
%ADD14C,0.565681*%
%ADD15C,0.101600*%
%ADD16C,0.635000*%
%ADD17R,0.250000X0.250000*%
%ADD18C,0.127000*%
%ADD19C,0.400000*%
%ADD20C,0.100000*%
%ADD21R,0.508000X2.032000*%
%ADD22R,1.100000X0.575000*%
%ADD23R,0.250000X0.250000*%

G36*
X1038158Y1131436D02*
X1038158Y1131436D01*
X1038167Y1131435D01*
X1038299Y1131456D01*
X1038432Y1131475D01*
X1038439Y1131478D01*
X1038448Y1131479D01*
X1038569Y1131536D01*
X1038691Y1131591D01*
X1038697Y1131596D01*
X1038705Y1131600D01*
X1038806Y1131688D01*
X1038908Y1131775D01*
X1038913Y1131782D01*
X1038919Y1131787D01*
X1038991Y1131900D01*
X1039066Y1132011D01*
X1039068Y1132019D01*
X1039073Y1132026D01*
X1039111Y1132155D01*
X1039151Y1132282D01*
X1039152Y1132291D01*
X1039154Y1132299D01*
X1039155Y1132433D01*
X1039159Y1132566D01*
X1039156Y1132575D01*
X1039157Y1132583D01*
X1039141Y1132634D01*
X1039087Y1132841D01*
X1039067Y1132874D01*
X1039058Y1132904D01*
X1037058Y1136904D01*
X1037001Y1136986D01*
X1036952Y1137073D01*
X1036921Y1137103D01*
X1036897Y1137138D01*
X1036819Y1137201D01*
X1036748Y1137271D01*
X1036710Y1137291D01*
X1036677Y1137318D01*
X1036585Y1137357D01*
X1036497Y1137404D01*
X1036455Y1137413D01*
X1036415Y1137430D01*
X1036316Y1137442D01*
X1036219Y1137463D01*
X1036176Y1137460D01*
X1036133Y1137465D01*
X1036035Y1137450D01*
X1035935Y1137442D01*
X1035895Y1137427D01*
X1035852Y1137421D01*
X1035762Y1137378D01*
X1035669Y1137344D01*
X1035634Y1137318D01*
X1035595Y1137300D01*
X1035520Y1137234D01*
X1035440Y1137175D01*
X1035417Y1137144D01*
X1035381Y1137113D01*
X1035284Y1136961D01*
X1035242Y1136904D01*
X1033242Y1132904D01*
X1033239Y1132896D01*
X1033235Y1132889D01*
X1033194Y1132761D01*
X1033152Y1132634D01*
X1033151Y1132626D01*
X1033149Y1132618D01*
X1033145Y1132483D01*
X1033140Y1132350D01*
X1033142Y1132342D01*
X1033141Y1132334D01*
X1033175Y1132204D01*
X1033207Y1132074D01*
X1033211Y1132067D01*
X1033213Y1132059D01*
X1033281Y1131944D01*
X1033348Y1131827D01*
X1033354Y1131822D01*
X1033359Y1131814D01*
X1033456Y1131722D01*
X1033552Y1131630D01*
X1033560Y1131626D01*
X1033566Y1131620D01*
X1033685Y1131559D01*
X1033803Y1131496D01*
X1033811Y1131494D01*
X1033819Y1131490D01*
X1033871Y1131482D01*
X1034081Y1131437D01*
X1034119Y1131440D01*
X1034150Y1131435D01*
X1038150Y1131435D01*
X1038158Y1131436D01*
G37*
D10*
X568438Y16764D02*
X568438Y36830D01*
X562864Y36830D02*
X574012Y36830D01*
X580045Y25682D02*
X580045Y21223D01*
X580045Y25682D02*
X580047Y25814D01*
X580053Y25946D01*
X580063Y26078D01*
X580076Y26209D01*
X580094Y26340D01*
X580115Y26471D01*
X580141Y26600D01*
X580170Y26729D01*
X580203Y26857D01*
X580239Y26984D01*
X580280Y27110D01*
X580324Y27235D01*
X580372Y27358D01*
X580423Y27480D01*
X580478Y27600D01*
X580537Y27718D01*
X580599Y27835D01*
X580665Y27950D01*
X580733Y28062D01*
X580806Y28173D01*
X580881Y28282D01*
X580960Y28388D01*
X581041Y28492D01*
X581126Y28593D01*
X581214Y28692D01*
X581305Y28788D01*
X581398Y28881D01*
X581494Y28972D01*
X581593Y29060D01*
X581694Y29145D01*
X581798Y29226D01*
X581904Y29305D01*
X582013Y29380D01*
X582124Y29453D01*
X582236Y29521D01*
X582351Y29587D01*
X582468Y29649D01*
X582586Y29708D01*
X582706Y29763D01*
X582828Y29814D01*
X582951Y29862D01*
X583076Y29906D01*
X583202Y29947D01*
X583329Y29983D01*
X583457Y30016D01*
X583586Y30045D01*
X583715Y30071D01*
X583846Y30092D01*
X583977Y30110D01*
X584108Y30123D01*
X584240Y30133D01*
X584372Y30139D01*
X584504Y30141D01*
X584636Y30139D01*
X584768Y30133D01*
X584900Y30123D01*
X585031Y30110D01*
X585162Y30092D01*
X585293Y30071D01*
X585422Y30045D01*
X585551Y30016D01*
X585679Y29983D01*
X585806Y29947D01*
X585932Y29906D01*
X586057Y29862D01*
X586180Y29814D01*
X586302Y29763D01*
X586422Y29708D01*
X586540Y29649D01*
X586657Y29587D01*
X586772Y29521D01*
X586884Y29453D01*
X586995Y29380D01*
X587104Y29305D01*
X587210Y29226D01*
X587314Y29145D01*
X587415Y29060D01*
X587514Y28972D01*
X587610Y28881D01*
X587703Y28788D01*
X587794Y28692D01*
X587882Y28593D01*
X587967Y28492D01*
X588048Y28388D01*
X588127Y28282D01*
X588202Y28173D01*
X588275Y28062D01*
X588343Y27950D01*
X588409Y27835D01*
X588471Y27718D01*
X588530Y27600D01*
X588585Y27480D01*
X588636Y27358D01*
X588684Y27235D01*
X588728Y27110D01*
X588769Y26984D01*
X588805Y26857D01*
X588838Y26729D01*
X588867Y26600D01*
X588893Y26471D01*
X588914Y26340D01*
X588932Y26209D01*
X588945Y26078D01*
X588955Y25946D01*
X588961Y25814D01*
X588963Y25682D01*
X588964Y25682D02*
X588964Y21223D01*
X588963Y21223D02*
X588961Y21091D01*
X588955Y20959D01*
X588945Y20827D01*
X588932Y20696D01*
X588914Y20565D01*
X588893Y20434D01*
X588867Y20305D01*
X588838Y20176D01*
X588805Y20048D01*
X588769Y19921D01*
X588728Y19795D01*
X588684Y19670D01*
X588636Y19547D01*
X588585Y19425D01*
X588530Y19305D01*
X588471Y19187D01*
X588409Y19070D01*
X588343Y18955D01*
X588275Y18843D01*
X588202Y18732D01*
X588127Y18623D01*
X588048Y18517D01*
X587967Y18413D01*
X587882Y18312D01*
X587794Y18213D01*
X587703Y18117D01*
X587610Y18024D01*
X587514Y17933D01*
X587415Y17845D01*
X587314Y17760D01*
X587210Y17679D01*
X587104Y17600D01*
X586995Y17525D01*
X586884Y17452D01*
X586772Y17384D01*
X586657Y17318D01*
X586540Y17256D01*
X586422Y17197D01*
X586302Y17142D01*
X586180Y17091D01*
X586057Y17043D01*
X585932Y16999D01*
X585806Y16958D01*
X585679Y16922D01*
X585551Y16889D01*
X585422Y16860D01*
X585293Y16834D01*
X585162Y16813D01*
X585031Y16795D01*
X584900Y16782D01*
X584768Y16772D01*
X584636Y16766D01*
X584504Y16764D01*
X584372Y16766D01*
X584240Y16772D01*
X584108Y16782D01*
X583977Y16795D01*
X583846Y16813D01*
X583715Y16834D01*
X583586Y16860D01*
X583457Y16889D01*
X583329Y16922D01*
X583202Y16958D01*
X583076Y16999D01*
X582951Y17043D01*
X582828Y17091D01*
X582706Y17142D01*
X582586Y17197D01*
X582468Y17256D01*
X582351Y17318D01*
X582236Y17384D01*
X582124Y17452D01*
X582013Y17525D01*
X581904Y17600D01*
X581798Y17679D01*
X581694Y17760D01*
X581593Y17845D01*
X581494Y17933D01*
X581398Y18024D01*
X581305Y18117D01*
X581214Y18213D01*
X581126Y18312D01*
X581041Y18413D01*
X580960Y18517D01*
X580881Y18623D01*
X580806Y18732D01*
X580733Y18843D01*
X580665Y18955D01*
X580599Y19070D01*
X580537Y19187D01*
X580478Y19305D01*
X580423Y19425D01*
X580372Y19547D01*
X580324Y19670D01*
X580280Y19795D01*
X580239Y19921D01*
X580203Y20048D01*
X580170Y20176D01*
X580141Y20305D01*
X580115Y20434D01*
X580094Y20565D01*
X580076Y20696D01*
X580063Y20827D01*
X580053Y20959D01*
X580047Y21091D01*
X580045Y21223D01*
X596972Y16764D02*
X596972Y30141D01*
X607005Y30141D01*
X607119Y30139D01*
X607233Y30133D01*
X607347Y30123D01*
X607460Y30110D01*
X607573Y30092D01*
X607685Y30071D01*
X607797Y30046D01*
X607907Y30017D01*
X608017Y29984D01*
X608125Y29948D01*
X608232Y29908D01*
X608337Y29864D01*
X608441Y29817D01*
X608543Y29766D01*
X608644Y29712D01*
X608742Y29654D01*
X608839Y29593D01*
X608933Y29529D01*
X609026Y29462D01*
X609115Y29391D01*
X609203Y29317D01*
X609287Y29241D01*
X609370Y29162D01*
X609449Y29079D01*
X609525Y28995D01*
X609599Y28907D01*
X609670Y28818D01*
X609737Y28725D01*
X609801Y28631D01*
X609862Y28534D01*
X609920Y28436D01*
X609974Y28335D01*
X610025Y28233D01*
X610072Y28129D01*
X610116Y28024D01*
X610156Y27917D01*
X610192Y27809D01*
X610225Y27699D01*
X610254Y27589D01*
X610279Y27477D01*
X610300Y27365D01*
X610318Y27252D01*
X610331Y27139D01*
X610341Y27025D01*
X610347Y26911D01*
X610349Y26797D01*
X610349Y16764D01*
X603661Y16764D02*
X603661Y30141D01*
X622195Y24567D02*
X627211Y24567D01*
X622195Y24568D02*
X622071Y24566D01*
X621948Y24560D01*
X621824Y24550D01*
X621701Y24537D01*
X621578Y24519D01*
X621457Y24497D01*
X621335Y24472D01*
X621215Y24443D01*
X621096Y24410D01*
X620977Y24373D01*
X620860Y24333D01*
X620745Y24288D01*
X620631Y24241D01*
X620518Y24189D01*
X620407Y24134D01*
X620298Y24076D01*
X620191Y24014D01*
X620085Y23949D01*
X619982Y23880D01*
X619881Y23808D01*
X619783Y23733D01*
X619687Y23655D01*
X619593Y23574D01*
X619502Y23490D01*
X619414Y23403D01*
X619329Y23314D01*
X619246Y23221D01*
X619166Y23126D01*
X619090Y23029D01*
X619017Y22929D01*
X618946Y22827D01*
X618879Y22723D01*
X618816Y22617D01*
X618756Y22509D01*
X618699Y22399D01*
X618646Y22287D01*
X618596Y22174D01*
X618550Y22059D01*
X618508Y21942D01*
X618469Y21825D01*
X618434Y21706D01*
X618403Y21586D01*
X618376Y21465D01*
X618352Y21344D01*
X618333Y21221D01*
X618317Y21098D01*
X618305Y20975D01*
X618297Y20852D01*
X618293Y20728D01*
X618293Y20604D01*
X618297Y20480D01*
X618305Y20357D01*
X618317Y20234D01*
X618333Y20111D01*
X618352Y19988D01*
X618376Y19867D01*
X618403Y19746D01*
X618434Y19626D01*
X618469Y19507D01*
X618508Y19390D01*
X618550Y19273D01*
X618596Y19158D01*
X618646Y19045D01*
X618699Y18933D01*
X618756Y18823D01*
X618816Y18715D01*
X618879Y18609D01*
X618946Y18505D01*
X619017Y18403D01*
X619090Y18303D01*
X619166Y18206D01*
X619246Y18111D01*
X619329Y18018D01*
X619414Y17929D01*
X619502Y17842D01*
X619593Y17758D01*
X619687Y17677D01*
X619783Y17599D01*
X619881Y17524D01*
X619982Y17452D01*
X620085Y17383D01*
X620191Y17318D01*
X620298Y17256D01*
X620407Y17198D01*
X620518Y17143D01*
X620631Y17091D01*
X620745Y17044D01*
X620860Y16999D01*
X620977Y16959D01*
X621096Y16922D01*
X621215Y16889D01*
X621335Y16860D01*
X621457Y16835D01*
X621578Y16813D01*
X621701Y16795D01*
X621824Y16782D01*
X621948Y16772D01*
X622071Y16766D01*
X622195Y16764D01*
X627211Y16764D01*
X627211Y26797D01*
X627209Y26911D01*
X627203Y27025D01*
X627193Y27139D01*
X627180Y27252D01*
X627162Y27365D01*
X627141Y27477D01*
X627116Y27589D01*
X627087Y27699D01*
X627054Y27809D01*
X627018Y27917D01*
X626978Y28024D01*
X626934Y28129D01*
X626887Y28233D01*
X626836Y28335D01*
X626782Y28436D01*
X626724Y28534D01*
X626663Y28631D01*
X626599Y28725D01*
X626532Y28818D01*
X626461Y28907D01*
X626387Y28995D01*
X626311Y29079D01*
X626232Y29162D01*
X626149Y29241D01*
X626065Y29317D01*
X625977Y29391D01*
X625888Y29462D01*
X625795Y29529D01*
X625701Y29593D01*
X625604Y29654D01*
X625506Y29712D01*
X625405Y29766D01*
X625303Y29817D01*
X625199Y29864D01*
X625094Y29908D01*
X624987Y29948D01*
X624879Y29984D01*
X624769Y30017D01*
X624659Y30046D01*
X624547Y30071D01*
X624435Y30092D01*
X624322Y30110D01*
X624209Y30123D01*
X624095Y30133D01*
X623981Y30139D01*
X623867Y30141D01*
X619408Y30141D01*
X636715Y24567D02*
X642288Y22338D01*
X636715Y24568D02*
X636616Y24609D01*
X636519Y24654D01*
X636424Y24703D01*
X636331Y24755D01*
X636239Y24811D01*
X636150Y24870D01*
X636063Y24932D01*
X635979Y24998D01*
X635896Y25066D01*
X635817Y25138D01*
X635740Y25212D01*
X635666Y25289D01*
X635595Y25369D01*
X635527Y25451D01*
X635462Y25536D01*
X635400Y25623D01*
X635341Y25713D01*
X635286Y25804D01*
X635234Y25898D01*
X635186Y25993D01*
X635141Y26091D01*
X635100Y26189D01*
X635063Y26289D01*
X635029Y26391D01*
X634999Y26494D01*
X634973Y26597D01*
X634951Y26702D01*
X634932Y26807D01*
X634918Y26913D01*
X634907Y27020D01*
X634901Y27126D01*
X634898Y27233D01*
X634899Y27340D01*
X634905Y27447D01*
X634914Y27554D01*
X634927Y27660D01*
X634944Y27765D01*
X634965Y27870D01*
X634990Y27974D01*
X635019Y28077D01*
X635051Y28179D01*
X635087Y28280D01*
X635127Y28379D01*
X635171Y28477D01*
X635218Y28573D01*
X635269Y28667D01*
X635323Y28759D01*
X635380Y28849D01*
X635441Y28937D01*
X635505Y29023D01*
X635572Y29106D01*
X635642Y29187D01*
X635715Y29265D01*
X635791Y29340D01*
X635870Y29413D01*
X635951Y29482D01*
X636035Y29549D01*
X636121Y29612D01*
X636210Y29672D01*
X636300Y29729D01*
X636393Y29782D01*
X636487Y29832D01*
X636584Y29878D01*
X636682Y29921D01*
X636781Y29960D01*
X636882Y29995D01*
X636984Y30027D01*
X637088Y30055D01*
X637192Y30079D01*
X637297Y30099D01*
X637403Y30115D01*
X637509Y30127D01*
X637615Y30136D01*
X637722Y30140D01*
X637829Y30141D01*
X638133Y30133D01*
X638437Y30117D01*
X638741Y30095D01*
X639044Y30065D01*
X639346Y30028D01*
X639647Y29983D01*
X639947Y29932D01*
X640245Y29873D01*
X640543Y29807D01*
X640838Y29733D01*
X641132Y29653D01*
X641423Y29566D01*
X641713Y29472D01*
X642000Y29371D01*
X642284Y29262D01*
X642566Y29148D01*
X642845Y29026D01*
X642288Y22337D02*
X642387Y22296D01*
X642484Y22251D01*
X642579Y22202D01*
X642672Y22150D01*
X642764Y22094D01*
X642853Y22035D01*
X642940Y21973D01*
X643024Y21907D01*
X643107Y21839D01*
X643186Y21767D01*
X643263Y21693D01*
X643337Y21616D01*
X643408Y21536D01*
X643476Y21454D01*
X643541Y21369D01*
X643603Y21282D01*
X643662Y21192D01*
X643717Y21101D01*
X643769Y21007D01*
X643817Y20912D01*
X643862Y20814D01*
X643903Y20716D01*
X643940Y20616D01*
X643974Y20514D01*
X644004Y20411D01*
X644030Y20308D01*
X644052Y20203D01*
X644071Y20098D01*
X644085Y19992D01*
X644096Y19885D01*
X644102Y19779D01*
X644105Y19672D01*
X644104Y19565D01*
X644098Y19458D01*
X644089Y19351D01*
X644076Y19245D01*
X644059Y19140D01*
X644038Y19035D01*
X644013Y18931D01*
X643984Y18828D01*
X643952Y18726D01*
X643916Y18625D01*
X643876Y18526D01*
X643832Y18428D01*
X643785Y18332D01*
X643734Y18238D01*
X643680Y18146D01*
X643623Y18056D01*
X643562Y17968D01*
X643498Y17882D01*
X643431Y17799D01*
X643361Y17718D01*
X643288Y17640D01*
X643212Y17565D01*
X643133Y17492D01*
X643052Y17423D01*
X642968Y17356D01*
X642882Y17293D01*
X642793Y17233D01*
X642703Y17176D01*
X642610Y17123D01*
X642516Y17073D01*
X642419Y17027D01*
X642321Y16984D01*
X642222Y16945D01*
X642121Y16910D01*
X642019Y16878D01*
X641915Y16850D01*
X641811Y16826D01*
X641706Y16806D01*
X641600Y16790D01*
X641494Y16778D01*
X641388Y16769D01*
X641281Y16765D01*
X641174Y16764D01*
X640727Y16776D01*
X640280Y16798D01*
X639834Y16831D01*
X639389Y16874D01*
X638945Y16928D01*
X638503Y16992D01*
X638062Y17067D01*
X637623Y17152D01*
X637186Y17248D01*
X636752Y17354D01*
X636320Y17470D01*
X635891Y17596D01*
X635465Y17732D01*
X635043Y17879D01*
X650491Y30141D02*
X659409Y30141D01*
X650491Y16764D01*
X659409Y16764D01*
X680286Y16764D02*
X680286Y36830D01*
X674712Y36830D02*
X685860Y36830D01*
X695730Y24567D02*
X700747Y24567D01*
X695730Y24568D02*
X695606Y24566D01*
X695483Y24560D01*
X695359Y24550D01*
X695236Y24537D01*
X695113Y24519D01*
X694992Y24497D01*
X694870Y24472D01*
X694750Y24443D01*
X694631Y24410D01*
X694512Y24373D01*
X694395Y24333D01*
X694280Y24288D01*
X694166Y24241D01*
X694053Y24189D01*
X693942Y24134D01*
X693833Y24076D01*
X693726Y24014D01*
X693620Y23949D01*
X693517Y23880D01*
X693416Y23808D01*
X693318Y23733D01*
X693222Y23655D01*
X693128Y23574D01*
X693037Y23490D01*
X692949Y23403D01*
X692864Y23314D01*
X692781Y23221D01*
X692701Y23126D01*
X692625Y23029D01*
X692552Y22929D01*
X692481Y22827D01*
X692414Y22723D01*
X692351Y22617D01*
X692291Y22509D01*
X692234Y22399D01*
X692181Y22287D01*
X692131Y22174D01*
X692085Y22059D01*
X692043Y21942D01*
X692004Y21825D01*
X691969Y21706D01*
X691938Y21586D01*
X691911Y21465D01*
X691887Y21344D01*
X691868Y21221D01*
X691852Y21098D01*
X691840Y20975D01*
X691832Y20852D01*
X691828Y20728D01*
X691828Y20604D01*
X691832Y20480D01*
X691840Y20357D01*
X691852Y20234D01*
X691868Y20111D01*
X691887Y19988D01*
X691911Y19867D01*
X691938Y19746D01*
X691969Y19626D01*
X692004Y19507D01*
X692043Y19390D01*
X692085Y19273D01*
X692131Y19158D01*
X692181Y19045D01*
X692234Y18933D01*
X692291Y18823D01*
X692351Y18715D01*
X692414Y18609D01*
X692481Y18505D01*
X692552Y18403D01*
X692625Y18303D01*
X692701Y18206D01*
X692781Y18111D01*
X692864Y18018D01*
X692949Y17929D01*
X693037Y17842D01*
X693128Y17758D01*
X693222Y17677D01*
X693318Y17599D01*
X693416Y17524D01*
X693517Y17452D01*
X693620Y17383D01*
X693726Y17318D01*
X693833Y17256D01*
X693942Y17198D01*
X694053Y17143D01*
X694166Y17091D01*
X694280Y17044D01*
X694395Y16999D01*
X694512Y16959D01*
X694631Y16922D01*
X694750Y16889D01*
X694870Y16860D01*
X694992Y16835D01*
X695113Y16813D01*
X695236Y16795D01*
X695359Y16782D01*
X695483Y16772D01*
X695606Y16766D01*
X695730Y16764D01*
X700747Y16764D01*
X700747Y26797D01*
X700746Y26797D02*
X700744Y26911D01*
X700738Y27025D01*
X700728Y27139D01*
X700715Y27252D01*
X700697Y27365D01*
X700676Y27477D01*
X700651Y27589D01*
X700622Y27699D01*
X700589Y27809D01*
X700553Y27917D01*
X700513Y28024D01*
X700469Y28129D01*
X700422Y28233D01*
X700371Y28335D01*
X700317Y28436D01*
X700259Y28534D01*
X700198Y28631D01*
X700134Y28725D01*
X700067Y28818D01*
X699996Y28907D01*
X699922Y28995D01*
X699846Y29079D01*
X699767Y29162D01*
X699684Y29241D01*
X699600Y29317D01*
X699512Y29391D01*
X699423Y29462D01*
X699330Y29529D01*
X699236Y29593D01*
X699139Y29654D01*
X699041Y29712D01*
X698940Y29766D01*
X698838Y29817D01*
X698734Y29864D01*
X698629Y29908D01*
X698522Y29948D01*
X698414Y29984D01*
X698304Y30017D01*
X698194Y30046D01*
X698082Y30071D01*
X697970Y30092D01*
X697857Y30110D01*
X697744Y30123D01*
X697630Y30133D01*
X697516Y30139D01*
X697402Y30141D01*
X692943Y30141D01*
X707116Y30141D02*
X713805Y30141D01*
X709345Y36830D02*
X709345Y20108D01*
X709346Y20108D02*
X709348Y19994D01*
X709354Y19880D01*
X709364Y19766D01*
X709377Y19653D01*
X709395Y19540D01*
X709416Y19428D01*
X709441Y19316D01*
X709470Y19206D01*
X709503Y19096D01*
X709539Y18988D01*
X709579Y18881D01*
X709623Y18776D01*
X709670Y18672D01*
X709721Y18570D01*
X709775Y18469D01*
X709833Y18371D01*
X709894Y18274D01*
X709958Y18180D01*
X710025Y18087D01*
X710096Y17998D01*
X710170Y17910D01*
X710246Y17826D01*
X710325Y17743D01*
X710408Y17664D01*
X710492Y17588D01*
X710580Y17514D01*
X710669Y17443D01*
X710762Y17376D01*
X710856Y17312D01*
X710953Y17251D01*
X711051Y17193D01*
X711152Y17139D01*
X711254Y17088D01*
X711358Y17041D01*
X711463Y16997D01*
X711570Y16957D01*
X711678Y16921D01*
X711788Y16888D01*
X711898Y16859D01*
X712010Y16834D01*
X712122Y16813D01*
X712235Y16795D01*
X712348Y16782D01*
X712462Y16772D01*
X712576Y16766D01*
X712690Y16764D01*
X713805Y16764D01*
X724156Y24567D02*
X729172Y24567D01*
X724156Y24568D02*
X724032Y24566D01*
X723909Y24560D01*
X723785Y24550D01*
X723662Y24537D01*
X723539Y24519D01*
X723418Y24497D01*
X723296Y24472D01*
X723176Y24443D01*
X723057Y24410D01*
X722938Y24373D01*
X722821Y24333D01*
X722706Y24288D01*
X722592Y24241D01*
X722479Y24189D01*
X722368Y24134D01*
X722259Y24076D01*
X722152Y24014D01*
X722046Y23949D01*
X721943Y23880D01*
X721842Y23808D01*
X721744Y23733D01*
X721648Y23655D01*
X721554Y23574D01*
X721463Y23490D01*
X721375Y23403D01*
X721290Y23314D01*
X721207Y23221D01*
X721127Y23126D01*
X721051Y23029D01*
X720978Y22929D01*
X720907Y22827D01*
X720840Y22723D01*
X720777Y22617D01*
X720717Y22509D01*
X720660Y22399D01*
X720607Y22287D01*
X720557Y22174D01*
X720511Y22059D01*
X720469Y21942D01*
X720430Y21825D01*
X720395Y21706D01*
X720364Y21586D01*
X720337Y21465D01*
X720313Y21344D01*
X720294Y21221D01*
X720278Y21098D01*
X720266Y20975D01*
X720258Y20852D01*
X720254Y20728D01*
X720254Y20604D01*
X720258Y20480D01*
X720266Y20357D01*
X720278Y20234D01*
X720294Y20111D01*
X720313Y19988D01*
X720337Y19867D01*
X720364Y19746D01*
X720395Y19626D01*
X720430Y19507D01*
X720469Y19390D01*
X720511Y19273D01*
X720557Y19158D01*
X720607Y19045D01*
X720660Y18933D01*
X720717Y18823D01*
X720777Y18715D01*
X720840Y18609D01*
X720907Y18505D01*
X720978Y18403D01*
X721051Y18303D01*
X721127Y18206D01*
X721207Y18111D01*
X721290Y18018D01*
X721375Y17929D01*
X721463Y17842D01*
X721554Y17758D01*
X721648Y17677D01*
X721744Y17599D01*
X721842Y17524D01*
X721943Y17452D01*
X722046Y17383D01*
X722152Y17318D01*
X722259Y17256D01*
X722368Y17198D01*
X722479Y17143D01*
X722592Y17091D01*
X722706Y17044D01*
X722821Y16999D01*
X722938Y16959D01*
X723057Y16922D01*
X723176Y16889D01*
X723296Y16860D01*
X723418Y16835D01*
X723539Y16813D01*
X723662Y16795D01*
X723785Y16782D01*
X723909Y16772D01*
X724032Y16766D01*
X724156Y16764D01*
X729172Y16764D01*
X729172Y26797D01*
X729170Y26911D01*
X729164Y27025D01*
X729154Y27139D01*
X729141Y27252D01*
X729123Y27365D01*
X729102Y27477D01*
X729077Y27589D01*
X729048Y27699D01*
X729015Y27809D01*
X728979Y27917D01*
X728939Y28024D01*
X728895Y28129D01*
X728848Y28233D01*
X728797Y28335D01*
X728743Y28436D01*
X728685Y28534D01*
X728624Y28631D01*
X728560Y28725D01*
X728493Y28818D01*
X728422Y28907D01*
X728348Y28995D01*
X728272Y29079D01*
X728193Y29162D01*
X728110Y29241D01*
X728026Y29317D01*
X727938Y29391D01*
X727849Y29462D01*
X727756Y29529D01*
X727662Y29593D01*
X727565Y29654D01*
X727467Y29712D01*
X727366Y29766D01*
X727264Y29817D01*
X727160Y29864D01*
X727055Y29908D01*
X726948Y29948D01*
X726840Y29984D01*
X726730Y30017D01*
X726620Y30046D01*
X726508Y30071D01*
X726396Y30092D01*
X726283Y30110D01*
X726170Y30123D01*
X726056Y30133D01*
X725942Y30139D01*
X725828Y30141D01*
X721369Y30141D01*
X737699Y30141D02*
X737699Y16764D01*
X737699Y30141D02*
X744388Y30141D01*
X744388Y27912D01*
X753817Y24567D02*
X758833Y24567D01*
X753817Y24568D02*
X753693Y24566D01*
X753570Y24560D01*
X753446Y24550D01*
X753323Y24537D01*
X753200Y24519D01*
X753079Y24497D01*
X752957Y24472D01*
X752837Y24443D01*
X752718Y24410D01*
X752599Y24373D01*
X752482Y24333D01*
X752367Y24288D01*
X752253Y24241D01*
X752140Y24189D01*
X752029Y24134D01*
X751920Y24076D01*
X751813Y24014D01*
X751707Y23949D01*
X751604Y23880D01*
X751503Y23808D01*
X751405Y23733D01*
X751309Y23655D01*
X751215Y23574D01*
X751124Y23490D01*
X751036Y23403D01*
X750951Y23314D01*
X750868Y23221D01*
X750788Y23126D01*
X750712Y23029D01*
X750639Y22929D01*
X750568Y22827D01*
X750501Y22723D01*
X750438Y22617D01*
X750378Y22509D01*
X750321Y22399D01*
X750268Y22287D01*
X750218Y22174D01*
X750172Y22059D01*
X750130Y21942D01*
X750091Y21825D01*
X750056Y21706D01*
X750025Y21586D01*
X749998Y21465D01*
X749974Y21344D01*
X749955Y21221D01*
X749939Y21098D01*
X749927Y20975D01*
X749919Y20852D01*
X749915Y20728D01*
X749915Y20604D01*
X749919Y20480D01*
X749927Y20357D01*
X749939Y20234D01*
X749955Y20111D01*
X749974Y19988D01*
X749998Y19867D01*
X750025Y19746D01*
X750056Y19626D01*
X750091Y19507D01*
X750130Y19390D01*
X750172Y19273D01*
X750218Y19158D01*
X750268Y19045D01*
X750321Y18933D01*
X750378Y18823D01*
X750438Y18715D01*
X750501Y18609D01*
X750568Y18505D01*
X750639Y18403D01*
X750712Y18303D01*
X750788Y18206D01*
X750868Y18111D01*
X750951Y18018D01*
X751036Y17929D01*
X751124Y17842D01*
X751215Y17758D01*
X751309Y17677D01*
X751405Y17599D01*
X751503Y17524D01*
X751604Y17452D01*
X751707Y17383D01*
X751813Y17318D01*
X751920Y17256D01*
X752029Y17198D01*
X752140Y17143D01*
X752253Y17091D01*
X752367Y17044D01*
X752482Y16999D01*
X752599Y16959D01*
X752718Y16922D01*
X752837Y16889D01*
X752957Y16860D01*
X753079Y16835D01*
X753200Y16813D01*
X753323Y16795D01*
X753446Y16782D01*
X753570Y16772D01*
X753693Y16766D01*
X753817Y16764D01*
X758833Y16764D01*
X758833Y26797D01*
X758831Y26911D01*
X758825Y27025D01*
X758815Y27139D01*
X758802Y27252D01*
X758784Y27365D01*
X758763Y27477D01*
X758738Y27589D01*
X758709Y27699D01*
X758676Y27809D01*
X758640Y27917D01*
X758600Y28024D01*
X758556Y28129D01*
X758509Y28233D01*
X758458Y28335D01*
X758404Y28436D01*
X758346Y28534D01*
X758285Y28631D01*
X758221Y28725D01*
X758154Y28818D01*
X758083Y28907D01*
X758009Y28995D01*
X757933Y29079D01*
X757854Y29162D01*
X757771Y29241D01*
X757687Y29317D01*
X757599Y29391D01*
X757510Y29462D01*
X757417Y29529D01*
X757323Y29593D01*
X757226Y29654D01*
X757128Y29712D01*
X757027Y29766D01*
X756925Y29817D01*
X756821Y29864D01*
X756716Y29908D01*
X756609Y29948D01*
X756501Y29984D01*
X756391Y30017D01*
X756281Y30046D01*
X756169Y30071D01*
X756057Y30092D01*
X755944Y30110D01*
X755831Y30123D01*
X755717Y30133D01*
X755603Y30139D01*
X755489Y30141D01*
X751030Y30141D01*
D11*
X922045Y880773D02*
X925939Y880773D01*
X925939Y867791D01*
X918150Y867791D01*
X918007Y867793D01*
X917864Y867799D01*
X917721Y867809D01*
X917579Y867823D01*
X917437Y867840D01*
X917295Y867862D01*
X917154Y867887D01*
X917014Y867917D01*
X916875Y867950D01*
X916737Y867987D01*
X916600Y868028D01*
X916464Y868072D01*
X916329Y868121D01*
X916196Y868173D01*
X916064Y868228D01*
X915934Y868288D01*
X915805Y868351D01*
X915678Y868417D01*
X915554Y868487D01*
X915431Y868560D01*
X915310Y868637D01*
X915191Y868717D01*
X915075Y868800D01*
X914960Y868886D01*
X914849Y868975D01*
X914739Y869068D01*
X914633Y869163D01*
X914529Y869262D01*
X914428Y869363D01*
X914329Y869467D01*
X914234Y869573D01*
X914141Y869683D01*
X914052Y869794D01*
X913966Y869909D01*
X913883Y870025D01*
X913803Y870144D01*
X913726Y870265D01*
X913653Y870388D01*
X913583Y870512D01*
X913517Y870639D01*
X913454Y870768D01*
X913394Y870898D01*
X913339Y871030D01*
X913287Y871163D01*
X913238Y871298D01*
X913194Y871434D01*
X913153Y871571D01*
X913116Y871709D01*
X913083Y871848D01*
X913053Y871988D01*
X913028Y872129D01*
X913006Y872271D01*
X912989Y872413D01*
X912975Y872555D01*
X912965Y872698D01*
X912959Y872841D01*
X912957Y872984D01*
X912957Y885966D01*
X912959Y886109D01*
X912965Y886252D01*
X912975Y886395D01*
X912989Y886537D01*
X913006Y886679D01*
X913028Y886821D01*
X913053Y886962D01*
X913083Y887102D01*
X913116Y887241D01*
X913153Y887379D01*
X913194Y887516D01*
X913238Y887652D01*
X913287Y887787D01*
X913339Y887920D01*
X913394Y888052D01*
X913454Y888182D01*
X913517Y888311D01*
X913583Y888438D01*
X913653Y888562D01*
X913726Y888685D01*
X913803Y888806D01*
X913883Y888925D01*
X913966Y889041D01*
X914052Y889156D01*
X914141Y889267D01*
X914234Y889377D01*
X914329Y889483D01*
X914428Y889587D01*
X914529Y889688D01*
X914633Y889787D01*
X914739Y889882D01*
X914849Y889975D01*
X914960Y890064D01*
X915075Y890150D01*
X915191Y890233D01*
X915310Y890313D01*
X915431Y890390D01*
X915553Y890463D01*
X915678Y890533D01*
X915805Y890599D01*
X915934Y890662D01*
X916064Y890722D01*
X916196Y890777D01*
X916329Y890829D01*
X916464Y890878D01*
X916600Y890922D01*
X916737Y890963D01*
X916875Y891000D01*
X917014Y891033D01*
X917154Y891063D01*
X917295Y891088D01*
X917437Y891110D01*
X917579Y891127D01*
X917721Y891141D01*
X917864Y891151D01*
X918007Y891157D01*
X918150Y891159D01*
X925939Y891159D01*
X935252Y891159D02*
X935252Y867791D01*
X945638Y867791D01*
X953323Y874282D02*
X953323Y891159D01*
X953323Y874282D02*
X953325Y874123D01*
X953331Y873964D01*
X953341Y873804D01*
X953354Y873646D01*
X953372Y873487D01*
X953393Y873330D01*
X953419Y873172D01*
X953448Y873016D01*
X953481Y872860D01*
X953518Y872705D01*
X953558Y872551D01*
X953603Y872398D01*
X953651Y872246D01*
X953702Y872095D01*
X953758Y871946D01*
X953817Y871798D01*
X953880Y871652D01*
X953946Y871507D01*
X954016Y871364D01*
X954089Y871222D01*
X954166Y871083D01*
X954246Y870945D01*
X954330Y870809D01*
X954417Y870676D01*
X954507Y870544D01*
X954600Y870415D01*
X954697Y870289D01*
X954796Y870164D01*
X954899Y870042D01*
X955004Y869923D01*
X955113Y869806D01*
X955224Y869692D01*
X955338Y869581D01*
X955455Y869472D01*
X955574Y869367D01*
X955696Y869264D01*
X955821Y869165D01*
X955947Y869068D01*
X956076Y868975D01*
X956208Y868885D01*
X956341Y868798D01*
X956477Y868714D01*
X956615Y868634D01*
X956754Y868557D01*
X956896Y868484D01*
X957039Y868414D01*
X957184Y868348D01*
X957330Y868285D01*
X957478Y868226D01*
X957627Y868170D01*
X957778Y868119D01*
X957930Y868071D01*
X958083Y868026D01*
X958237Y867986D01*
X958392Y867949D01*
X958548Y867916D01*
X958704Y867887D01*
X958862Y867861D01*
X959019Y867840D01*
X959178Y867822D01*
X959336Y867809D01*
X959496Y867799D01*
X959655Y867793D01*
X959814Y867791D01*
X959973Y867793D01*
X960132Y867799D01*
X960292Y867809D01*
X960450Y867822D01*
X960609Y867840D01*
X960766Y867861D01*
X960924Y867887D01*
X961080Y867916D01*
X961236Y867949D01*
X961391Y867986D01*
X961545Y868026D01*
X961698Y868071D01*
X961850Y868119D01*
X962001Y868170D01*
X962150Y868226D01*
X962298Y868285D01*
X962444Y868348D01*
X962589Y868414D01*
X962732Y868484D01*
X962874Y868557D01*
X963013Y868634D01*
X963151Y868714D01*
X963287Y868798D01*
X963420Y868885D01*
X963552Y868975D01*
X963681Y869068D01*
X963807Y869165D01*
X963932Y869264D01*
X964054Y869367D01*
X964173Y869472D01*
X964290Y869581D01*
X964404Y869692D01*
X964515Y869806D01*
X964624Y869923D01*
X964729Y870042D01*
X964832Y870164D01*
X964931Y870289D01*
X965028Y870415D01*
X965121Y870544D01*
X965211Y870676D01*
X965298Y870809D01*
X965382Y870945D01*
X965462Y871083D01*
X965539Y871222D01*
X965612Y871364D01*
X965682Y871507D01*
X965748Y871652D01*
X965811Y871798D01*
X965870Y871946D01*
X965926Y872095D01*
X965977Y872246D01*
X966025Y872398D01*
X966070Y872551D01*
X966110Y872705D01*
X966147Y872860D01*
X966180Y873016D01*
X966209Y873172D01*
X966235Y873330D01*
X966256Y873487D01*
X966274Y873646D01*
X966287Y873804D01*
X966297Y873964D01*
X966303Y874123D01*
X966305Y874282D01*
X966305Y891159D01*
X975618Y867791D02*
X986004Y867791D01*
X975618Y867791D02*
X975618Y891159D01*
X986004Y891159D01*
X983407Y880773D02*
X975618Y880773D01*
X998092Y891159D02*
X998092Y867791D01*
X991601Y891159D02*
X1004583Y891159D01*
X1011808Y867791D02*
X1022193Y867791D01*
X1011808Y867791D02*
X1011808Y891159D01*
X1022193Y891159D01*
X1019597Y880773D02*
X1011808Y880773D01*
X1034352Y867791D02*
X1039544Y867791D01*
X1034352Y867791D02*
X1034209Y867793D01*
X1034066Y867799D01*
X1033923Y867809D01*
X1033781Y867823D01*
X1033639Y867840D01*
X1033497Y867862D01*
X1033356Y867887D01*
X1033216Y867917D01*
X1033077Y867950D01*
X1032939Y867987D01*
X1032802Y868028D01*
X1032666Y868072D01*
X1032531Y868121D01*
X1032398Y868173D01*
X1032266Y868228D01*
X1032136Y868288D01*
X1032007Y868351D01*
X1031880Y868417D01*
X1031756Y868487D01*
X1031633Y868560D01*
X1031512Y868637D01*
X1031393Y868717D01*
X1031277Y868800D01*
X1031162Y868886D01*
X1031051Y868975D01*
X1030941Y869068D01*
X1030835Y869163D01*
X1030731Y869262D01*
X1030630Y869363D01*
X1030531Y869467D01*
X1030436Y869573D01*
X1030343Y869683D01*
X1030254Y869794D01*
X1030168Y869909D01*
X1030085Y870025D01*
X1030005Y870144D01*
X1029928Y870265D01*
X1029855Y870388D01*
X1029785Y870512D01*
X1029719Y870639D01*
X1029656Y870768D01*
X1029596Y870898D01*
X1029541Y871030D01*
X1029489Y871163D01*
X1029440Y871298D01*
X1029396Y871434D01*
X1029355Y871571D01*
X1029318Y871709D01*
X1029285Y871848D01*
X1029255Y871988D01*
X1029230Y872129D01*
X1029208Y872271D01*
X1029191Y872413D01*
X1029177Y872555D01*
X1029167Y872698D01*
X1029161Y872841D01*
X1029159Y872984D01*
X1029159Y885966D01*
X1029161Y886109D01*
X1029167Y886252D01*
X1029177Y886395D01*
X1029191Y886537D01*
X1029208Y886679D01*
X1029230Y886821D01*
X1029255Y886962D01*
X1029285Y887102D01*
X1029318Y887241D01*
X1029355Y887379D01*
X1029396Y887516D01*
X1029440Y887652D01*
X1029489Y887787D01*
X1029541Y887920D01*
X1029596Y888052D01*
X1029656Y888182D01*
X1029719Y888311D01*
X1029785Y888438D01*
X1029855Y888562D01*
X1029928Y888685D01*
X1030005Y888806D01*
X1030085Y888925D01*
X1030168Y889041D01*
X1030254Y889156D01*
X1030343Y889267D01*
X1030436Y889377D01*
X1030531Y889483D01*
X1030630Y889587D01*
X1030731Y889688D01*
X1030835Y889787D01*
X1030941Y889882D01*
X1031051Y889975D01*
X1031162Y890064D01*
X1031277Y890150D01*
X1031393Y890233D01*
X1031512Y890313D01*
X1031633Y890390D01*
X1031755Y890463D01*
X1031880Y890533D01*
X1032007Y890599D01*
X1032136Y890662D01*
X1032266Y890722D01*
X1032398Y890777D01*
X1032531Y890829D01*
X1032666Y890878D01*
X1032802Y890922D01*
X1032939Y890963D01*
X1033077Y891000D01*
X1033216Y891033D01*
X1033356Y891063D01*
X1033497Y891088D01*
X1033639Y891110D01*
X1033781Y891127D01*
X1033923Y891141D01*
X1034066Y891151D01*
X1034209Y891157D01*
X1034352Y891159D01*
X1039544Y891159D01*
X1047277Y891159D02*
X1047277Y867791D01*
X1047277Y880773D02*
X1060259Y880773D01*
X1060259Y891159D02*
X1060259Y867791D01*
X1069548Y867791D02*
X1069548Y891159D01*
X1082530Y867791D01*
X1082530Y891159D01*
X1093438Y891159D02*
X1093438Y867791D01*
X1096034Y867791D02*
X1090841Y867791D01*
X1090841Y891159D02*
X1096034Y891159D01*
X1104493Y891159D02*
X1104493Y867791D01*
X1104493Y876879D02*
X1117476Y891159D01*
X1109686Y882071D02*
X1117476Y867791D01*
X1123230Y867791D02*
X1131020Y891159D01*
X1138809Y867791D01*
X1136862Y873633D02*
X1125178Y873633D01*
D12*
X1170460Y401165D02*
X1170460Y398201D01*
X1170460Y401165D02*
X1180338Y401165D01*
X1180338Y395238D01*
X1180336Y395114D01*
X1180330Y394990D01*
X1180320Y394866D01*
X1180307Y394743D01*
X1180289Y394620D01*
X1180268Y394498D01*
X1180243Y394376D01*
X1180214Y394255D01*
X1180181Y394136D01*
X1180145Y394017D01*
X1180104Y393900D01*
X1180061Y393784D01*
X1180013Y393669D01*
X1179962Y393556D01*
X1179907Y393444D01*
X1179849Y393335D01*
X1179788Y393227D01*
X1179723Y393121D01*
X1179655Y393017D01*
X1179583Y392916D01*
X1179509Y392816D01*
X1179431Y392720D01*
X1179351Y392625D01*
X1179267Y392533D01*
X1179181Y392444D01*
X1179092Y392358D01*
X1179000Y392274D01*
X1178905Y392194D01*
X1178809Y392116D01*
X1178709Y392042D01*
X1178608Y391970D01*
X1178504Y391902D01*
X1178398Y391837D01*
X1178290Y391776D01*
X1178181Y391718D01*
X1178069Y391663D01*
X1177956Y391612D01*
X1177841Y391564D01*
X1177725Y391521D01*
X1177608Y391480D01*
X1177489Y391444D01*
X1177370Y391411D01*
X1177249Y391382D01*
X1177127Y391357D01*
X1177005Y391336D01*
X1176882Y391318D01*
X1176759Y391305D01*
X1176635Y391295D01*
X1176511Y391289D01*
X1176387Y391287D01*
X1166509Y391287D01*
X1166385Y391289D01*
X1166261Y391295D01*
X1166137Y391305D01*
X1166014Y391318D01*
X1165891Y391336D01*
X1165769Y391357D01*
X1165647Y391382D01*
X1165526Y391411D01*
X1165407Y391444D01*
X1165288Y391480D01*
X1165171Y391521D01*
X1165055Y391564D01*
X1164940Y391612D01*
X1164827Y391663D01*
X1164715Y391718D01*
X1164606Y391776D01*
X1164498Y391837D01*
X1164392Y391902D01*
X1164288Y391970D01*
X1164187Y392042D01*
X1164087Y392116D01*
X1163991Y392194D01*
X1163896Y392274D01*
X1163804Y392358D01*
X1163715Y392444D01*
X1163629Y392533D01*
X1163545Y392625D01*
X1163465Y392720D01*
X1163387Y392816D01*
X1163313Y392916D01*
X1163241Y393017D01*
X1163173Y393121D01*
X1163108Y393227D01*
X1163047Y393335D01*
X1162989Y393444D01*
X1162934Y393556D01*
X1162883Y393669D01*
X1162835Y393784D01*
X1162792Y393900D01*
X1162751Y394017D01*
X1162715Y394136D01*
X1162682Y394255D01*
X1162653Y394376D01*
X1162628Y394498D01*
X1162607Y394620D01*
X1162589Y394743D01*
X1162576Y394866D01*
X1162566Y394990D01*
X1162560Y395114D01*
X1162558Y395238D01*
X1162558Y401165D01*
X1162558Y409183D02*
X1180338Y409183D01*
X1180338Y417085D01*
X1175399Y423671D02*
X1162558Y423671D01*
X1175399Y423671D02*
X1175539Y423673D01*
X1175678Y423679D01*
X1175818Y423689D01*
X1175957Y423703D01*
X1176096Y423720D01*
X1176234Y423742D01*
X1176371Y423768D01*
X1176508Y423797D01*
X1176644Y423830D01*
X1176778Y423867D01*
X1176912Y423908D01*
X1177044Y423953D01*
X1177176Y424002D01*
X1177305Y424054D01*
X1177433Y424109D01*
X1177560Y424169D01*
X1177685Y424232D01*
X1177808Y424298D01*
X1177929Y424368D01*
X1178048Y424441D01*
X1178165Y424518D01*
X1178279Y424598D01*
X1178392Y424681D01*
X1178502Y424767D01*
X1178609Y424857D01*
X1178714Y424949D01*
X1178816Y425044D01*
X1178916Y425142D01*
X1179013Y425243D01*
X1179107Y425347D01*
X1179197Y425453D01*
X1179285Y425562D01*
X1179370Y425673D01*
X1179451Y425787D01*
X1179530Y425902D01*
X1179605Y426020D01*
X1179676Y426141D01*
X1179744Y426263D01*
X1179809Y426386D01*
X1179870Y426512D01*
X1179928Y426640D01*
X1179982Y426768D01*
X1180032Y426899D01*
X1180079Y427031D01*
X1180122Y427164D01*
X1180161Y427298D01*
X1180196Y427433D01*
X1180227Y427569D01*
X1180255Y427707D01*
X1180278Y427844D01*
X1180298Y427983D01*
X1180314Y428122D01*
X1180326Y428261D01*
X1180334Y428400D01*
X1180338Y428540D01*
X1180338Y428680D01*
X1180334Y428820D01*
X1180326Y428959D01*
X1180314Y429098D01*
X1180298Y429237D01*
X1180278Y429376D01*
X1180255Y429513D01*
X1180227Y429651D01*
X1180196Y429787D01*
X1180161Y429922D01*
X1180122Y430056D01*
X1180079Y430189D01*
X1180032Y430321D01*
X1179982Y430452D01*
X1179928Y430580D01*
X1179870Y430708D01*
X1179809Y430834D01*
X1179744Y430957D01*
X1179676Y431080D01*
X1179605Y431200D01*
X1179530Y431318D01*
X1179451Y431433D01*
X1179370Y431547D01*
X1179285Y431658D01*
X1179197Y431767D01*
X1179107Y431873D01*
X1179013Y431977D01*
X1178916Y432078D01*
X1178816Y432176D01*
X1178714Y432271D01*
X1178609Y432363D01*
X1178502Y432453D01*
X1178392Y432539D01*
X1178279Y432622D01*
X1178165Y432702D01*
X1178048Y432779D01*
X1177929Y432852D01*
X1177808Y432922D01*
X1177685Y432988D01*
X1177560Y433051D01*
X1177433Y433111D01*
X1177305Y433166D01*
X1177176Y433218D01*
X1177044Y433267D01*
X1176912Y433312D01*
X1176778Y433353D01*
X1176644Y433390D01*
X1176508Y433423D01*
X1176371Y433452D01*
X1176234Y433478D01*
X1176096Y433500D01*
X1175957Y433517D01*
X1175818Y433531D01*
X1175678Y433541D01*
X1175539Y433547D01*
X1175399Y433549D01*
X1162558Y433549D01*
X1180338Y441567D02*
X1180338Y449469D01*
X1180338Y441567D02*
X1162558Y441567D01*
X1162558Y449469D01*
X1170460Y447494D02*
X1170460Y441567D01*
X1180338Y468346D02*
X1180338Y472297D01*
X1180338Y468346D02*
X1180336Y468222D01*
X1180330Y468098D01*
X1180320Y467974D01*
X1180307Y467851D01*
X1180289Y467728D01*
X1180268Y467606D01*
X1180243Y467484D01*
X1180214Y467363D01*
X1180181Y467244D01*
X1180145Y467125D01*
X1180104Y467008D01*
X1180061Y466892D01*
X1180013Y466777D01*
X1179962Y466664D01*
X1179907Y466552D01*
X1179849Y466443D01*
X1179788Y466335D01*
X1179723Y466229D01*
X1179655Y466125D01*
X1179583Y466024D01*
X1179509Y465924D01*
X1179431Y465828D01*
X1179351Y465733D01*
X1179267Y465641D01*
X1179181Y465552D01*
X1179092Y465466D01*
X1179000Y465382D01*
X1178905Y465302D01*
X1178809Y465224D01*
X1178709Y465150D01*
X1178608Y465078D01*
X1178504Y465010D01*
X1178398Y464945D01*
X1178290Y464884D01*
X1178181Y464826D01*
X1178069Y464771D01*
X1177956Y464720D01*
X1177841Y464672D01*
X1177725Y464629D01*
X1177608Y464588D01*
X1177489Y464552D01*
X1177370Y464519D01*
X1177249Y464490D01*
X1177127Y464465D01*
X1177005Y464444D01*
X1176882Y464426D01*
X1176759Y464413D01*
X1176635Y464403D01*
X1176511Y464397D01*
X1176387Y464395D01*
X1166509Y464395D01*
X1166385Y464397D01*
X1166261Y464403D01*
X1166137Y464413D01*
X1166014Y464426D01*
X1165891Y464444D01*
X1165769Y464465D01*
X1165647Y464490D01*
X1165526Y464519D01*
X1165407Y464552D01*
X1165288Y464588D01*
X1165171Y464629D01*
X1165055Y464672D01*
X1164940Y464720D01*
X1164827Y464771D01*
X1164715Y464826D01*
X1164606Y464884D01*
X1164498Y464945D01*
X1164392Y465010D01*
X1164288Y465078D01*
X1164187Y465150D01*
X1164087Y465224D01*
X1163991Y465302D01*
X1163896Y465382D01*
X1163804Y465466D01*
X1163715Y465552D01*
X1163629Y465641D01*
X1163545Y465733D01*
X1163465Y465828D01*
X1163387Y465924D01*
X1163313Y466024D01*
X1163241Y466125D01*
X1163173Y466229D01*
X1163108Y466335D01*
X1163047Y466443D01*
X1162989Y466552D01*
X1162934Y466664D01*
X1162883Y466777D01*
X1162835Y466892D01*
X1162792Y467008D01*
X1162751Y467125D01*
X1162715Y467244D01*
X1162682Y467363D01*
X1162653Y467484D01*
X1162628Y467606D01*
X1162607Y467728D01*
X1162589Y467851D01*
X1162576Y467974D01*
X1162566Y468098D01*
X1162560Y468222D01*
X1162558Y468346D01*
X1162558Y472297D01*
X1167497Y478389D02*
X1175399Y478389D01*
X1167497Y478389D02*
X1167357Y478391D01*
X1167218Y478397D01*
X1167078Y478407D01*
X1166939Y478421D01*
X1166800Y478438D01*
X1166662Y478460D01*
X1166525Y478486D01*
X1166388Y478515D01*
X1166252Y478548D01*
X1166118Y478585D01*
X1165984Y478626D01*
X1165852Y478671D01*
X1165720Y478720D01*
X1165591Y478772D01*
X1165463Y478827D01*
X1165336Y478887D01*
X1165211Y478950D01*
X1165088Y479016D01*
X1164967Y479086D01*
X1164848Y479159D01*
X1164731Y479236D01*
X1164617Y479316D01*
X1164504Y479399D01*
X1164394Y479485D01*
X1164287Y479575D01*
X1164182Y479667D01*
X1164080Y479762D01*
X1163980Y479860D01*
X1163883Y479961D01*
X1163789Y480065D01*
X1163699Y480171D01*
X1163611Y480280D01*
X1163526Y480391D01*
X1163445Y480505D01*
X1163366Y480620D01*
X1163291Y480738D01*
X1163220Y480859D01*
X1163152Y480981D01*
X1163087Y481104D01*
X1163026Y481230D01*
X1162968Y481358D01*
X1162914Y481486D01*
X1162864Y481617D01*
X1162817Y481749D01*
X1162774Y481882D01*
X1162735Y482016D01*
X1162700Y482151D01*
X1162669Y482287D01*
X1162641Y482425D01*
X1162618Y482562D01*
X1162598Y482701D01*
X1162582Y482840D01*
X1162570Y482979D01*
X1162562Y483118D01*
X1162558Y483258D01*
X1162558Y483398D01*
X1162562Y483538D01*
X1162570Y483677D01*
X1162582Y483816D01*
X1162598Y483955D01*
X1162618Y484094D01*
X1162641Y484231D01*
X1162669Y484369D01*
X1162700Y484505D01*
X1162735Y484640D01*
X1162774Y484774D01*
X1162817Y484907D01*
X1162864Y485039D01*
X1162914Y485170D01*
X1162968Y485298D01*
X1163026Y485426D01*
X1163087Y485552D01*
X1163152Y485675D01*
X1163220Y485798D01*
X1163291Y485918D01*
X1163366Y486036D01*
X1163445Y486151D01*
X1163526Y486265D01*
X1163611Y486376D01*
X1163699Y486485D01*
X1163789Y486591D01*
X1163883Y486695D01*
X1163980Y486796D01*
X1164080Y486894D01*
X1164182Y486989D01*
X1164287Y487081D01*
X1164394Y487171D01*
X1164504Y487257D01*
X1164617Y487340D01*
X1164731Y487420D01*
X1164848Y487497D01*
X1164967Y487570D01*
X1165088Y487640D01*
X1165211Y487706D01*
X1165336Y487769D01*
X1165463Y487829D01*
X1165591Y487884D01*
X1165720Y487936D01*
X1165852Y487985D01*
X1165984Y488030D01*
X1166118Y488071D01*
X1166252Y488108D01*
X1166388Y488141D01*
X1166525Y488170D01*
X1166662Y488196D01*
X1166800Y488218D01*
X1166939Y488235D01*
X1167078Y488249D01*
X1167218Y488259D01*
X1167357Y488265D01*
X1167497Y488267D01*
X1175399Y488267D01*
X1175539Y488265D01*
X1175678Y488259D01*
X1175818Y488249D01*
X1175957Y488235D01*
X1176096Y488218D01*
X1176234Y488196D01*
X1176371Y488170D01*
X1176508Y488141D01*
X1176644Y488108D01*
X1176778Y488071D01*
X1176912Y488030D01*
X1177044Y487985D01*
X1177176Y487936D01*
X1177305Y487884D01*
X1177433Y487829D01*
X1177560Y487769D01*
X1177685Y487706D01*
X1177808Y487640D01*
X1177929Y487570D01*
X1178048Y487497D01*
X1178165Y487420D01*
X1178279Y487340D01*
X1178392Y487257D01*
X1178502Y487171D01*
X1178609Y487081D01*
X1178714Y486989D01*
X1178816Y486894D01*
X1178916Y486796D01*
X1179013Y486695D01*
X1179107Y486591D01*
X1179197Y486485D01*
X1179285Y486376D01*
X1179370Y486265D01*
X1179451Y486151D01*
X1179530Y486036D01*
X1179605Y485918D01*
X1179676Y485798D01*
X1179744Y485675D01*
X1179809Y485552D01*
X1179870Y485426D01*
X1179928Y485298D01*
X1179982Y485170D01*
X1180032Y485039D01*
X1180079Y484907D01*
X1180122Y484774D01*
X1180161Y484640D01*
X1180196Y484505D01*
X1180227Y484369D01*
X1180255Y484231D01*
X1180278Y484094D01*
X1180298Y483955D01*
X1180314Y483816D01*
X1180326Y483677D01*
X1180334Y483538D01*
X1180338Y483398D01*
X1180338Y483258D01*
X1180334Y483118D01*
X1180326Y482979D01*
X1180314Y482840D01*
X1180298Y482701D01*
X1180278Y482562D01*
X1180255Y482425D01*
X1180227Y482287D01*
X1180196Y482151D01*
X1180161Y482016D01*
X1180122Y481882D01*
X1180079Y481749D01*
X1180032Y481617D01*
X1179982Y481486D01*
X1179928Y481358D01*
X1179870Y481230D01*
X1179809Y481104D01*
X1179744Y480981D01*
X1179676Y480859D01*
X1179605Y480738D01*
X1179530Y480620D01*
X1179451Y480505D01*
X1179370Y480391D01*
X1179285Y480280D01*
X1179197Y480171D01*
X1179107Y480065D01*
X1179013Y479961D01*
X1178916Y479860D01*
X1178816Y479762D01*
X1178714Y479667D01*
X1178609Y479575D01*
X1178502Y479485D01*
X1178392Y479399D01*
X1178279Y479316D01*
X1178165Y479236D01*
X1178048Y479159D01*
X1177929Y479086D01*
X1177808Y479016D01*
X1177685Y478950D01*
X1177560Y478887D01*
X1177433Y478827D01*
X1177305Y478772D01*
X1177176Y478720D01*
X1177044Y478671D01*
X1176912Y478626D01*
X1176778Y478585D01*
X1176644Y478548D01*
X1176508Y478515D01*
X1176371Y478486D01*
X1176234Y478460D01*
X1176096Y478438D01*
X1175957Y478421D01*
X1175818Y478407D01*
X1175678Y478397D01*
X1175539Y478391D01*
X1175399Y478389D01*
X1180338Y495698D02*
X1162558Y495698D01*
X1180338Y505576D01*
X1162558Y505576D01*
X1162558Y516829D02*
X1180338Y516829D01*
X1162558Y511890D02*
X1162558Y521768D01*
X1162558Y528168D02*
X1180338Y528168D01*
X1162558Y528168D02*
X1162558Y533107D01*
X1162560Y533247D01*
X1162566Y533386D01*
X1162576Y533526D01*
X1162590Y533665D01*
X1162607Y533804D01*
X1162629Y533942D01*
X1162655Y534079D01*
X1162684Y534216D01*
X1162717Y534352D01*
X1162754Y534486D01*
X1162795Y534620D01*
X1162840Y534752D01*
X1162889Y534884D01*
X1162941Y535013D01*
X1162996Y535141D01*
X1163056Y535268D01*
X1163119Y535393D01*
X1163185Y535516D01*
X1163255Y535637D01*
X1163328Y535756D01*
X1163405Y535873D01*
X1163485Y535987D01*
X1163568Y536100D01*
X1163654Y536210D01*
X1163744Y536317D01*
X1163836Y536422D01*
X1163931Y536524D01*
X1164029Y536624D01*
X1164130Y536721D01*
X1164234Y536815D01*
X1164340Y536905D01*
X1164449Y536993D01*
X1164560Y537078D01*
X1164674Y537159D01*
X1164789Y537238D01*
X1164907Y537313D01*
X1165028Y537384D01*
X1165150Y537452D01*
X1165273Y537517D01*
X1165399Y537578D01*
X1165527Y537636D01*
X1165655Y537690D01*
X1165786Y537740D01*
X1165918Y537787D01*
X1166051Y537830D01*
X1166185Y537869D01*
X1166320Y537904D01*
X1166456Y537935D01*
X1166594Y537963D01*
X1166731Y537986D01*
X1166870Y538006D01*
X1167009Y538022D01*
X1167148Y538034D01*
X1167287Y538042D01*
X1167427Y538046D01*
X1167567Y538046D01*
X1167707Y538042D01*
X1167846Y538034D01*
X1167985Y538022D01*
X1168124Y538006D01*
X1168263Y537986D01*
X1168400Y537963D01*
X1168538Y537935D01*
X1168674Y537904D01*
X1168809Y537869D01*
X1168943Y537830D01*
X1169076Y537787D01*
X1169208Y537740D01*
X1169339Y537690D01*
X1169467Y537636D01*
X1169595Y537578D01*
X1169721Y537517D01*
X1169844Y537452D01*
X1169967Y537384D01*
X1170087Y537313D01*
X1170205Y537238D01*
X1170320Y537159D01*
X1170434Y537078D01*
X1170545Y536993D01*
X1170654Y536905D01*
X1170760Y536815D01*
X1170864Y536721D01*
X1170965Y536624D01*
X1171063Y536524D01*
X1171158Y536422D01*
X1171250Y536317D01*
X1171340Y536210D01*
X1171426Y536100D01*
X1171509Y535987D01*
X1171589Y535873D01*
X1171666Y535756D01*
X1171739Y535637D01*
X1171809Y535516D01*
X1171875Y535393D01*
X1171938Y535268D01*
X1171998Y535141D01*
X1172053Y535013D01*
X1172105Y534884D01*
X1172154Y534752D01*
X1172199Y534620D01*
X1172240Y534486D01*
X1172277Y534352D01*
X1172310Y534216D01*
X1172339Y534079D01*
X1172365Y533942D01*
X1172387Y533804D01*
X1172404Y533665D01*
X1172418Y533526D01*
X1172428Y533386D01*
X1172434Y533247D01*
X1172436Y533107D01*
X1172436Y528168D01*
X1172436Y534094D02*
X1180338Y538046D01*
X1175399Y544833D02*
X1167497Y544833D01*
X1167357Y544835D01*
X1167218Y544841D01*
X1167078Y544851D01*
X1166939Y544865D01*
X1166800Y544882D01*
X1166662Y544904D01*
X1166525Y544930D01*
X1166388Y544959D01*
X1166252Y544992D01*
X1166118Y545029D01*
X1165984Y545070D01*
X1165852Y545115D01*
X1165720Y545164D01*
X1165591Y545216D01*
X1165463Y545271D01*
X1165336Y545331D01*
X1165211Y545394D01*
X1165088Y545460D01*
X1164967Y545530D01*
X1164848Y545603D01*
X1164731Y545680D01*
X1164617Y545760D01*
X1164504Y545843D01*
X1164394Y545929D01*
X1164287Y546019D01*
X1164182Y546111D01*
X1164080Y546206D01*
X1163980Y546304D01*
X1163883Y546405D01*
X1163789Y546509D01*
X1163699Y546615D01*
X1163611Y546724D01*
X1163526Y546835D01*
X1163445Y546949D01*
X1163366Y547064D01*
X1163291Y547182D01*
X1163220Y547303D01*
X1163152Y547425D01*
X1163087Y547548D01*
X1163026Y547674D01*
X1162968Y547802D01*
X1162914Y547930D01*
X1162864Y548061D01*
X1162817Y548193D01*
X1162774Y548326D01*
X1162735Y548460D01*
X1162700Y548595D01*
X1162669Y548731D01*
X1162641Y548869D01*
X1162618Y549006D01*
X1162598Y549145D01*
X1162582Y549284D01*
X1162570Y549423D01*
X1162562Y549562D01*
X1162558Y549702D01*
X1162558Y549842D01*
X1162562Y549982D01*
X1162570Y550121D01*
X1162582Y550260D01*
X1162598Y550399D01*
X1162618Y550538D01*
X1162641Y550675D01*
X1162669Y550813D01*
X1162700Y550949D01*
X1162735Y551084D01*
X1162774Y551218D01*
X1162817Y551351D01*
X1162864Y551483D01*
X1162914Y551614D01*
X1162968Y551742D01*
X1163026Y551870D01*
X1163087Y551996D01*
X1163152Y552119D01*
X1163220Y552242D01*
X1163291Y552362D01*
X1163366Y552480D01*
X1163445Y552595D01*
X1163526Y552709D01*
X1163611Y552820D01*
X1163699Y552929D01*
X1163789Y553035D01*
X1163883Y553139D01*
X1163980Y553240D01*
X1164080Y553338D01*
X1164182Y553433D01*
X1164287Y553525D01*
X1164394Y553615D01*
X1164504Y553701D01*
X1164617Y553784D01*
X1164731Y553864D01*
X1164848Y553941D01*
X1164967Y554014D01*
X1165088Y554084D01*
X1165211Y554150D01*
X1165336Y554213D01*
X1165463Y554273D01*
X1165591Y554328D01*
X1165720Y554380D01*
X1165852Y554429D01*
X1165984Y554474D01*
X1166118Y554515D01*
X1166252Y554552D01*
X1166388Y554585D01*
X1166525Y554614D01*
X1166662Y554640D01*
X1166800Y554662D01*
X1166939Y554679D01*
X1167078Y554693D01*
X1167218Y554703D01*
X1167357Y554709D01*
X1167497Y554711D01*
X1175399Y554711D01*
X1175539Y554709D01*
X1175678Y554703D01*
X1175818Y554693D01*
X1175957Y554679D01*
X1176096Y554662D01*
X1176234Y554640D01*
X1176371Y554614D01*
X1176508Y554585D01*
X1176644Y554552D01*
X1176778Y554515D01*
X1176912Y554474D01*
X1177044Y554429D01*
X1177176Y554380D01*
X1177305Y554328D01*
X1177433Y554273D01*
X1177560Y554213D01*
X1177685Y554150D01*
X1177808Y554084D01*
X1177929Y554014D01*
X1178048Y553941D01*
X1178165Y553864D01*
X1178279Y553784D01*
X1178392Y553701D01*
X1178502Y553615D01*
X1178609Y553525D01*
X1178714Y553433D01*
X1178816Y553338D01*
X1178916Y553240D01*
X1179013Y553139D01*
X1179107Y553035D01*
X1179197Y552929D01*
X1179285Y552820D01*
X1179370Y552709D01*
X1179451Y552595D01*
X1179530Y552480D01*
X1179605Y552362D01*
X1179676Y552242D01*
X1179744Y552119D01*
X1179809Y551996D01*
X1179870Y551870D01*
X1179928Y551742D01*
X1179982Y551614D01*
X1180032Y551483D01*
X1180079Y551351D01*
X1180122Y551218D01*
X1180161Y551084D01*
X1180196Y550949D01*
X1180227Y550813D01*
X1180255Y550675D01*
X1180278Y550538D01*
X1180298Y550399D01*
X1180314Y550260D01*
X1180326Y550121D01*
X1180334Y549982D01*
X1180338Y549842D01*
X1180338Y549702D01*
X1180334Y549562D01*
X1180326Y549423D01*
X1180314Y549284D01*
X1180298Y549145D01*
X1180278Y549006D01*
X1180255Y548869D01*
X1180227Y548731D01*
X1180196Y548595D01*
X1180161Y548460D01*
X1180122Y548326D01*
X1180079Y548193D01*
X1180032Y548061D01*
X1179982Y547930D01*
X1179928Y547802D01*
X1179870Y547674D01*
X1179809Y547548D01*
X1179744Y547425D01*
X1179676Y547303D01*
X1179605Y547182D01*
X1179530Y547064D01*
X1179451Y546949D01*
X1179370Y546835D01*
X1179285Y546724D01*
X1179197Y546615D01*
X1179107Y546509D01*
X1179013Y546405D01*
X1178916Y546304D01*
X1178816Y546206D01*
X1178714Y546111D01*
X1178609Y546019D01*
X1178502Y545929D01*
X1178392Y545843D01*
X1178279Y545760D01*
X1178165Y545680D01*
X1178048Y545603D01*
X1177929Y545530D01*
X1177808Y545460D01*
X1177685Y545394D01*
X1177560Y545331D01*
X1177433Y545271D01*
X1177305Y545216D01*
X1177176Y545164D01*
X1177044Y545115D01*
X1176912Y545070D01*
X1176778Y545029D01*
X1176644Y544992D01*
X1176508Y544959D01*
X1176371Y544930D01*
X1176234Y544904D01*
X1176096Y544882D01*
X1175957Y544865D01*
X1175818Y544851D01*
X1175678Y544841D01*
X1175539Y544835D01*
X1175399Y544833D01*
X1180338Y562170D02*
X1162558Y562170D01*
X1180338Y562170D02*
X1180338Y570072D01*
X1180338Y576687D02*
X1162558Y576687D01*
X1180338Y576687D02*
X1180338Y584590D01*
X1180338Y591204D02*
X1180338Y599107D01*
X1180338Y591204D02*
X1162558Y591204D01*
X1162558Y599107D01*
X1170460Y597131D02*
X1170460Y591204D01*
X1162558Y605778D02*
X1180338Y605778D01*
X1162558Y605778D02*
X1162558Y610717D01*
X1162560Y610857D01*
X1162566Y610996D01*
X1162576Y611136D01*
X1162590Y611275D01*
X1162607Y611414D01*
X1162629Y611552D01*
X1162655Y611689D01*
X1162684Y611826D01*
X1162717Y611962D01*
X1162754Y612096D01*
X1162795Y612230D01*
X1162840Y612362D01*
X1162889Y612494D01*
X1162941Y612623D01*
X1162996Y612751D01*
X1163056Y612878D01*
X1163119Y613003D01*
X1163185Y613126D01*
X1163255Y613247D01*
X1163328Y613366D01*
X1163405Y613483D01*
X1163485Y613597D01*
X1163568Y613710D01*
X1163654Y613820D01*
X1163744Y613927D01*
X1163836Y614032D01*
X1163931Y614134D01*
X1164029Y614234D01*
X1164130Y614331D01*
X1164234Y614425D01*
X1164340Y614515D01*
X1164449Y614603D01*
X1164560Y614688D01*
X1164674Y614769D01*
X1164789Y614848D01*
X1164907Y614923D01*
X1165028Y614994D01*
X1165150Y615062D01*
X1165273Y615127D01*
X1165399Y615188D01*
X1165527Y615246D01*
X1165655Y615300D01*
X1165786Y615350D01*
X1165918Y615397D01*
X1166051Y615440D01*
X1166185Y615479D01*
X1166320Y615514D01*
X1166456Y615545D01*
X1166594Y615573D01*
X1166731Y615596D01*
X1166870Y615616D01*
X1167009Y615632D01*
X1167148Y615644D01*
X1167287Y615652D01*
X1167427Y615656D01*
X1167567Y615656D01*
X1167707Y615652D01*
X1167846Y615644D01*
X1167985Y615632D01*
X1168124Y615616D01*
X1168263Y615596D01*
X1168400Y615573D01*
X1168538Y615545D01*
X1168674Y615514D01*
X1168809Y615479D01*
X1168943Y615440D01*
X1169076Y615397D01*
X1169208Y615350D01*
X1169339Y615300D01*
X1169467Y615246D01*
X1169595Y615188D01*
X1169721Y615127D01*
X1169844Y615062D01*
X1169967Y614994D01*
X1170087Y614923D01*
X1170205Y614848D01*
X1170320Y614769D01*
X1170434Y614688D01*
X1170545Y614603D01*
X1170654Y614515D01*
X1170760Y614425D01*
X1170864Y614331D01*
X1170965Y614234D01*
X1171063Y614134D01*
X1171158Y614032D01*
X1171250Y613927D01*
X1171340Y613820D01*
X1171426Y613710D01*
X1171509Y613597D01*
X1171589Y613483D01*
X1171666Y613366D01*
X1171739Y613247D01*
X1171809Y613126D01*
X1171875Y613003D01*
X1171938Y612878D01*
X1171998Y612751D01*
X1172053Y612623D01*
X1172105Y612494D01*
X1172154Y612362D01*
X1172199Y612230D01*
X1172240Y612096D01*
X1172277Y611962D01*
X1172310Y611826D01*
X1172339Y611689D01*
X1172365Y611552D01*
X1172387Y611414D01*
X1172404Y611275D01*
X1172418Y611136D01*
X1172428Y610996D01*
X1172434Y610857D01*
X1172436Y610717D01*
X1172436Y605778D01*
X1172436Y611705D02*
X1180338Y615656D01*
X1180338Y636316D02*
X1162558Y630389D01*
X1162558Y642242D02*
X1180338Y636316D01*
X1162558Y653560D02*
X1162560Y653692D01*
X1162566Y653823D01*
X1162576Y653955D01*
X1162589Y654086D01*
X1162607Y654216D01*
X1162628Y654346D01*
X1162653Y654476D01*
X1162682Y654604D01*
X1162715Y654732D01*
X1162752Y654858D01*
X1162792Y654984D01*
X1162836Y655108D01*
X1162884Y655231D01*
X1162935Y655352D01*
X1162990Y655472D01*
X1163048Y655590D01*
X1163110Y655706D01*
X1163176Y655820D01*
X1163244Y655933D01*
X1163316Y656043D01*
X1163391Y656151D01*
X1163470Y656257D01*
X1163551Y656361D01*
X1163636Y656462D01*
X1163723Y656560D01*
X1163814Y656656D01*
X1163907Y656749D01*
X1164003Y656840D01*
X1164101Y656927D01*
X1164202Y657012D01*
X1164306Y657093D01*
X1164412Y657172D01*
X1164520Y657247D01*
X1164630Y657319D01*
X1164743Y657387D01*
X1164857Y657453D01*
X1164973Y657515D01*
X1165091Y657573D01*
X1165211Y657628D01*
X1165332Y657679D01*
X1165455Y657727D01*
X1165579Y657771D01*
X1165705Y657811D01*
X1165831Y657848D01*
X1165959Y657881D01*
X1166087Y657910D01*
X1166217Y657935D01*
X1166347Y657956D01*
X1166477Y657974D01*
X1166608Y657987D01*
X1166740Y657997D01*
X1166871Y658003D01*
X1167003Y658005D01*
X1162558Y653560D02*
X1162560Y653410D01*
X1162566Y653261D01*
X1162576Y653112D01*
X1162589Y652963D01*
X1162607Y652814D01*
X1162628Y652666D01*
X1162654Y652518D01*
X1162683Y652372D01*
X1162716Y652226D01*
X1162753Y652081D01*
X1162794Y651937D01*
X1162838Y651794D01*
X1162886Y651652D01*
X1162938Y651512D01*
X1162993Y651373D01*
X1163052Y651235D01*
X1163115Y651100D01*
X1163181Y650965D01*
X1163251Y650833D01*
X1163324Y650703D01*
X1163401Y650574D01*
X1163481Y650447D01*
X1163564Y650323D01*
X1163650Y650201D01*
X1163740Y650081D01*
X1163833Y649964D01*
X1163928Y649849D01*
X1164027Y649736D01*
X1164129Y649626D01*
X1164233Y649519D01*
X1164340Y649415D01*
X1164450Y649313D01*
X1164563Y649215D01*
X1164678Y649119D01*
X1164796Y649027D01*
X1164916Y648937D01*
X1165038Y648851D01*
X1165162Y648768D01*
X1165289Y648688D01*
X1165417Y648612D01*
X1165548Y648539D01*
X1165681Y648469D01*
X1165815Y648403D01*
X1165951Y648341D01*
X1166088Y648282D01*
X1166227Y648226D01*
X1166368Y648175D01*
X1166509Y648127D01*
X1170460Y656523D02*
X1170367Y656619D01*
X1170271Y656711D01*
X1170172Y656801D01*
X1170071Y656888D01*
X1169968Y656973D01*
X1169863Y657054D01*
X1169755Y657132D01*
X1169645Y657207D01*
X1169533Y657280D01*
X1169419Y657349D01*
X1169303Y657415D01*
X1169185Y657477D01*
X1169066Y657536D01*
X1168945Y657592D01*
X1168822Y657645D01*
X1168698Y657694D01*
X1168573Y657739D01*
X1168446Y657782D01*
X1168319Y657820D01*
X1168190Y657855D01*
X1168061Y657886D01*
X1167930Y657914D01*
X1167799Y657938D01*
X1167667Y657959D01*
X1167535Y657975D01*
X1167402Y657988D01*
X1167269Y657998D01*
X1167136Y658003D01*
X1167003Y658005D01*
X1170460Y656523D02*
X1180338Y648127D01*
X1180338Y658005D01*
X1180338Y664297D02*
X1179350Y664297D01*
X1179350Y665285D01*
X1180338Y665285D01*
X1180338Y664297D01*
X1171448Y671578D02*
X1171098Y671582D01*
X1170749Y671595D01*
X1170400Y671616D01*
X1170051Y671645D01*
X1169703Y671682D01*
X1169356Y671728D01*
X1169011Y671782D01*
X1168667Y671844D01*
X1168324Y671915D01*
X1167983Y671994D01*
X1167644Y672080D01*
X1167308Y672175D01*
X1166973Y672278D01*
X1166642Y672389D01*
X1166313Y672507D01*
X1165986Y672634D01*
X1165663Y672768D01*
X1165344Y672910D01*
X1165027Y673060D01*
X1165028Y673060D02*
X1164915Y673100D01*
X1164805Y673144D01*
X1164695Y673192D01*
X1164588Y673243D01*
X1164482Y673298D01*
X1164377Y673356D01*
X1164275Y673418D01*
X1164175Y673483D01*
X1164077Y673551D01*
X1163981Y673622D01*
X1163888Y673697D01*
X1163797Y673774D01*
X1163709Y673854D01*
X1163624Y673937D01*
X1163541Y674023D01*
X1163461Y674112D01*
X1163384Y674203D01*
X1163310Y674297D01*
X1163239Y674393D01*
X1163171Y674491D01*
X1163107Y674591D01*
X1163045Y674694D01*
X1162988Y674798D01*
X1162933Y674904D01*
X1162882Y675012D01*
X1162835Y675122D01*
X1162791Y675233D01*
X1162751Y675345D01*
X1162715Y675459D01*
X1162682Y675573D01*
X1162653Y675689D01*
X1162628Y675806D01*
X1162607Y675923D01*
X1162589Y676041D01*
X1162576Y676160D01*
X1162566Y676279D01*
X1162560Y676398D01*
X1162558Y676517D01*
X1162560Y676636D01*
X1162566Y676755D01*
X1162576Y676874D01*
X1162589Y676993D01*
X1162607Y677111D01*
X1162628Y677228D01*
X1162653Y677345D01*
X1162682Y677461D01*
X1162715Y677575D01*
X1162751Y677689D01*
X1162791Y677801D01*
X1162835Y677912D01*
X1162882Y678022D01*
X1162933Y678130D01*
X1162988Y678236D01*
X1163045Y678340D01*
X1163107Y678443D01*
X1163171Y678543D01*
X1163239Y678641D01*
X1163310Y678737D01*
X1163384Y678831D01*
X1163461Y678922D01*
X1163541Y679011D01*
X1163624Y679097D01*
X1163709Y679180D01*
X1163797Y679260D01*
X1163888Y679337D01*
X1163982Y679412D01*
X1164077Y679483D01*
X1164175Y679551D01*
X1164275Y679616D01*
X1164377Y679678D01*
X1164482Y679736D01*
X1164588Y679791D01*
X1164695Y679842D01*
X1164805Y679890D01*
X1164915Y679934D01*
X1165028Y679974D01*
X1165028Y679973D02*
X1165344Y680123D01*
X1165663Y680265D01*
X1165986Y680399D01*
X1166313Y680526D01*
X1166642Y680644D01*
X1166973Y680755D01*
X1167308Y680858D01*
X1167644Y680953D01*
X1167983Y681039D01*
X1168324Y681118D01*
X1168667Y681189D01*
X1169011Y681251D01*
X1169356Y681305D01*
X1169703Y681351D01*
X1170051Y681388D01*
X1170400Y681417D01*
X1170749Y681438D01*
X1171098Y681451D01*
X1171448Y681455D01*
X1171448Y671578D02*
X1171798Y671582D01*
X1172147Y671595D01*
X1172496Y671616D01*
X1172845Y671645D01*
X1173193Y671682D01*
X1173540Y671728D01*
X1173885Y671782D01*
X1174229Y671844D01*
X1174572Y671915D01*
X1174913Y671994D01*
X1175252Y672080D01*
X1175588Y672175D01*
X1175923Y672278D01*
X1176254Y672389D01*
X1176583Y672507D01*
X1176910Y672634D01*
X1177233Y672768D01*
X1177552Y672910D01*
X1177868Y673060D01*
X1177981Y673100D01*
X1178091Y673144D01*
X1178201Y673192D01*
X1178309Y673243D01*
X1178415Y673298D01*
X1178519Y673356D01*
X1178621Y673418D01*
X1178721Y673483D01*
X1178819Y673551D01*
X1178915Y673622D01*
X1179008Y673697D01*
X1179099Y673774D01*
X1179187Y673854D01*
X1179272Y673938D01*
X1179355Y674023D01*
X1179435Y674112D01*
X1179512Y674203D01*
X1179586Y674297D01*
X1179657Y674393D01*
X1179725Y674491D01*
X1179789Y674591D01*
X1179851Y674694D01*
X1179909Y674798D01*
X1179963Y674904D01*
X1180014Y675012D01*
X1180061Y675122D01*
X1180105Y675233D01*
X1180145Y675345D01*
X1180181Y675459D01*
X1180214Y675573D01*
X1180243Y675689D01*
X1180268Y675806D01*
X1180289Y675923D01*
X1180307Y676041D01*
X1180320Y676160D01*
X1180330Y676279D01*
X1180336Y676398D01*
X1180338Y676517D01*
X1177868Y679973D02*
X1177552Y680123D01*
X1177233Y680265D01*
X1176910Y680399D01*
X1176583Y680526D01*
X1176254Y680644D01*
X1175923Y680755D01*
X1175588Y680858D01*
X1175252Y680953D01*
X1174913Y681039D01*
X1174572Y681118D01*
X1174229Y681189D01*
X1173885Y681251D01*
X1173540Y681305D01*
X1173193Y681351D01*
X1172845Y681388D01*
X1172496Y681417D01*
X1172147Y681438D01*
X1171798Y681451D01*
X1171448Y681455D01*
X1177868Y679974D02*
X1177981Y679934D01*
X1178091Y679890D01*
X1178201Y679842D01*
X1178308Y679791D01*
X1178414Y679736D01*
X1178519Y679678D01*
X1178621Y679616D01*
X1178721Y679551D01*
X1178819Y679483D01*
X1178915Y679412D01*
X1179008Y679337D01*
X1179099Y679260D01*
X1179187Y679180D01*
X1179272Y679097D01*
X1179355Y679011D01*
X1179435Y678922D01*
X1179512Y678831D01*
X1179586Y678737D01*
X1179657Y678641D01*
X1179725Y678543D01*
X1179789Y678443D01*
X1179851Y678340D01*
X1179908Y678236D01*
X1179963Y678130D01*
X1180014Y678022D01*
X1180061Y677912D01*
X1180105Y677801D01*
X1180145Y677689D01*
X1180181Y677575D01*
X1180214Y677461D01*
X1180243Y677345D01*
X1180268Y677228D01*
X1180289Y677111D01*
X1180307Y676993D01*
X1180320Y676874D01*
X1180330Y676755D01*
X1180336Y676636D01*
X1180338Y676517D01*
X1176387Y672566D02*
X1166509Y680468D01*
X50715Y537901D02*
X38862Y537901D01*
X44789Y531975D02*
X44789Y543828D01*
X63150Y548767D02*
X63282Y548765D01*
X63413Y548759D01*
X63545Y548749D01*
X63676Y548736D01*
X63806Y548718D01*
X63936Y548697D01*
X64066Y548672D01*
X64194Y548643D01*
X64322Y548610D01*
X64448Y548573D01*
X64574Y548533D01*
X64698Y548489D01*
X64821Y548441D01*
X64942Y548390D01*
X65062Y548335D01*
X65180Y548277D01*
X65296Y548215D01*
X65410Y548149D01*
X65523Y548081D01*
X65633Y548009D01*
X65741Y547934D01*
X65847Y547855D01*
X65951Y547774D01*
X66052Y547689D01*
X66150Y547602D01*
X66246Y547511D01*
X66339Y547418D01*
X66430Y547322D01*
X66517Y547224D01*
X66602Y547123D01*
X66683Y547019D01*
X66762Y546913D01*
X66837Y546805D01*
X66909Y546695D01*
X66977Y546582D01*
X67043Y546468D01*
X67105Y546352D01*
X67163Y546234D01*
X67218Y546114D01*
X67269Y545993D01*
X67317Y545870D01*
X67361Y545746D01*
X67401Y545620D01*
X67438Y545494D01*
X67471Y545366D01*
X67500Y545238D01*
X67525Y545108D01*
X67546Y544978D01*
X67564Y544848D01*
X67577Y544717D01*
X67587Y544585D01*
X67593Y544454D01*
X67595Y544322D01*
X63150Y548767D02*
X63000Y548765D01*
X62851Y548759D01*
X62702Y548749D01*
X62553Y548736D01*
X62404Y548718D01*
X62256Y548697D01*
X62108Y548671D01*
X61962Y548642D01*
X61816Y548609D01*
X61671Y548572D01*
X61527Y548531D01*
X61384Y548487D01*
X61242Y548439D01*
X61102Y548387D01*
X60963Y548332D01*
X60825Y548273D01*
X60690Y548210D01*
X60555Y548144D01*
X60423Y548074D01*
X60293Y548001D01*
X60164Y547924D01*
X60037Y547844D01*
X59913Y547761D01*
X59791Y547675D01*
X59671Y547585D01*
X59554Y547492D01*
X59439Y547397D01*
X59326Y547298D01*
X59216Y547196D01*
X59109Y547092D01*
X59005Y546985D01*
X58903Y546875D01*
X58805Y546762D01*
X58709Y546647D01*
X58617Y546529D01*
X58527Y546409D01*
X58441Y546287D01*
X58358Y546163D01*
X58278Y546036D01*
X58202Y545908D01*
X58129Y545777D01*
X58059Y545644D01*
X57993Y545510D01*
X57931Y545374D01*
X57872Y545237D01*
X57816Y545098D01*
X57765Y544957D01*
X57717Y544816D01*
X66112Y540865D02*
X66208Y540958D01*
X66300Y541054D01*
X66390Y541153D01*
X66477Y541254D01*
X66562Y541357D01*
X66643Y541462D01*
X66721Y541570D01*
X66796Y541680D01*
X66869Y541792D01*
X66938Y541906D01*
X67004Y542022D01*
X67066Y542140D01*
X67125Y542259D01*
X67181Y542380D01*
X67234Y542503D01*
X67283Y542627D01*
X67328Y542752D01*
X67371Y542879D01*
X67409Y543006D01*
X67444Y543135D01*
X67475Y543264D01*
X67503Y543395D01*
X67527Y543526D01*
X67548Y543658D01*
X67564Y543790D01*
X67577Y543923D01*
X67587Y544056D01*
X67592Y544189D01*
X67594Y544322D01*
X66113Y540865D02*
X57717Y530987D01*
X67595Y530987D01*
X74467Y534938D02*
X78418Y548767D01*
X74467Y534938D02*
X84345Y534938D01*
X81382Y538889D02*
X81382Y530987D01*
D13*
X290708Y248577D02*
X290708Y186577D01*
X228708Y186577D01*
X228708Y248577D01*
X290708Y248577D01*
D14*
X295708Y261577D03*
D12*
X246954Y387431D02*
X215966Y387431D01*
X234508Y418419D02*
X246954Y418419D01*
X234508Y418419D02*
X228412Y418419D01*
X215966Y418419D01*
X232730Y415624D02*
X232828Y415672D01*
X232924Y415724D01*
X233019Y415779D01*
X233112Y415837D01*
X233202Y415898D01*
X233290Y415963D01*
X233376Y416030D01*
X233459Y416101D01*
X233540Y416174D01*
X233618Y416251D01*
X233694Y416330D01*
X233766Y416411D01*
X233836Y416496D01*
X233902Y416582D01*
X233966Y416671D01*
X234026Y416762D01*
X234083Y416856D01*
X234137Y416951D01*
X234187Y417048D01*
X234234Y417146D01*
X234277Y417247D01*
X234317Y417349D01*
X234353Y417452D01*
X234385Y417556D01*
X234414Y417661D01*
X234439Y417768D01*
X234460Y417875D01*
X234477Y417983D01*
X234491Y418091D01*
X234500Y418200D01*
X234506Y418309D01*
X234508Y418419D01*
X230190Y415624D02*
X230092Y415672D01*
X229996Y415724D01*
X229901Y415779D01*
X229808Y415837D01*
X229718Y415898D01*
X229630Y415963D01*
X229544Y416030D01*
X229461Y416101D01*
X229380Y416174D01*
X229302Y416251D01*
X229226Y416330D01*
X229154Y416411D01*
X229084Y416496D01*
X229018Y416582D01*
X228954Y416671D01*
X228894Y416762D01*
X228837Y416856D01*
X228783Y416951D01*
X228733Y417048D01*
X228686Y417146D01*
X228643Y417247D01*
X228603Y417349D01*
X228567Y417452D01*
X228535Y417556D01*
X228506Y417661D01*
X228481Y417768D01*
X228460Y417875D01*
X228443Y417983D01*
X228429Y418091D01*
X228420Y418200D01*
X228414Y418309D01*
X228412Y418419D01*
D11*
X117414Y385145D02*
X117414Y349585D01*
X117414Y385145D02*
X182946Y385145D01*
X182946Y349585D01*
X117414Y349585D01*
D15*
X135513Y402925D02*
X137488Y402925D01*
X137575Y402927D01*
X137663Y402933D01*
X137750Y402942D01*
X137836Y402956D01*
X137922Y402973D01*
X138006Y402994D01*
X138090Y403019D01*
X138173Y403048D01*
X138254Y403080D01*
X138334Y403115D01*
X138412Y403154D01*
X138489Y403197D01*
X138563Y403243D01*
X138635Y403292D01*
X138705Y403344D01*
X138773Y403400D01*
X138838Y403458D01*
X138901Y403519D01*
X138960Y403583D01*
X139017Y403650D01*
X139071Y403718D01*
X139122Y403790D01*
X139169Y403863D01*
X139214Y403938D01*
X139255Y404016D01*
X139292Y404095D01*
X139326Y404175D01*
X139356Y404257D01*
X139383Y404340D01*
X139406Y404425D01*
X139425Y404510D01*
X139440Y404596D01*
X139452Y404683D01*
X139460Y404770D01*
X139464Y404857D01*
X139464Y404945D01*
X139460Y405032D01*
X139452Y405119D01*
X139440Y405206D01*
X139425Y405292D01*
X139406Y405377D01*
X139383Y405462D01*
X139356Y405545D01*
X139326Y405627D01*
X139292Y405707D01*
X139255Y405786D01*
X139214Y405864D01*
X139169Y405939D01*
X139122Y406012D01*
X139071Y406084D01*
X139017Y406152D01*
X138960Y406219D01*
X138901Y406283D01*
X138838Y406344D01*
X138773Y406402D01*
X138705Y406458D01*
X138635Y406510D01*
X138563Y406559D01*
X138489Y406605D01*
X138412Y406648D01*
X138334Y406687D01*
X138254Y406722D01*
X138173Y406754D01*
X138090Y406783D01*
X138006Y406808D01*
X137922Y406829D01*
X137836Y406846D01*
X137750Y406860D01*
X137663Y406869D01*
X137575Y406875D01*
X137488Y406877D01*
X137884Y410037D02*
X135513Y410037D01*
X137884Y410037D02*
X137963Y410035D01*
X138041Y410029D01*
X138119Y410019D01*
X138197Y410006D01*
X138274Y409988D01*
X138350Y409967D01*
X138424Y409942D01*
X138498Y409913D01*
X138570Y409881D01*
X138640Y409845D01*
X138708Y409805D01*
X138774Y409762D01*
X138838Y409716D01*
X138900Y409667D01*
X138959Y409615D01*
X139015Y409560D01*
X139069Y409502D01*
X139119Y409442D01*
X139167Y409379D01*
X139211Y409314D01*
X139252Y409247D01*
X139290Y409178D01*
X139324Y409107D01*
X139355Y409034D01*
X139382Y408960D01*
X139405Y408885D01*
X139424Y408809D01*
X139440Y408731D01*
X139452Y408653D01*
X139460Y408575D01*
X139464Y408496D01*
X139464Y408418D01*
X139460Y408339D01*
X139452Y408261D01*
X139440Y408183D01*
X139424Y408105D01*
X139405Y408029D01*
X139382Y407954D01*
X139355Y407880D01*
X139324Y407807D01*
X139290Y407736D01*
X139252Y407667D01*
X139211Y407600D01*
X139167Y407535D01*
X139119Y407472D01*
X139069Y407412D01*
X139015Y407354D01*
X138959Y407299D01*
X138900Y407247D01*
X138838Y407198D01*
X138774Y407152D01*
X138708Y407109D01*
X138640Y407069D01*
X138570Y407033D01*
X138498Y407001D01*
X138424Y406972D01*
X138350Y406947D01*
X138274Y406926D01*
X138197Y406908D01*
X138119Y406895D01*
X138041Y406885D01*
X137963Y406879D01*
X137884Y406877D01*
X137884Y406876D02*
X136303Y406876D01*
X128251Y341457D02*
X126671Y335925D01*
X130622Y335925D01*
X129437Y337506D02*
X129437Y334345D01*
X180247Y408457D02*
X182222Y410037D01*
X182222Y402925D01*
X180247Y402925D02*
X184198Y402925D01*
X162578Y408353D02*
X162576Y408435D01*
X162570Y408517D01*
X162561Y408599D01*
X162548Y408680D01*
X162531Y408760D01*
X162510Y408840D01*
X162486Y408918D01*
X162458Y408995D01*
X162427Y409071D01*
X162392Y409146D01*
X162353Y409218D01*
X162312Y409289D01*
X162267Y409358D01*
X162219Y409424D01*
X162168Y409489D01*
X162114Y409551D01*
X162057Y409610D01*
X161998Y409667D01*
X161936Y409721D01*
X161871Y409772D01*
X161805Y409820D01*
X161736Y409865D01*
X161665Y409906D01*
X161593Y409945D01*
X161518Y409980D01*
X161442Y410011D01*
X161365Y410039D01*
X161287Y410063D01*
X161207Y410084D01*
X161127Y410101D01*
X161046Y410114D01*
X160964Y410123D01*
X160882Y410129D01*
X160800Y410131D01*
X160707Y410129D01*
X160615Y410123D01*
X160523Y410114D01*
X160431Y410101D01*
X160340Y410084D01*
X160250Y410064D01*
X160160Y410040D01*
X160072Y410012D01*
X159984Y409980D01*
X159899Y409946D01*
X159814Y409907D01*
X159732Y409866D01*
X159651Y409821D01*
X159571Y409772D01*
X159494Y409721D01*
X159419Y409667D01*
X159347Y409609D01*
X159277Y409549D01*
X159209Y409485D01*
X159144Y409420D01*
X159081Y409351D01*
X159022Y409280D01*
X158965Y409207D01*
X158911Y409131D01*
X158861Y409054D01*
X158813Y408974D01*
X158769Y408893D01*
X158729Y408809D01*
X158691Y408725D01*
X158657Y408638D01*
X158627Y408551D01*
X161985Y406970D02*
X162046Y407031D01*
X162104Y407094D01*
X162159Y407160D01*
X162212Y407228D01*
X162261Y407299D01*
X162306Y407371D01*
X162349Y407446D01*
X162388Y407522D01*
X162424Y407601D01*
X162456Y407680D01*
X162484Y407761D01*
X162509Y407844D01*
X162530Y407927D01*
X162547Y408011D01*
X162561Y408096D01*
X162570Y408181D01*
X162576Y408267D01*
X162578Y408353D01*
X161985Y406970D02*
X158627Y403019D01*
X162578Y403019D01*
D11*
X336920Y404065D02*
X369920Y404065D01*
X374920Y404065D01*
X374920Y356065D02*
X369920Y356065D01*
X336920Y356065D01*
X369920Y356065D02*
X369920Y404065D01*
X1050150Y1129450D02*
X1053150Y1129450D01*
X1050150Y1129450D02*
X1050150Y1132450D01*
X1053150Y1132450D01*
X1053150Y1139450D01*
X824150Y1139450D02*
X824150Y1132450D01*
X827150Y1132450D01*
X827150Y1129450D01*
X824150Y1129450D01*
X827150Y1129450D02*
X1050150Y1129450D01*
X1053150Y1139450D02*
X824150Y1139450D01*
X1053150Y1095450D02*
X1053150Y1085450D01*
X1041150Y1085450D01*
X824150Y1085450D02*
X824150Y1095450D01*
X824150Y1085450D02*
X836150Y1085450D01*
X1053150Y1125450D02*
X1053150Y1129450D01*
X824150Y1129450D02*
X824150Y1125450D01*
D16*
X968800Y201100D03*
D11*
X534465Y72400D02*
X313865Y72400D01*
X534465Y72400D02*
X534465Y10400D01*
X534465Y2400D01*
X313865Y2400D01*
X313865Y10400D01*
X313865Y72400D01*
X313865Y10400D02*
X534465Y10400D01*
X294435Y72400D02*
X73835Y72400D01*
X294435Y72400D02*
X294435Y10400D01*
X294435Y2400D01*
X73835Y2400D01*
X73835Y10400D01*
X73835Y72400D01*
X73835Y10400D02*
X294435Y10400D01*
X72415Y110040D02*
X72415Y330640D01*
X72415Y110040D02*
X10415Y110040D01*
X2415Y110040D01*
X2415Y330640D01*
X10415Y330640D01*
X72415Y330640D01*
X10415Y330640D02*
X10415Y110040D01*
D13*
X422625Y479825D02*
X422625Y503825D01*
X394625Y479825D02*
X394625Y478825D01*
X394625Y503825D02*
X394625Y504825D01*
D17*
G36*
X724456Y742568D02*
X726223Y740801D01*
X724456Y739034D01*
X722689Y740801D01*
X724456Y742568D01*
G37*
D13*
X728925Y684975D02*
X728927Y685038D01*
X728933Y685100D01*
X728943Y685162D01*
X728956Y685224D01*
X728974Y685284D01*
X728995Y685343D01*
X729020Y685401D01*
X729049Y685457D01*
X729081Y685511D01*
X729116Y685563D01*
X729154Y685612D01*
X729196Y685660D01*
X729240Y685704D01*
X729288Y685746D01*
X729337Y685784D01*
X729389Y685819D01*
X729443Y685851D01*
X729499Y685880D01*
X729557Y685905D01*
X729616Y685926D01*
X729676Y685944D01*
X729738Y685957D01*
X729800Y685967D01*
X729862Y685973D01*
X729925Y685975D01*
X729988Y685973D01*
X730050Y685967D01*
X730112Y685957D01*
X730174Y685944D01*
X730234Y685926D01*
X730293Y685905D01*
X730351Y685880D01*
X730407Y685851D01*
X730461Y685819D01*
X730513Y685784D01*
X730562Y685746D01*
X730610Y685704D01*
X730654Y685660D01*
X730696Y685612D01*
X730734Y685563D01*
X730769Y685511D01*
X730801Y685457D01*
X730830Y685401D01*
X730855Y685343D01*
X730876Y685284D01*
X730894Y685224D01*
X730907Y685162D01*
X730917Y685100D01*
X730923Y685038D01*
X730925Y684975D01*
X730923Y684912D01*
X730917Y684850D01*
X730907Y684788D01*
X730894Y684726D01*
X730876Y684666D01*
X730855Y684607D01*
X730830Y684549D01*
X730801Y684493D01*
X730769Y684439D01*
X730734Y684387D01*
X730696Y684338D01*
X730654Y684290D01*
X730610Y684246D01*
X730562Y684204D01*
X730513Y684166D01*
X730461Y684131D01*
X730407Y684099D01*
X730351Y684070D01*
X730293Y684045D01*
X730234Y684024D01*
X730174Y684006D01*
X730112Y683993D01*
X730050Y683983D01*
X729988Y683977D01*
X729925Y683975D01*
X729862Y683977D01*
X729800Y683983D01*
X729738Y683993D01*
X729676Y684006D01*
X729616Y684024D01*
X729557Y684045D01*
X729499Y684070D01*
X729443Y684099D01*
X729389Y684131D01*
X729337Y684166D01*
X729288Y684204D01*
X729240Y684246D01*
X729196Y684290D01*
X729154Y684338D01*
X729116Y684387D01*
X729081Y684439D01*
X729049Y684493D01*
X729020Y684549D01*
X728995Y684607D01*
X728974Y684666D01*
X728956Y684726D01*
X728943Y684788D01*
X728933Y684850D01*
X728927Y684912D01*
X728925Y684975D01*
D18*
X984725Y453675D02*
X993325Y453675D01*
X993325Y695675D02*
X984725Y695675D01*
X759925Y453675D02*
X751325Y453675D01*
X751325Y695675D02*
X759925Y695675D01*
X993325Y462275D02*
X993325Y453675D01*
X993325Y687075D02*
X993325Y695675D01*
X751325Y462275D02*
X751325Y453675D01*
X751325Y687075D02*
X751325Y695675D01*
D11*
X608019Y142375D02*
X608021Y142489D01*
X608027Y142602D01*
X608037Y142715D01*
X608051Y142828D01*
X608068Y142940D01*
X608090Y143052D01*
X608116Y143163D01*
X608145Y143272D01*
X608178Y143381D01*
X608215Y143489D01*
X608256Y143595D01*
X608300Y143699D01*
X608349Y143802D01*
X608400Y143904D01*
X608455Y144003D01*
X608514Y144100D01*
X608576Y144196D01*
X608641Y144289D01*
X608709Y144380D01*
X608781Y144468D01*
X608855Y144554D01*
X608933Y144637D01*
X609013Y144717D01*
X609096Y144795D01*
X609182Y144869D01*
X609270Y144941D01*
X609361Y145009D01*
X609454Y145074D01*
X609550Y145136D01*
X609647Y145195D01*
X609746Y145250D01*
X609848Y145301D01*
X609951Y145350D01*
X610055Y145394D01*
X610161Y145435D01*
X610269Y145472D01*
X610378Y145505D01*
X610487Y145534D01*
X610598Y145560D01*
X610710Y145582D01*
X610822Y145599D01*
X610935Y145613D01*
X611048Y145623D01*
X611161Y145629D01*
X611275Y145631D01*
X611389Y145629D01*
X611502Y145623D01*
X611615Y145613D01*
X611728Y145599D01*
X611840Y145582D01*
X611952Y145560D01*
X612063Y145534D01*
X612172Y145505D01*
X612281Y145472D01*
X612389Y145435D01*
X612495Y145394D01*
X612599Y145350D01*
X612702Y145301D01*
X612804Y145250D01*
X612903Y145195D01*
X613000Y145136D01*
X613096Y145074D01*
X613189Y145009D01*
X613280Y144941D01*
X613368Y144869D01*
X613454Y144795D01*
X613537Y144717D01*
X613617Y144637D01*
X613695Y144554D01*
X613769Y144468D01*
X613841Y144380D01*
X613909Y144289D01*
X613974Y144196D01*
X614036Y144100D01*
X614095Y144003D01*
X614150Y143904D01*
X614201Y143802D01*
X614250Y143699D01*
X614294Y143595D01*
X614335Y143489D01*
X614372Y143381D01*
X614405Y143272D01*
X614434Y143163D01*
X614460Y143052D01*
X614482Y142940D01*
X614499Y142828D01*
X614513Y142715D01*
X614523Y142602D01*
X614529Y142489D01*
X614531Y142375D01*
X614529Y142261D01*
X614523Y142148D01*
X614513Y142035D01*
X614499Y141922D01*
X614482Y141810D01*
X614460Y141698D01*
X614434Y141587D01*
X614405Y141478D01*
X614372Y141369D01*
X614335Y141261D01*
X614294Y141155D01*
X614250Y141051D01*
X614201Y140948D01*
X614150Y140846D01*
X614095Y140747D01*
X614036Y140650D01*
X613974Y140554D01*
X613909Y140461D01*
X613841Y140370D01*
X613769Y140282D01*
X613695Y140196D01*
X613617Y140113D01*
X613537Y140033D01*
X613454Y139955D01*
X613368Y139881D01*
X613280Y139809D01*
X613189Y139741D01*
X613096Y139676D01*
X613000Y139614D01*
X612903Y139555D01*
X612804Y139500D01*
X612702Y139449D01*
X612599Y139400D01*
X612495Y139356D01*
X612389Y139315D01*
X612281Y139278D01*
X612172Y139245D01*
X612063Y139216D01*
X611952Y139190D01*
X611840Y139168D01*
X611728Y139151D01*
X611615Y139137D01*
X611502Y139127D01*
X611389Y139121D01*
X611275Y139119D01*
X611161Y139121D01*
X611048Y139127D01*
X610935Y139137D01*
X610822Y139151D01*
X610710Y139168D01*
X610598Y139190D01*
X610487Y139216D01*
X610378Y139245D01*
X610269Y139278D01*
X610161Y139315D01*
X610055Y139356D01*
X609951Y139400D01*
X609848Y139449D01*
X609746Y139500D01*
X609647Y139555D01*
X609550Y139614D01*
X609454Y139676D01*
X609361Y139741D01*
X609270Y139809D01*
X609182Y139881D01*
X609096Y139955D01*
X609013Y140033D01*
X608933Y140113D01*
X608855Y140196D01*
X608781Y140282D01*
X608709Y140370D01*
X608641Y140461D01*
X608576Y140554D01*
X608514Y140650D01*
X608455Y140747D01*
X608400Y140846D01*
X608349Y140948D01*
X608300Y141051D01*
X608256Y141155D01*
X608215Y141261D01*
X608178Y141369D01*
X608145Y141478D01*
X608116Y141587D01*
X608090Y141698D01*
X608068Y141810D01*
X608051Y141922D01*
X608037Y142035D01*
X608027Y142148D01*
X608021Y142261D01*
X608019Y142375D01*
D18*
X370050Y728800D02*
X370050Y780800D01*
X248450Y780800D02*
X248450Y728800D01*
X356550Y780800D02*
X370050Y780800D01*
X249250Y728800D02*
X248450Y728800D01*
X364550Y728800D02*
X369550Y728800D01*
D19*
X352700Y709800D02*
X352702Y709889D01*
X352708Y709978D01*
X352718Y710067D01*
X352732Y710155D01*
X352749Y710242D01*
X352771Y710328D01*
X352797Y710414D01*
X352826Y710498D01*
X352859Y710581D01*
X352895Y710662D01*
X352936Y710742D01*
X352979Y710819D01*
X353026Y710895D01*
X353077Y710968D01*
X353130Y711039D01*
X353187Y711108D01*
X353247Y711174D01*
X353310Y711238D01*
X353375Y711298D01*
X353443Y711356D01*
X353514Y711410D01*
X353587Y711461D01*
X353662Y711509D01*
X353739Y711554D01*
X353818Y711595D01*
X353899Y711632D01*
X353981Y711666D01*
X354065Y711697D01*
X354150Y711723D01*
X354236Y711746D01*
X354323Y711764D01*
X354411Y711779D01*
X354500Y711790D01*
X354589Y711797D01*
X354678Y711800D01*
X354767Y711799D01*
X354856Y711794D01*
X354944Y711785D01*
X355033Y711772D01*
X355120Y711755D01*
X355207Y711735D01*
X355293Y711710D01*
X355377Y711682D01*
X355460Y711650D01*
X355542Y711614D01*
X355622Y711575D01*
X355700Y711532D01*
X355776Y711486D01*
X355850Y711436D01*
X355922Y711383D01*
X355991Y711327D01*
X356058Y711268D01*
X356122Y711206D01*
X356183Y711142D01*
X356242Y711074D01*
X356297Y711004D01*
X356349Y710932D01*
X356398Y710857D01*
X356443Y710781D01*
X356485Y710702D01*
X356523Y710622D01*
X356558Y710540D01*
X356589Y710456D01*
X356617Y710371D01*
X356640Y710285D01*
X356660Y710198D01*
X356676Y710111D01*
X356688Y710022D01*
X356696Y709934D01*
X356700Y709845D01*
X356700Y709755D01*
X356696Y709666D01*
X356688Y709578D01*
X356676Y709489D01*
X356660Y709402D01*
X356640Y709315D01*
X356617Y709229D01*
X356589Y709144D01*
X356558Y709060D01*
X356523Y708978D01*
X356485Y708898D01*
X356443Y708819D01*
X356398Y708743D01*
X356349Y708668D01*
X356297Y708596D01*
X356242Y708526D01*
X356183Y708458D01*
X356122Y708394D01*
X356058Y708332D01*
X355991Y708273D01*
X355922Y708217D01*
X355850Y708164D01*
X355776Y708114D01*
X355700Y708068D01*
X355622Y708025D01*
X355542Y707986D01*
X355460Y707950D01*
X355377Y707918D01*
X355293Y707890D01*
X355207Y707865D01*
X355120Y707845D01*
X355033Y707828D01*
X354944Y707815D01*
X354856Y707806D01*
X354767Y707801D01*
X354678Y707800D01*
X354589Y707803D01*
X354500Y707810D01*
X354411Y707821D01*
X354323Y707836D01*
X354236Y707854D01*
X354150Y707877D01*
X354065Y707903D01*
X353981Y707934D01*
X353899Y707968D01*
X353818Y708005D01*
X353739Y708046D01*
X353662Y708091D01*
X353587Y708139D01*
X353514Y708190D01*
X353443Y708244D01*
X353375Y708302D01*
X353310Y708362D01*
X353247Y708426D01*
X353187Y708492D01*
X353130Y708561D01*
X353077Y708632D01*
X353026Y708705D01*
X352979Y708781D01*
X352936Y708858D01*
X352895Y708938D01*
X352859Y709019D01*
X352826Y709102D01*
X352797Y709186D01*
X352771Y709272D01*
X352749Y709358D01*
X352732Y709445D01*
X352718Y709533D01*
X352708Y709622D01*
X352702Y709711D01*
X352700Y709800D01*
D15*
X1134934Y945834D02*
X1158025Y945834D01*
X1137010Y943758D02*
X1137008Y943846D01*
X1137003Y943934D01*
X1136993Y944022D01*
X1136980Y944109D01*
X1136963Y944195D01*
X1136943Y944281D01*
X1136919Y944366D01*
X1136891Y944450D01*
X1136860Y944532D01*
X1136826Y944613D01*
X1136788Y944693D01*
X1136746Y944770D01*
X1136702Y944846D01*
X1136654Y944921D01*
X1136603Y944992D01*
X1136549Y945062D01*
X1136492Y945130D01*
X1136433Y945194D01*
X1136370Y945257D01*
X1136306Y945316D01*
X1136238Y945373D01*
X1136168Y945427D01*
X1136097Y945478D01*
X1136022Y945526D01*
X1135946Y945570D01*
X1135869Y945612D01*
X1135789Y945650D01*
X1135708Y945684D01*
X1135626Y945715D01*
X1135542Y945743D01*
X1135457Y945767D01*
X1135371Y945787D01*
X1135285Y945804D01*
X1135198Y945817D01*
X1135110Y945827D01*
X1135022Y945832D01*
X1134934Y945834D01*
X1137010Y943758D02*
X1137010Y942200D01*
X1201382Y1022664D02*
X1201382Y1022665D01*
X1201382Y1022664D02*
X1201382Y945834D01*
X1187885Y956736D02*
X1160371Y954659D01*
X1187885Y956736D02*
X1187992Y956747D01*
X1188098Y956760D01*
X1188203Y956778D01*
X1188308Y956800D01*
X1188412Y956825D01*
X1188515Y956854D01*
X1188617Y956887D01*
X1188717Y956923D01*
X1188816Y956964D01*
X1188914Y957007D01*
X1189010Y957054D01*
X1189104Y957105D01*
X1189197Y957159D01*
X1189287Y957216D01*
X1189375Y957277D01*
X1189461Y957341D01*
X1189544Y957408D01*
X1189625Y957477D01*
X1189704Y957550D01*
X1189780Y957626D01*
X1189853Y957704D01*
X1189923Y957785D01*
X1189990Y957868D01*
X1190054Y957954D01*
X1190115Y958041D01*
X1190172Y958132D01*
X1190227Y958224D01*
X1190278Y958318D01*
X1190325Y958414D01*
X1190369Y958511D01*
X1190410Y958610D01*
X1190447Y958710D01*
X1190480Y958812D01*
X1190480Y958813D02*
X1190545Y959035D01*
X1190605Y959259D01*
X1190660Y959484D01*
X1190709Y959711D01*
X1190753Y959938D01*
X1190792Y960167D01*
X1190825Y960396D01*
X1190852Y960627D01*
X1190874Y960857D01*
X1190891Y961089D01*
X1190902Y961320D01*
X1190907Y961552D01*
X1190907Y961784D01*
X1190902Y962016D01*
X1190891Y962247D01*
X1190874Y962479D01*
X1190852Y962709D01*
X1190825Y962940D01*
X1190792Y963169D01*
X1190753Y963398D01*
X1190709Y963625D01*
X1190660Y963852D01*
X1190605Y964077D01*
X1190545Y964301D01*
X1190480Y964523D01*
X1190447Y964625D01*
X1190410Y964725D01*
X1190369Y964824D01*
X1190325Y964921D01*
X1190278Y965017D01*
X1190227Y965111D01*
X1190172Y965203D01*
X1190115Y965294D01*
X1190054Y965381D01*
X1189990Y965467D01*
X1189923Y965550D01*
X1189853Y965631D01*
X1189780Y965709D01*
X1189704Y965785D01*
X1189625Y965858D01*
X1189544Y965927D01*
X1189461Y965994D01*
X1189375Y966058D01*
X1189287Y966119D01*
X1189197Y966176D01*
X1189104Y966230D01*
X1189010Y966281D01*
X1188914Y966328D01*
X1188816Y966371D01*
X1188717Y966412D01*
X1188617Y966448D01*
X1188515Y966481D01*
X1188412Y966510D01*
X1188308Y966535D01*
X1188203Y966557D01*
X1188098Y966575D01*
X1187992Y966588D01*
X1187885Y966599D01*
X1160371Y969195D01*
X1160371Y967118D01*
X1184251Y964523D01*
X1184251Y959331D01*
X1160371Y956736D01*
X1160371Y954659D01*
X1111573Y954140D02*
X1107939Y954140D01*
X1136491Y966599D02*
X1136491Y1001900D01*
X1131819Y1002419D02*
X1131819Y966080D01*
X1131821Y965992D01*
X1131826Y965904D01*
X1131836Y965816D01*
X1131849Y965729D01*
X1131865Y965643D01*
X1131886Y965557D01*
X1131910Y965472D01*
X1131937Y965388D01*
X1131968Y965306D01*
X1132003Y965225D01*
X1132041Y965145D01*
X1132082Y965067D01*
X1132127Y964991D01*
X1132175Y964917D01*
X1132226Y964845D01*
X1132279Y964776D01*
X1132336Y964708D01*
X1132396Y964643D01*
X1132458Y964581D01*
X1132523Y964521D01*
X1132591Y964464D01*
X1132660Y964411D01*
X1132732Y964360D01*
X1132806Y964312D01*
X1132882Y964267D01*
X1132960Y964226D01*
X1133040Y964188D01*
X1133121Y964153D01*
X1133203Y964122D01*
X1133287Y964095D01*
X1133372Y964071D01*
X1133458Y964050D01*
X1133544Y964034D01*
X1133631Y964021D01*
X1133719Y964011D01*
X1133807Y964006D01*
X1133895Y964004D01*
X1133896Y964004D01*
X1133995Y964006D01*
X1134095Y964012D01*
X1134194Y964021D01*
X1134292Y964035D01*
X1134390Y964052D01*
X1134487Y964072D01*
X1134584Y964097D01*
X1134679Y964125D01*
X1134773Y964157D01*
X1134866Y964192D01*
X1134957Y964231D01*
X1135047Y964274D01*
X1135135Y964320D01*
X1135222Y964369D01*
X1135306Y964421D01*
X1135389Y964477D01*
X1135469Y964536D01*
X1135547Y964597D01*
X1135622Y964662D01*
X1135695Y964730D01*
X1135765Y964800D01*
X1135833Y964873D01*
X1135898Y964948D01*
X1135959Y965026D01*
X1136018Y965106D01*
X1136074Y965189D01*
X1136126Y965273D01*
X1136175Y965360D01*
X1136221Y965448D01*
X1136264Y965538D01*
X1136303Y965629D01*
X1136338Y965722D01*
X1136370Y965816D01*
X1136398Y965911D01*
X1136423Y966008D01*
X1136443Y966105D01*
X1136460Y966203D01*
X1136474Y966301D01*
X1136483Y966400D01*
X1136489Y966500D01*
X1136491Y966599D01*
X1126627Y1004496D02*
X1107939Y1004496D01*
X1147392Y973867D02*
X1187884Y971791D01*
X1147392Y973867D02*
X1147300Y973874D01*
X1147209Y973885D01*
X1147118Y973899D01*
X1147028Y973918D01*
X1146939Y973940D01*
X1146851Y973966D01*
X1146764Y973995D01*
X1146678Y974028D01*
X1146594Y974065D01*
X1146512Y974105D01*
X1146431Y974148D01*
X1146352Y974195D01*
X1146275Y974245D01*
X1146200Y974298D01*
X1146127Y974355D01*
X1146057Y974414D01*
X1145990Y974476D01*
X1145925Y974541D01*
X1145862Y974609D01*
X1145803Y974679D01*
X1145747Y974752D01*
X1145694Y974826D01*
X1145644Y974904D01*
X1145597Y974983D01*
X1145553Y975063D01*
X1145513Y975146D01*
X1145477Y975230D01*
X1145444Y975316D01*
X1145414Y975403D01*
X1145389Y975491D01*
X1145367Y975581D01*
X1145348Y975671D01*
X1145334Y975761D01*
X1145323Y975852D01*
X1145316Y975944D01*
X1187885Y971791D02*
X1187973Y971793D01*
X1188061Y971798D01*
X1188149Y971808D01*
X1188236Y971821D01*
X1188322Y971838D01*
X1188408Y971858D01*
X1188493Y971882D01*
X1188577Y971910D01*
X1188659Y971941D01*
X1188740Y971975D01*
X1188820Y972013D01*
X1188897Y972055D01*
X1188973Y972099D01*
X1189048Y972147D01*
X1189119Y972198D01*
X1189189Y972252D01*
X1189257Y972309D01*
X1189321Y972368D01*
X1189384Y972431D01*
X1189443Y972495D01*
X1189500Y972563D01*
X1189554Y972633D01*
X1189605Y972704D01*
X1189653Y972779D01*
X1189697Y972855D01*
X1189739Y972932D01*
X1189777Y973012D01*
X1189811Y973093D01*
X1189842Y973175D01*
X1189870Y973259D01*
X1189894Y973344D01*
X1189914Y973430D01*
X1189931Y973516D01*
X1189944Y973603D01*
X1189954Y973691D01*
X1189959Y973779D01*
X1189961Y973867D01*
X1189961Y973868D01*
X1189959Y973956D01*
X1189954Y974044D01*
X1189944Y974132D01*
X1189931Y974219D01*
X1189914Y974305D01*
X1189894Y974391D01*
X1189870Y974476D01*
X1189842Y974560D01*
X1189811Y974642D01*
X1189777Y974723D01*
X1189739Y974803D01*
X1189697Y974880D01*
X1189653Y974956D01*
X1189605Y975031D01*
X1189554Y975102D01*
X1189500Y975172D01*
X1189443Y975240D01*
X1189384Y975304D01*
X1189321Y975367D01*
X1189257Y975426D01*
X1189189Y975483D01*
X1189119Y975537D01*
X1189048Y975588D01*
X1188973Y975636D01*
X1188897Y975680D01*
X1188820Y975722D01*
X1188740Y975760D01*
X1188659Y975794D01*
X1188577Y975825D01*
X1188493Y975853D01*
X1188408Y975877D01*
X1188322Y975897D01*
X1188236Y975914D01*
X1188149Y975927D01*
X1188061Y975937D01*
X1187973Y975942D01*
X1187885Y975944D01*
X1153622Y978020D01*
X1134934Y1022664D02*
X1135022Y1022666D01*
X1135110Y1022671D01*
X1135198Y1022681D01*
X1135285Y1022694D01*
X1135371Y1022711D01*
X1135457Y1022731D01*
X1135542Y1022755D01*
X1135626Y1022783D01*
X1135708Y1022814D01*
X1135789Y1022848D01*
X1135869Y1022886D01*
X1135946Y1022928D01*
X1136022Y1022972D01*
X1136097Y1023020D01*
X1136168Y1023071D01*
X1136238Y1023125D01*
X1136306Y1023182D01*
X1136370Y1023241D01*
X1136433Y1023304D01*
X1136492Y1023368D01*
X1136549Y1023436D01*
X1136603Y1023506D01*
X1136654Y1023577D01*
X1136702Y1023652D01*
X1136746Y1023728D01*
X1136788Y1023805D01*
X1136826Y1023885D01*
X1136860Y1023966D01*
X1136891Y1024048D01*
X1136919Y1024132D01*
X1136943Y1024217D01*
X1136963Y1024303D01*
X1136980Y1024389D01*
X1136993Y1024476D01*
X1137003Y1024564D01*
X1137008Y1024652D01*
X1137010Y1024740D01*
X1137010Y1026298D01*
X1160371Y1013839D02*
X1187885Y1011762D01*
X1187992Y1011751D01*
X1188098Y1011738D01*
X1188203Y1011720D01*
X1188308Y1011698D01*
X1188412Y1011673D01*
X1188515Y1011644D01*
X1188617Y1011611D01*
X1188717Y1011575D01*
X1188816Y1011534D01*
X1188914Y1011491D01*
X1189010Y1011444D01*
X1189104Y1011393D01*
X1189197Y1011339D01*
X1189287Y1011282D01*
X1189375Y1011221D01*
X1189461Y1011157D01*
X1189544Y1011090D01*
X1189625Y1011021D01*
X1189704Y1010948D01*
X1189780Y1010872D01*
X1189853Y1010794D01*
X1189923Y1010713D01*
X1189990Y1010630D01*
X1190054Y1010544D01*
X1190115Y1010457D01*
X1190172Y1010366D01*
X1190227Y1010274D01*
X1190278Y1010180D01*
X1190325Y1010084D01*
X1190369Y1009987D01*
X1190410Y1009888D01*
X1190447Y1009788D01*
X1190480Y1009686D01*
X1190545Y1009464D01*
X1190605Y1009240D01*
X1190660Y1009015D01*
X1190709Y1008788D01*
X1190753Y1008561D01*
X1190792Y1008332D01*
X1190825Y1008103D01*
X1190852Y1007872D01*
X1190874Y1007642D01*
X1190891Y1007410D01*
X1190902Y1007179D01*
X1190907Y1006947D01*
X1190907Y1006715D01*
X1190902Y1006483D01*
X1190891Y1006252D01*
X1190874Y1006020D01*
X1190852Y1005790D01*
X1190825Y1005559D01*
X1190792Y1005330D01*
X1190753Y1005101D01*
X1190709Y1004874D01*
X1190660Y1004647D01*
X1190605Y1004422D01*
X1190545Y1004198D01*
X1190480Y1003976D01*
X1190480Y1003975D02*
X1190447Y1003873D01*
X1190410Y1003773D01*
X1190369Y1003674D01*
X1190325Y1003577D01*
X1190278Y1003481D01*
X1190227Y1003387D01*
X1190172Y1003295D01*
X1190115Y1003204D01*
X1190054Y1003117D01*
X1189990Y1003031D01*
X1189923Y1002948D01*
X1189853Y1002867D01*
X1189780Y1002789D01*
X1189704Y1002713D01*
X1189625Y1002640D01*
X1189544Y1002571D01*
X1189461Y1002504D01*
X1189375Y1002440D01*
X1189287Y1002379D01*
X1189197Y1002322D01*
X1189104Y1002268D01*
X1189010Y1002217D01*
X1188914Y1002170D01*
X1188816Y1002127D01*
X1188717Y1002086D01*
X1188617Y1002050D01*
X1188515Y1002017D01*
X1188412Y1001988D01*
X1188308Y1001963D01*
X1188203Y1001941D01*
X1188098Y1001923D01*
X1187992Y1001910D01*
X1187885Y1001899D01*
X1160371Y999303D01*
X1160371Y1001380D01*
X1184251Y1003975D01*
X1184251Y1009167D01*
X1160371Y1011762D01*
X1160371Y1013839D01*
X1111573Y1014358D02*
X1107939Y1014358D01*
X1131819Y1002418D02*
X1131821Y1002506D01*
X1131826Y1002594D01*
X1131836Y1002682D01*
X1131849Y1002769D01*
X1131865Y1002855D01*
X1131886Y1002941D01*
X1131910Y1003026D01*
X1131937Y1003110D01*
X1131968Y1003192D01*
X1132003Y1003273D01*
X1132041Y1003353D01*
X1132082Y1003431D01*
X1132127Y1003507D01*
X1132175Y1003581D01*
X1132226Y1003653D01*
X1132279Y1003722D01*
X1132336Y1003790D01*
X1132396Y1003855D01*
X1132458Y1003917D01*
X1132523Y1003977D01*
X1132591Y1004034D01*
X1132660Y1004087D01*
X1132732Y1004138D01*
X1132806Y1004186D01*
X1132882Y1004231D01*
X1132960Y1004272D01*
X1133040Y1004310D01*
X1133121Y1004345D01*
X1133203Y1004376D01*
X1133287Y1004403D01*
X1133372Y1004427D01*
X1133458Y1004448D01*
X1133544Y1004464D01*
X1133631Y1004477D01*
X1133719Y1004487D01*
X1133807Y1004492D01*
X1133895Y1004494D01*
X1133896Y1004494D02*
X1133995Y1004492D01*
X1134095Y1004486D01*
X1134193Y1004477D01*
X1134292Y1004463D01*
X1134390Y1004446D01*
X1134487Y1004425D01*
X1134583Y1004401D01*
X1134679Y1004372D01*
X1134773Y1004341D01*
X1134866Y1004305D01*
X1134957Y1004266D01*
X1135047Y1004224D01*
X1135135Y1004178D01*
X1135221Y1004129D01*
X1135306Y1004076D01*
X1135388Y1004021D01*
X1135468Y1003962D01*
X1135546Y1003900D01*
X1135622Y1003835D01*
X1135695Y1003768D01*
X1135765Y1003698D01*
X1135832Y1003625D01*
X1135897Y1003549D01*
X1135959Y1003471D01*
X1136018Y1003391D01*
X1136073Y1003309D01*
X1136126Y1003224D01*
X1136175Y1003138D01*
X1136221Y1003050D01*
X1136263Y1002960D01*
X1136302Y1002869D01*
X1136338Y1002776D01*
X1136369Y1002682D01*
X1136398Y1002586D01*
X1136422Y1002490D01*
X1136443Y1002393D01*
X1136460Y1002295D01*
X1136474Y1002196D01*
X1136483Y1002098D01*
X1136489Y1001998D01*
X1136491Y1001899D01*
X1126627Y964002D02*
X1107939Y964002D01*
X1147392Y994631D02*
X1187884Y996707D01*
X1147392Y994631D02*
X1147300Y994624D01*
X1147209Y994613D01*
X1147119Y994598D01*
X1147029Y994580D01*
X1146939Y994558D01*
X1146851Y994532D01*
X1146764Y994503D01*
X1146679Y994470D01*
X1146594Y994433D01*
X1146512Y994393D01*
X1146431Y994349D01*
X1146352Y994303D01*
X1146275Y994253D01*
X1146200Y994199D01*
X1146127Y994143D01*
X1146057Y994084D01*
X1145990Y994021D01*
X1145925Y993956D01*
X1145863Y993889D01*
X1145803Y993819D01*
X1145747Y993746D01*
X1145694Y993671D01*
X1145644Y993594D01*
X1145597Y993515D01*
X1145554Y993434D01*
X1145514Y993352D01*
X1145477Y993267D01*
X1145444Y993182D01*
X1145415Y993095D01*
X1145389Y993007D01*
X1145367Y992917D01*
X1145348Y992827D01*
X1145334Y992737D01*
X1145323Y992646D01*
X1145316Y992554D01*
X1145316Y975943D01*
X1187885Y996707D02*
X1187973Y996705D01*
X1188061Y996700D01*
X1188149Y996690D01*
X1188236Y996677D01*
X1188322Y996660D01*
X1188408Y996640D01*
X1188493Y996616D01*
X1188577Y996588D01*
X1188659Y996557D01*
X1188740Y996523D01*
X1188820Y996485D01*
X1188897Y996443D01*
X1188973Y996399D01*
X1189048Y996351D01*
X1189119Y996300D01*
X1189189Y996246D01*
X1189257Y996189D01*
X1189321Y996130D01*
X1189384Y996067D01*
X1189443Y996003D01*
X1189500Y995935D01*
X1189554Y995865D01*
X1189605Y995794D01*
X1189653Y995719D01*
X1189697Y995643D01*
X1189739Y995566D01*
X1189777Y995486D01*
X1189811Y995405D01*
X1189842Y995323D01*
X1189870Y995239D01*
X1189894Y995154D01*
X1189914Y995068D01*
X1189931Y994982D01*
X1189944Y994895D01*
X1189954Y994807D01*
X1189959Y994719D01*
X1189961Y994631D01*
X1189961Y994630D02*
X1189959Y994542D01*
X1189954Y994454D01*
X1189944Y994366D01*
X1189931Y994279D01*
X1189914Y994193D01*
X1189894Y994107D01*
X1189870Y994022D01*
X1189842Y993938D01*
X1189811Y993856D01*
X1189777Y993775D01*
X1189739Y993695D01*
X1189697Y993618D01*
X1189653Y993542D01*
X1189605Y993467D01*
X1189554Y993396D01*
X1189500Y993326D01*
X1189443Y993258D01*
X1189384Y993194D01*
X1189321Y993131D01*
X1189257Y993072D01*
X1189189Y993015D01*
X1189119Y992961D01*
X1189048Y992910D01*
X1188973Y992862D01*
X1188897Y992818D01*
X1188820Y992776D01*
X1188740Y992738D01*
X1188659Y992704D01*
X1188577Y992673D01*
X1188493Y992645D01*
X1188408Y992621D01*
X1188322Y992601D01*
X1188236Y992584D01*
X1188149Y992571D01*
X1188061Y992561D01*
X1187973Y992556D01*
X1187885Y992554D01*
X1153622Y990478D01*
X1153622Y978018D01*
X1158026Y1022664D02*
X1134933Y1022665D01*
X1186346Y1022664D02*
X1201382Y1022664D01*
X1201382Y945834D02*
X1186347Y945835D01*
X1107419Y1004495D02*
X1107419Y1014359D01*
X1107418Y964004D02*
X1107418Y954140D01*
D18*
X1076090Y1027050D02*
X1076090Y1044650D01*
X1044810Y1044650D02*
X1044810Y1027050D01*
D13*
X1069450Y1060850D02*
X1069452Y1060913D01*
X1069458Y1060975D01*
X1069468Y1061037D01*
X1069481Y1061099D01*
X1069499Y1061159D01*
X1069520Y1061218D01*
X1069545Y1061276D01*
X1069574Y1061332D01*
X1069606Y1061386D01*
X1069641Y1061438D01*
X1069679Y1061487D01*
X1069721Y1061535D01*
X1069765Y1061579D01*
X1069813Y1061621D01*
X1069862Y1061659D01*
X1069914Y1061694D01*
X1069968Y1061726D01*
X1070024Y1061755D01*
X1070082Y1061780D01*
X1070141Y1061801D01*
X1070201Y1061819D01*
X1070263Y1061832D01*
X1070325Y1061842D01*
X1070387Y1061848D01*
X1070450Y1061850D01*
X1070513Y1061848D01*
X1070575Y1061842D01*
X1070637Y1061832D01*
X1070699Y1061819D01*
X1070759Y1061801D01*
X1070818Y1061780D01*
X1070876Y1061755D01*
X1070932Y1061726D01*
X1070986Y1061694D01*
X1071038Y1061659D01*
X1071087Y1061621D01*
X1071135Y1061579D01*
X1071179Y1061535D01*
X1071221Y1061487D01*
X1071259Y1061438D01*
X1071294Y1061386D01*
X1071326Y1061332D01*
X1071355Y1061276D01*
X1071380Y1061218D01*
X1071401Y1061159D01*
X1071419Y1061099D01*
X1071432Y1061037D01*
X1071442Y1060975D01*
X1071448Y1060913D01*
X1071450Y1060850D01*
X1071448Y1060787D01*
X1071442Y1060725D01*
X1071432Y1060663D01*
X1071419Y1060601D01*
X1071401Y1060541D01*
X1071380Y1060482D01*
X1071355Y1060424D01*
X1071326Y1060368D01*
X1071294Y1060314D01*
X1071259Y1060262D01*
X1071221Y1060213D01*
X1071179Y1060165D01*
X1071135Y1060121D01*
X1071087Y1060079D01*
X1071038Y1060041D01*
X1070986Y1060006D01*
X1070932Y1059974D01*
X1070876Y1059945D01*
X1070818Y1059920D01*
X1070759Y1059899D01*
X1070699Y1059881D01*
X1070637Y1059868D01*
X1070575Y1059858D01*
X1070513Y1059852D01*
X1070450Y1059850D01*
X1070387Y1059852D01*
X1070325Y1059858D01*
X1070263Y1059868D01*
X1070201Y1059881D01*
X1070141Y1059899D01*
X1070082Y1059920D01*
X1070024Y1059945D01*
X1069968Y1059974D01*
X1069914Y1060006D01*
X1069862Y1060041D01*
X1069813Y1060079D01*
X1069765Y1060121D01*
X1069721Y1060165D01*
X1069679Y1060213D01*
X1069641Y1060262D01*
X1069606Y1060314D01*
X1069574Y1060368D01*
X1069545Y1060424D01*
X1069520Y1060482D01*
X1069499Y1060541D01*
X1069481Y1060601D01*
X1069468Y1060663D01*
X1069458Y1060725D01*
X1069452Y1060787D01*
X1069450Y1060850D01*
D11*
X72100Y521475D02*
X72100Y405475D01*
X10100Y405475D01*
X2100Y405475D01*
X2100Y521475D01*
X10100Y521475D01*
X72100Y521475D01*
X10100Y521475D02*
X10100Y405475D01*
D20*
X406700Y877250D02*
X406702Y877294D01*
X406708Y877338D01*
X406718Y877381D01*
X406731Y877423D01*
X406748Y877464D01*
X406769Y877503D01*
X406793Y877540D01*
X406820Y877575D01*
X406850Y877607D01*
X406883Y877637D01*
X406919Y877663D01*
X406956Y877687D01*
X406996Y877706D01*
X407037Y877723D01*
X407080Y877735D01*
X407123Y877744D01*
X407167Y877749D01*
X407211Y877750D01*
X407255Y877747D01*
X407299Y877740D01*
X407342Y877729D01*
X407384Y877715D01*
X407424Y877697D01*
X407463Y877675D01*
X407499Y877651D01*
X407533Y877623D01*
X407565Y877592D01*
X407594Y877558D01*
X407620Y877522D01*
X407642Y877484D01*
X407661Y877444D01*
X407676Y877402D01*
X407688Y877360D01*
X407696Y877316D01*
X407700Y877272D01*
X407700Y877228D01*
X407696Y877184D01*
X407688Y877140D01*
X407676Y877098D01*
X407661Y877056D01*
X407642Y877016D01*
X407620Y876978D01*
X407594Y876942D01*
X407565Y876908D01*
X407533Y876877D01*
X407499Y876849D01*
X407463Y876825D01*
X407424Y876803D01*
X407384Y876785D01*
X407342Y876771D01*
X407299Y876760D01*
X407255Y876753D01*
X407211Y876750D01*
X407167Y876751D01*
X407123Y876756D01*
X407080Y876765D01*
X407037Y876777D01*
X406996Y876794D01*
X406956Y876813D01*
X406919Y876837D01*
X406883Y876863D01*
X406850Y876893D01*
X406820Y876925D01*
X406793Y876960D01*
X406769Y876997D01*
X406748Y877036D01*
X406731Y877077D01*
X406718Y877119D01*
X406708Y877162D01*
X406702Y877206D01*
X406700Y877250D01*
D18*
X439800Y921200D02*
X439800Y924700D01*
X399800Y924700D02*
X399800Y921200D01*
X439800Y888200D02*
X439800Y884700D01*
X399800Y884700D02*
X399800Y888200D01*
X436300Y924700D02*
X439800Y924700D01*
X403300Y924700D02*
X399800Y924700D01*
X436300Y884700D02*
X439800Y884700D01*
X403300Y884700D02*
X399800Y884700D01*
D13*
X372100Y985741D02*
X372100Y991741D01*
X372100Y985741D02*
X343100Y985741D01*
X343100Y991741D01*
X372100Y991741D01*
X373600Y995241D02*
X373600Y1007241D01*
D18*
X301325Y846700D02*
X230225Y846700D01*
X230225Y973700D02*
X301325Y973700D01*
D13*
X319385Y865750D02*
X319387Y865813D01*
X319393Y865875D01*
X319403Y865937D01*
X319416Y865999D01*
X319434Y866059D01*
X319455Y866118D01*
X319480Y866176D01*
X319509Y866232D01*
X319541Y866286D01*
X319576Y866338D01*
X319614Y866387D01*
X319656Y866435D01*
X319700Y866479D01*
X319748Y866521D01*
X319797Y866559D01*
X319849Y866594D01*
X319903Y866626D01*
X319959Y866655D01*
X320017Y866680D01*
X320076Y866701D01*
X320136Y866719D01*
X320198Y866732D01*
X320260Y866742D01*
X320322Y866748D01*
X320385Y866750D01*
X320448Y866748D01*
X320510Y866742D01*
X320572Y866732D01*
X320634Y866719D01*
X320694Y866701D01*
X320753Y866680D01*
X320811Y866655D01*
X320867Y866626D01*
X320921Y866594D01*
X320973Y866559D01*
X321022Y866521D01*
X321070Y866479D01*
X321114Y866435D01*
X321156Y866387D01*
X321194Y866338D01*
X321229Y866286D01*
X321261Y866232D01*
X321290Y866176D01*
X321315Y866118D01*
X321336Y866059D01*
X321354Y865999D01*
X321367Y865937D01*
X321377Y865875D01*
X321383Y865813D01*
X321385Y865750D01*
X321383Y865687D01*
X321377Y865625D01*
X321367Y865563D01*
X321354Y865501D01*
X321336Y865441D01*
X321315Y865382D01*
X321290Y865324D01*
X321261Y865268D01*
X321229Y865214D01*
X321194Y865162D01*
X321156Y865113D01*
X321114Y865065D01*
X321070Y865021D01*
X321022Y864979D01*
X320973Y864941D01*
X320921Y864906D01*
X320867Y864874D01*
X320811Y864845D01*
X320753Y864820D01*
X320694Y864799D01*
X320634Y864781D01*
X320572Y864768D01*
X320510Y864758D01*
X320448Y864752D01*
X320385Y864750D01*
X320322Y864752D01*
X320260Y864758D01*
X320198Y864768D01*
X320136Y864781D01*
X320076Y864799D01*
X320017Y864820D01*
X319959Y864845D01*
X319903Y864874D01*
X319849Y864906D01*
X319797Y864941D01*
X319748Y864979D01*
X319700Y865021D01*
X319656Y865065D01*
X319614Y865113D01*
X319576Y865162D01*
X319541Y865214D01*
X319509Y865268D01*
X319480Y865324D01*
X319455Y865382D01*
X319434Y865441D01*
X319416Y865501D01*
X319403Y865563D01*
X319393Y865625D01*
X319387Y865687D01*
X319385Y865750D01*
D18*
X416138Y800675D02*
X430138Y800675D01*
X430138Y832675D02*
X416138Y832675D01*
X448138Y818675D02*
X448138Y814675D01*
X398138Y814675D02*
X398138Y818675D01*
D13*
X454238Y827875D02*
X454240Y827938D01*
X454246Y828000D01*
X454256Y828062D01*
X454269Y828124D01*
X454287Y828184D01*
X454308Y828243D01*
X454333Y828301D01*
X454362Y828357D01*
X454394Y828411D01*
X454429Y828463D01*
X454467Y828512D01*
X454509Y828560D01*
X454553Y828604D01*
X454601Y828646D01*
X454650Y828684D01*
X454702Y828719D01*
X454756Y828751D01*
X454812Y828780D01*
X454870Y828805D01*
X454929Y828826D01*
X454989Y828844D01*
X455051Y828857D01*
X455113Y828867D01*
X455175Y828873D01*
X455238Y828875D01*
X455301Y828873D01*
X455363Y828867D01*
X455425Y828857D01*
X455487Y828844D01*
X455547Y828826D01*
X455606Y828805D01*
X455664Y828780D01*
X455720Y828751D01*
X455774Y828719D01*
X455826Y828684D01*
X455875Y828646D01*
X455923Y828604D01*
X455967Y828560D01*
X456009Y828512D01*
X456047Y828463D01*
X456082Y828411D01*
X456114Y828357D01*
X456143Y828301D01*
X456168Y828243D01*
X456189Y828184D01*
X456207Y828124D01*
X456220Y828062D01*
X456230Y828000D01*
X456236Y827938D01*
X456238Y827875D01*
X456236Y827812D01*
X456230Y827750D01*
X456220Y827688D01*
X456207Y827626D01*
X456189Y827566D01*
X456168Y827507D01*
X456143Y827449D01*
X456114Y827393D01*
X456082Y827339D01*
X456047Y827287D01*
X456009Y827238D01*
X455967Y827190D01*
X455923Y827146D01*
X455875Y827104D01*
X455826Y827066D01*
X455774Y827031D01*
X455720Y826999D01*
X455664Y826970D01*
X455606Y826945D01*
X455547Y826924D01*
X455487Y826906D01*
X455425Y826893D01*
X455363Y826883D01*
X455301Y826877D01*
X455238Y826875D01*
X455175Y826877D01*
X455113Y826883D01*
X455051Y826893D01*
X454989Y826906D01*
X454929Y826924D01*
X454870Y826945D01*
X454812Y826970D01*
X454756Y826999D01*
X454702Y827031D01*
X454650Y827066D01*
X454601Y827104D01*
X454553Y827146D01*
X454509Y827190D01*
X454467Y827238D01*
X454429Y827287D01*
X454394Y827339D01*
X454362Y827393D01*
X454333Y827449D01*
X454308Y827507D01*
X454287Y827566D01*
X454269Y827626D01*
X454256Y827688D01*
X454246Y827750D01*
X454240Y827812D01*
X454238Y827875D01*
D12*
X72150Y1011825D02*
X3550Y1011825D01*
X3550Y846725D02*
X72150Y846725D01*
X161050Y846725D02*
X161050Y1011825D01*
X3550Y1011825D02*
X3550Y846725D01*
X117850Y846725D02*
X161050Y846725D01*
X161050Y1011825D02*
X117850Y1011825D01*
D18*
X143275Y607375D02*
X143275Y567375D01*
X193275Y567375D02*
X193275Y607375D01*
D15*
X136525Y609981D02*
X136525Y564769D01*
X98425Y564769D02*
X98425Y609981D01*
D11*
X117475Y595675D02*
X127475Y585445D01*
X117475Y595675D02*
X107475Y585445D01*
X127475Y585445D01*
D12*
X177673Y705724D02*
X178011Y706417D01*
X178366Y707101D01*
X178737Y707777D01*
X179124Y708443D01*
X179528Y709100D01*
X179947Y709747D01*
X180382Y710383D01*
X180833Y711009D01*
X181298Y711624D01*
X181778Y712227D01*
X182273Y712818D01*
X182782Y713397D01*
X183305Y713963D01*
X183841Y714517D01*
X184391Y715058D01*
X184953Y715585D01*
X185529Y716098D01*
X186116Y716597D01*
X186716Y717081D01*
X187327Y717551D01*
X187949Y718006D01*
X188582Y718446D01*
X189226Y718870D01*
X189880Y719279D01*
X190543Y719671D01*
X191216Y720047D01*
X191898Y720407D01*
X192588Y720750D01*
X193286Y721077D01*
X193993Y721386D01*
X194706Y721678D01*
X195426Y721953D01*
X196153Y722210D01*
X196886Y722449D01*
X197624Y722670D01*
X198368Y722874D01*
X199116Y723059D01*
X199869Y723226D01*
X200625Y723375D01*
X201385Y723505D01*
X202148Y723617D01*
X202913Y723711D01*
X203680Y723785D01*
X204449Y723842D01*
X205219Y723879D01*
X205990Y723898D01*
X206760Y723898D01*
X207531Y723879D01*
X208301Y723842D01*
X209070Y723785D01*
X209837Y723711D01*
X210602Y723617D01*
X211365Y723505D01*
X212125Y723375D01*
X212881Y723226D01*
X213634Y723059D01*
X214382Y722874D01*
X215126Y722670D01*
X215864Y722449D01*
X216597Y722210D01*
X217324Y721953D01*
X218044Y721678D01*
X218757Y721386D01*
X219464Y721077D01*
X220162Y720750D01*
X220852Y720407D01*
X221534Y720047D01*
X222207Y719671D01*
X222870Y719279D01*
X223524Y718870D01*
X224168Y718446D01*
X224801Y718006D01*
X225423Y717551D01*
X226034Y717081D01*
X226634Y716597D01*
X227221Y716098D01*
X227797Y715585D01*
X228359Y715058D01*
X228909Y714517D01*
X229445Y713963D01*
X229968Y713397D01*
X230477Y712818D01*
X230972Y712227D01*
X231452Y711624D01*
X231917Y711009D01*
X232368Y710383D01*
X232803Y709747D01*
X233222Y709100D01*
X233626Y708443D01*
X234013Y707777D01*
X234384Y707101D01*
X234739Y706417D01*
X235077Y705724D01*
X235077Y678576D02*
X234739Y677883D01*
X234384Y677199D01*
X234013Y676523D01*
X233626Y675857D01*
X233222Y675200D01*
X232803Y674553D01*
X232368Y673917D01*
X231917Y673291D01*
X231452Y672676D01*
X230972Y672073D01*
X230477Y671482D01*
X229968Y670903D01*
X229445Y670337D01*
X228909Y669783D01*
X228359Y669242D01*
X227797Y668715D01*
X227221Y668202D01*
X226634Y667703D01*
X226034Y667219D01*
X225423Y666749D01*
X224801Y666294D01*
X224168Y665854D01*
X223524Y665430D01*
X222870Y665021D01*
X222207Y664629D01*
X221534Y664253D01*
X220852Y663893D01*
X220162Y663550D01*
X219464Y663223D01*
X218757Y662914D01*
X218044Y662622D01*
X217324Y662347D01*
X216597Y662090D01*
X215864Y661851D01*
X215126Y661630D01*
X214382Y661426D01*
X213634Y661241D01*
X212881Y661074D01*
X212125Y660925D01*
X211365Y660795D01*
X210602Y660683D01*
X209837Y660589D01*
X209070Y660515D01*
X208301Y660458D01*
X207531Y660421D01*
X206760Y660402D01*
X205990Y660402D01*
X205219Y660421D01*
X204449Y660458D01*
X203680Y660515D01*
X202913Y660589D01*
X202148Y660683D01*
X201385Y660795D01*
X200625Y660925D01*
X199869Y661074D01*
X199116Y661241D01*
X198368Y661426D01*
X197624Y661630D01*
X196886Y661851D01*
X196153Y662090D01*
X195426Y662347D01*
X194706Y662622D01*
X193993Y662914D01*
X193286Y663223D01*
X192588Y663550D01*
X191898Y663893D01*
X191216Y664253D01*
X190543Y664629D01*
X189880Y665021D01*
X189226Y665430D01*
X188582Y665854D01*
X187949Y666294D01*
X187327Y666749D01*
X186716Y667219D01*
X186116Y667703D01*
X185529Y668202D01*
X184953Y668715D01*
X184391Y669242D01*
X183841Y669783D01*
X183305Y670337D01*
X182782Y670903D01*
X182273Y671482D01*
X181778Y672073D01*
X181298Y672676D01*
X180833Y673291D01*
X180382Y673917D01*
X179947Y674553D01*
X179528Y675200D01*
X179124Y675857D01*
X178737Y676523D01*
X178366Y677199D01*
X178011Y677883D01*
X177673Y678576D01*
X192405Y692150D02*
X198755Y692150D01*
X198755Y681990D01*
X203835Y681990D01*
X203835Y702310D01*
X198755Y702310D01*
X198755Y692150D01*
X212725Y692150D02*
X220345Y692150D01*
X196215Y698500D02*
X191135Y698500D01*
X193675Y695960D02*
X193675Y701040D01*
D21*
X211455Y692150D03*
D11*
X96350Y716450D02*
X96350Y642450D01*
X96350Y716450D02*
X170350Y716450D01*
X170350Y642450D01*
X96350Y642450D01*
X115850Y655450D02*
X115275Y655879D01*
X114711Y656322D01*
X114158Y656778D01*
X113616Y657247D01*
X113085Y657729D01*
X112566Y658223D01*
X112059Y658730D01*
X111564Y659250D01*
X111082Y659780D01*
X110613Y660323D01*
X110158Y660876D01*
X109715Y661441D01*
X109287Y662015D01*
X108872Y662600D01*
X108472Y663195D01*
X108086Y663800D01*
X107715Y664413D01*
X107358Y665035D01*
X107017Y665666D01*
X106691Y666304D01*
X106381Y666951D01*
X106086Y667604D01*
X105807Y668265D01*
X105544Y668932D01*
X105297Y669605D01*
X105066Y670284D01*
X104852Y670968D01*
X104655Y671657D01*
X104474Y672351D01*
X104310Y673049D01*
X104163Y673751D01*
X104032Y674456D01*
X103919Y675164D01*
X103823Y675874D01*
X103744Y676587D01*
X103682Y677301D01*
X103637Y678017D01*
X103610Y678733D01*
X103600Y679450D01*
X103610Y680167D01*
X103637Y680883D01*
X103682Y681599D01*
X103744Y682313D01*
X103823Y683026D01*
X103919Y683736D01*
X104032Y684444D01*
X104163Y685149D01*
X104310Y685851D01*
X104474Y686549D01*
X104655Y687243D01*
X104852Y687932D01*
X105066Y688616D01*
X105297Y689295D01*
X105544Y689968D01*
X105807Y690635D01*
X106086Y691296D01*
X106381Y691949D01*
X106691Y692596D01*
X107017Y693234D01*
X107358Y693865D01*
X107715Y694487D01*
X108086Y695100D01*
X108472Y695705D01*
X108872Y696300D01*
X109287Y696885D01*
X109715Y697459D01*
X110158Y698024D01*
X110613Y698577D01*
X111082Y699120D01*
X111564Y699650D01*
X112059Y700170D01*
X112566Y700677D01*
X113085Y701171D01*
X113616Y701653D01*
X114158Y702122D01*
X114711Y702578D01*
X115275Y703021D01*
X115850Y703450D01*
X150850Y703450D02*
X151425Y703021D01*
X151989Y702578D01*
X152542Y702122D01*
X153084Y701653D01*
X153615Y701171D01*
X154134Y700677D01*
X154641Y700170D01*
X155136Y699650D01*
X155618Y699120D01*
X156087Y698577D01*
X156542Y698024D01*
X156985Y697459D01*
X157413Y696885D01*
X157828Y696300D01*
X158228Y695705D01*
X158614Y695100D01*
X158985Y694487D01*
X159342Y693865D01*
X159683Y693234D01*
X160009Y692596D01*
X160319Y691949D01*
X160614Y691296D01*
X160893Y690635D01*
X161156Y689968D01*
X161403Y689295D01*
X161634Y688616D01*
X161848Y687932D01*
X162045Y687243D01*
X162226Y686549D01*
X162390Y685851D01*
X162537Y685149D01*
X162668Y684444D01*
X162781Y683736D01*
X162877Y683026D01*
X162956Y682313D01*
X163018Y681599D01*
X163063Y680883D01*
X163090Y680167D01*
X163100Y679450D01*
X163090Y678733D01*
X163063Y678017D01*
X163018Y677301D01*
X162956Y676587D01*
X162877Y675874D01*
X162781Y675164D01*
X162668Y674456D01*
X162537Y673751D01*
X162390Y673049D01*
X162226Y672351D01*
X162045Y671657D01*
X161848Y670968D01*
X161634Y670284D01*
X161403Y669605D01*
X161156Y668932D01*
X160893Y668265D01*
X160614Y667604D01*
X160319Y666951D01*
X160009Y666304D01*
X159683Y665666D01*
X159342Y665035D01*
X158985Y664413D01*
X158614Y663800D01*
X158228Y663195D01*
X157828Y662600D01*
X157413Y662015D01*
X156985Y661441D01*
X156542Y660876D01*
X156087Y660323D01*
X155618Y659780D01*
X155136Y659250D01*
X154641Y658730D01*
X154134Y658223D01*
X153615Y657729D01*
X153084Y657247D01*
X152542Y656778D01*
X151989Y656322D01*
X151425Y655879D01*
X150850Y655450D01*
D22*
G36*
X108779Y662657D02*
X116557Y654879D01*
X112491Y650813D01*
X104713Y658591D01*
X108779Y662657D01*
G37*
G36*
X150143Y654879D02*
X157921Y662657D01*
X161987Y658591D01*
X154209Y650813D01*
X150143Y654879D01*
G37*
G36*
X157921Y696243D02*
X150143Y704021D01*
X154209Y708087D01*
X161987Y700309D01*
X157921Y696243D01*
G37*
G36*
X116557Y704021D02*
X108779Y696243D01*
X104713Y700309D01*
X112491Y708087D01*
X116557Y704021D01*
G37*
D12*
X338328Y561467D02*
X338328Y524383D01*
X338328Y561467D02*
X271272Y561467D01*
X271272Y524383D01*
X338328Y524383D01*
X389128Y638683D02*
X389128Y675767D01*
X322072Y675767D01*
X322072Y638683D01*
X389128Y638683D01*
D11*
X305575Y1077250D02*
X84975Y1077250D01*
X84975Y1139250D01*
X84975Y1147250D01*
X305575Y1147250D01*
X305575Y1139250D01*
X305575Y1077250D01*
X305575Y1139250D02*
X84975Y1139250D01*
X326275Y1077250D02*
X546875Y1077250D01*
X326275Y1077250D02*
X326275Y1139250D01*
X326275Y1147250D01*
X546875Y1147250D01*
X546875Y1139250D01*
X546875Y1077250D01*
X546875Y1139250D02*
X326275Y1139250D01*
X567575Y1077250D02*
X788175Y1077250D01*
X567575Y1077250D02*
X567575Y1139250D01*
X567575Y1147250D01*
X788175Y1147250D01*
X788175Y1139250D01*
X788175Y1077250D01*
X788175Y1139250D02*
X567575Y1139250D01*
D12*
X713613Y1014095D02*
X713613Y1008507D01*
X713613Y1029843D02*
X723011Y1029843D01*
X713613Y1029843D02*
X713613Y1024255D01*
X713613Y1008507D02*
X717677Y1008507D01*
X723011Y1008507D01*
X721995Y1011301D02*
X721894Y1011344D01*
X721793Y1011383D01*
X721690Y1011418D01*
X721586Y1011450D01*
X721480Y1011478D01*
X721374Y1011502D01*
X721267Y1011523D01*
X721160Y1011540D01*
X721051Y1011552D01*
X720943Y1011561D01*
X720834Y1011567D01*
X720725Y1011568D01*
X720616Y1011565D01*
X720507Y1011559D01*
X720399Y1011549D01*
X720291Y1011535D01*
X720184Y1011517D01*
X720077Y1011495D01*
X719971Y1011469D01*
X719866Y1011440D01*
X719762Y1011407D01*
X719660Y1011370D01*
X719558Y1011330D01*
X719459Y1011286D01*
X719361Y1011239D01*
X719264Y1011188D01*
X719170Y1011134D01*
X719077Y1011076D01*
X718987Y1011015D01*
X718899Y1010951D01*
X718813Y1010884D01*
X718730Y1010814D01*
X718649Y1010741D01*
X718570Y1010665D01*
X718495Y1010587D01*
X718422Y1010506D01*
X718353Y1010422D01*
X718286Y1010336D01*
X718222Y1010247D01*
X718162Y1010157D01*
X718105Y1010064D01*
X718051Y1009969D01*
X718001Y1009873D01*
X717954Y1009775D01*
X717910Y1009675D01*
X717870Y1009573D01*
X717834Y1009471D01*
X717801Y1009367D01*
X717773Y1009262D01*
X717747Y1009156D01*
X717726Y1009049D01*
X717709Y1008941D01*
X717695Y1008833D01*
X717685Y1008725D01*
X717679Y1008616D01*
X717677Y1008507D01*
X748538Y1008507D02*
X748538Y1014095D01*
X748538Y1029843D02*
X757936Y1029843D01*
X748538Y1029843D02*
X748538Y1024255D01*
X748538Y1008507D02*
X752602Y1008507D01*
X757936Y1008507D01*
X756920Y1011301D02*
X756819Y1011344D01*
X756718Y1011383D01*
X756615Y1011418D01*
X756511Y1011450D01*
X756405Y1011478D01*
X756299Y1011502D01*
X756192Y1011523D01*
X756085Y1011540D01*
X755976Y1011552D01*
X755868Y1011561D01*
X755759Y1011567D01*
X755650Y1011568D01*
X755541Y1011565D01*
X755432Y1011559D01*
X755324Y1011549D01*
X755216Y1011535D01*
X755109Y1011517D01*
X755002Y1011495D01*
X754896Y1011469D01*
X754791Y1011440D01*
X754687Y1011407D01*
X754585Y1011370D01*
X754483Y1011330D01*
X754384Y1011286D01*
X754286Y1011239D01*
X754189Y1011188D01*
X754095Y1011134D01*
X754002Y1011076D01*
X753912Y1011015D01*
X753824Y1010951D01*
X753738Y1010884D01*
X753655Y1010814D01*
X753574Y1010741D01*
X753495Y1010665D01*
X753420Y1010587D01*
X753347Y1010506D01*
X753278Y1010422D01*
X753211Y1010336D01*
X753147Y1010247D01*
X753087Y1010157D01*
X753030Y1010064D01*
X752976Y1009969D01*
X752926Y1009873D01*
X752879Y1009775D01*
X752835Y1009675D01*
X752795Y1009573D01*
X752759Y1009471D01*
X752726Y1009367D01*
X752698Y1009262D01*
X752672Y1009156D01*
X752651Y1009049D01*
X752634Y1008941D01*
X752620Y1008833D01*
X752610Y1008725D01*
X752604Y1008616D01*
X752602Y1008507D01*
X783463Y1008507D02*
X783463Y1014095D01*
X783463Y1029843D02*
X792861Y1029843D01*
X783463Y1029843D02*
X783463Y1024255D01*
X783463Y1008507D02*
X787527Y1008507D01*
X792861Y1008507D01*
X791845Y1011301D02*
X791744Y1011344D01*
X791643Y1011383D01*
X791540Y1011418D01*
X791436Y1011450D01*
X791330Y1011478D01*
X791224Y1011502D01*
X791117Y1011523D01*
X791010Y1011540D01*
X790901Y1011552D01*
X790793Y1011561D01*
X790684Y1011567D01*
X790575Y1011568D01*
X790466Y1011565D01*
X790357Y1011559D01*
X790249Y1011549D01*
X790141Y1011535D01*
X790034Y1011517D01*
X789927Y1011495D01*
X789821Y1011469D01*
X789716Y1011440D01*
X789612Y1011407D01*
X789510Y1011370D01*
X789408Y1011330D01*
X789309Y1011286D01*
X789211Y1011239D01*
X789114Y1011188D01*
X789020Y1011134D01*
X788927Y1011076D01*
X788837Y1011015D01*
X788749Y1010951D01*
X788663Y1010884D01*
X788580Y1010814D01*
X788499Y1010741D01*
X788420Y1010665D01*
X788345Y1010587D01*
X788272Y1010506D01*
X788203Y1010422D01*
X788136Y1010336D01*
X788072Y1010247D01*
X788012Y1010157D01*
X787955Y1010064D01*
X787901Y1009969D01*
X787851Y1009873D01*
X787804Y1009775D01*
X787760Y1009675D01*
X787720Y1009573D01*
X787684Y1009471D01*
X787651Y1009367D01*
X787623Y1009262D01*
X787597Y1009156D01*
X787576Y1009049D01*
X787559Y1008941D01*
X787545Y1008833D01*
X787535Y1008725D01*
X787529Y1008616D01*
X787527Y1008507D01*
X777113Y902970D02*
X777113Y897382D01*
X777113Y918718D02*
X786511Y918718D01*
X777113Y918718D02*
X777113Y913130D01*
X777113Y897382D02*
X781177Y897382D01*
X786511Y897382D01*
X785495Y900176D02*
X785394Y900219D01*
X785293Y900258D01*
X785190Y900293D01*
X785086Y900325D01*
X784980Y900353D01*
X784874Y900377D01*
X784767Y900398D01*
X784660Y900415D01*
X784551Y900427D01*
X784443Y900436D01*
X784334Y900442D01*
X784225Y900443D01*
X784116Y900440D01*
X784007Y900434D01*
X783899Y900424D01*
X783791Y900410D01*
X783684Y900392D01*
X783577Y900370D01*
X783471Y900344D01*
X783366Y900315D01*
X783262Y900282D01*
X783160Y900245D01*
X783058Y900205D01*
X782959Y900161D01*
X782861Y900114D01*
X782764Y900063D01*
X782670Y900009D01*
X782577Y899951D01*
X782487Y899890D01*
X782399Y899826D01*
X782313Y899759D01*
X782230Y899689D01*
X782149Y899616D01*
X782070Y899540D01*
X781995Y899462D01*
X781922Y899381D01*
X781853Y899297D01*
X781786Y899211D01*
X781722Y899122D01*
X781662Y899032D01*
X781605Y898939D01*
X781551Y898844D01*
X781501Y898748D01*
X781454Y898650D01*
X781410Y898550D01*
X781370Y898448D01*
X781334Y898346D01*
X781301Y898242D01*
X781273Y898137D01*
X781247Y898031D01*
X781226Y897924D01*
X781209Y897816D01*
X781195Y897708D01*
X781185Y897600D01*
X781179Y897491D01*
X781177Y897382D01*
X732663Y897382D02*
X732663Y902970D01*
X732663Y918718D02*
X742061Y918718D01*
X732663Y918718D02*
X732663Y913130D01*
X732663Y897382D02*
X736727Y897382D01*
X742061Y897382D01*
X741045Y900176D02*
X740944Y900219D01*
X740843Y900258D01*
X740740Y900293D01*
X740636Y900325D01*
X740530Y900353D01*
X740424Y900377D01*
X740317Y900398D01*
X740210Y900415D01*
X740101Y900427D01*
X739993Y900436D01*
X739884Y900442D01*
X739775Y900443D01*
X739666Y900440D01*
X739557Y900434D01*
X739449Y900424D01*
X739341Y900410D01*
X739234Y900392D01*
X739127Y900370D01*
X739021Y900344D01*
X738916Y900315D01*
X738812Y900282D01*
X738710Y900245D01*
X738608Y900205D01*
X738509Y900161D01*
X738411Y900114D01*
X738314Y900063D01*
X738220Y900009D01*
X738127Y899951D01*
X738037Y899890D01*
X737949Y899826D01*
X737863Y899759D01*
X737780Y899689D01*
X737699Y899616D01*
X737620Y899540D01*
X737545Y899462D01*
X737472Y899381D01*
X737403Y899297D01*
X737336Y899211D01*
X737272Y899122D01*
X737212Y899032D01*
X737155Y898939D01*
X737101Y898844D01*
X737051Y898748D01*
X737004Y898650D01*
X736960Y898550D01*
X736920Y898448D01*
X736884Y898346D01*
X736851Y898242D01*
X736823Y898137D01*
X736797Y898031D01*
X736776Y897924D01*
X736759Y897816D01*
X736745Y897708D01*
X736735Y897600D01*
X736729Y897491D01*
X736727Y897382D01*
X688213Y897382D02*
X688213Y902970D01*
X688213Y918718D02*
X697611Y918718D01*
X688213Y918718D02*
X688213Y913130D01*
X688213Y897382D02*
X692277Y897382D01*
X697611Y897382D01*
X696595Y900176D02*
X696494Y900219D01*
X696393Y900258D01*
X696290Y900293D01*
X696186Y900325D01*
X696080Y900353D01*
X695974Y900377D01*
X695867Y900398D01*
X695760Y900415D01*
X695651Y900427D01*
X695543Y900436D01*
X695434Y900442D01*
X695325Y900443D01*
X695216Y900440D01*
X695107Y900434D01*
X694999Y900424D01*
X694891Y900410D01*
X694784Y900392D01*
X694677Y900370D01*
X694571Y900344D01*
X694466Y900315D01*
X694362Y900282D01*
X694260Y900245D01*
X694158Y900205D01*
X694059Y900161D01*
X693961Y900114D01*
X693864Y900063D01*
X693770Y900009D01*
X693677Y899951D01*
X693587Y899890D01*
X693499Y899826D01*
X693413Y899759D01*
X693330Y899689D01*
X693249Y899616D01*
X693170Y899540D01*
X693095Y899462D01*
X693022Y899381D01*
X692953Y899297D01*
X692886Y899211D01*
X692822Y899122D01*
X692762Y899032D01*
X692705Y898939D01*
X692651Y898844D01*
X692601Y898748D01*
X692554Y898650D01*
X692510Y898550D01*
X692470Y898448D01*
X692434Y898346D01*
X692401Y898242D01*
X692373Y898137D01*
X692347Y898031D01*
X692326Y897924D01*
X692309Y897816D01*
X692295Y897708D01*
X692285Y897600D01*
X692279Y897491D01*
X692277Y897382D01*
X742188Y814070D02*
X742188Y808482D01*
X742188Y829818D02*
X751586Y829818D01*
X742188Y829818D02*
X742188Y824230D01*
X742188Y808482D02*
X746252Y808482D01*
X751586Y808482D01*
X750570Y811276D02*
X750469Y811319D01*
X750368Y811358D01*
X750265Y811393D01*
X750161Y811425D01*
X750055Y811453D01*
X749949Y811477D01*
X749842Y811498D01*
X749735Y811515D01*
X749626Y811527D01*
X749518Y811536D01*
X749409Y811542D01*
X749300Y811543D01*
X749191Y811540D01*
X749082Y811534D01*
X748974Y811524D01*
X748866Y811510D01*
X748759Y811492D01*
X748652Y811470D01*
X748546Y811444D01*
X748441Y811415D01*
X748337Y811382D01*
X748235Y811345D01*
X748133Y811305D01*
X748034Y811261D01*
X747936Y811214D01*
X747839Y811163D01*
X747745Y811109D01*
X747652Y811051D01*
X747562Y810990D01*
X747474Y810926D01*
X747388Y810859D01*
X747305Y810789D01*
X747224Y810716D01*
X747145Y810640D01*
X747070Y810562D01*
X746997Y810481D01*
X746928Y810397D01*
X746861Y810311D01*
X746797Y810222D01*
X746737Y810132D01*
X746680Y810039D01*
X746626Y809944D01*
X746576Y809848D01*
X746529Y809750D01*
X746485Y809650D01*
X746445Y809548D01*
X746409Y809446D01*
X746376Y809342D01*
X746348Y809237D01*
X746322Y809131D01*
X746301Y809024D01*
X746284Y808916D01*
X746270Y808808D01*
X746260Y808700D01*
X746254Y808591D01*
X746252Y808482D01*
X704088Y808482D02*
X704088Y814070D01*
X704088Y829818D02*
X713486Y829818D01*
X704088Y829818D02*
X704088Y824230D01*
X704088Y808482D02*
X708152Y808482D01*
X713486Y808482D01*
X712470Y811276D02*
X712369Y811319D01*
X712268Y811358D01*
X712165Y811393D01*
X712061Y811425D01*
X711955Y811453D01*
X711849Y811477D01*
X711742Y811498D01*
X711635Y811515D01*
X711526Y811527D01*
X711418Y811536D01*
X711309Y811542D01*
X711200Y811543D01*
X711091Y811540D01*
X710982Y811534D01*
X710874Y811524D01*
X710766Y811510D01*
X710659Y811492D01*
X710552Y811470D01*
X710446Y811444D01*
X710341Y811415D01*
X710237Y811382D01*
X710135Y811345D01*
X710033Y811305D01*
X709934Y811261D01*
X709836Y811214D01*
X709739Y811163D01*
X709645Y811109D01*
X709552Y811051D01*
X709462Y810990D01*
X709374Y810926D01*
X709288Y810859D01*
X709205Y810789D01*
X709124Y810716D01*
X709045Y810640D01*
X708970Y810562D01*
X708897Y810481D01*
X708828Y810397D01*
X708761Y810311D01*
X708697Y810222D01*
X708637Y810132D01*
X708580Y810039D01*
X708526Y809944D01*
X708476Y809848D01*
X708429Y809750D01*
X708385Y809650D01*
X708345Y809548D01*
X708309Y809446D01*
X708276Y809342D01*
X708248Y809237D01*
X708222Y809131D01*
X708201Y809024D01*
X708184Y808916D01*
X708170Y808808D01*
X708160Y808700D01*
X708154Y808591D01*
X708152Y808482D01*
X665988Y808482D02*
X665988Y814070D01*
X665988Y829818D02*
X675386Y829818D01*
X665988Y829818D02*
X665988Y824230D01*
X665988Y808482D02*
X670052Y808482D01*
X675386Y808482D01*
X674370Y811276D02*
X674269Y811319D01*
X674168Y811358D01*
X674065Y811393D01*
X673961Y811425D01*
X673855Y811453D01*
X673749Y811477D01*
X673642Y811498D01*
X673535Y811515D01*
X673426Y811527D01*
X673318Y811536D01*
X673209Y811542D01*
X673100Y811543D01*
X672991Y811540D01*
X672882Y811534D01*
X672774Y811524D01*
X672666Y811510D01*
X672559Y811492D01*
X672452Y811470D01*
X672346Y811444D01*
X672241Y811415D01*
X672137Y811382D01*
X672035Y811345D01*
X671933Y811305D01*
X671834Y811261D01*
X671736Y811214D01*
X671639Y811163D01*
X671545Y811109D01*
X671452Y811051D01*
X671362Y810990D01*
X671274Y810926D01*
X671188Y810859D01*
X671105Y810789D01*
X671024Y810716D01*
X670945Y810640D01*
X670870Y810562D01*
X670797Y810481D01*
X670728Y810397D01*
X670661Y810311D01*
X670597Y810222D01*
X670537Y810132D01*
X670480Y810039D01*
X670426Y809944D01*
X670376Y809848D01*
X670329Y809750D01*
X670285Y809650D01*
X670245Y809548D01*
X670209Y809446D01*
X670176Y809342D01*
X670148Y809237D01*
X670122Y809131D01*
X670101Y809024D01*
X670084Y808916D01*
X670070Y808808D01*
X670060Y808700D01*
X670054Y808591D01*
X670052Y808482D01*
X627888Y808482D02*
X627888Y814070D01*
X627888Y829818D02*
X637286Y829818D01*
X627888Y829818D02*
X627888Y824230D01*
X627888Y808482D02*
X631952Y808482D01*
X637286Y808482D01*
X636270Y811276D02*
X636169Y811319D01*
X636068Y811358D01*
X635965Y811393D01*
X635861Y811425D01*
X635755Y811453D01*
X635649Y811477D01*
X635542Y811498D01*
X635435Y811515D01*
X635326Y811527D01*
X635218Y811536D01*
X635109Y811542D01*
X635000Y811543D01*
X634891Y811540D01*
X634782Y811534D01*
X634674Y811524D01*
X634566Y811510D01*
X634459Y811492D01*
X634352Y811470D01*
X634246Y811444D01*
X634141Y811415D01*
X634037Y811382D01*
X633935Y811345D01*
X633833Y811305D01*
X633734Y811261D01*
X633636Y811214D01*
X633539Y811163D01*
X633445Y811109D01*
X633352Y811051D01*
X633262Y810990D01*
X633174Y810926D01*
X633088Y810859D01*
X633005Y810789D01*
X632924Y810716D01*
X632845Y810640D01*
X632770Y810562D01*
X632697Y810481D01*
X632628Y810397D01*
X632561Y810311D01*
X632497Y810222D01*
X632437Y810132D01*
X632380Y810039D01*
X632326Y809944D01*
X632276Y809848D01*
X632229Y809750D01*
X632185Y809650D01*
X632145Y809548D01*
X632109Y809446D01*
X632076Y809342D01*
X632048Y809237D01*
X632022Y809131D01*
X632001Y809024D01*
X631984Y808916D01*
X631970Y808808D01*
X631960Y808700D01*
X631954Y808591D01*
X631952Y808482D01*
D11*
X72100Y788175D02*
X72100Y672175D01*
X10100Y672175D01*
X2100Y672175D01*
X2100Y788175D01*
X10100Y788175D01*
X72100Y788175D01*
X10100Y788175D02*
X10100Y672175D01*
D12*
X151130Y758063D02*
X156718Y758063D01*
X135382Y758063D02*
X135382Y767461D01*
X135382Y758063D02*
X140970Y758063D01*
X156718Y758063D02*
X156718Y762127D01*
X156718Y767461D01*
X153924Y766445D02*
X153881Y766344D01*
X153842Y766243D01*
X153807Y766140D01*
X153775Y766036D01*
X153747Y765930D01*
X153723Y765824D01*
X153702Y765717D01*
X153685Y765610D01*
X153673Y765501D01*
X153664Y765393D01*
X153658Y765284D01*
X153657Y765175D01*
X153660Y765066D01*
X153666Y764957D01*
X153676Y764849D01*
X153690Y764741D01*
X153708Y764634D01*
X153730Y764527D01*
X153756Y764421D01*
X153785Y764316D01*
X153818Y764212D01*
X153855Y764110D01*
X153895Y764008D01*
X153939Y763909D01*
X153986Y763811D01*
X154037Y763714D01*
X154091Y763620D01*
X154149Y763527D01*
X154210Y763437D01*
X154274Y763349D01*
X154341Y763263D01*
X154411Y763180D01*
X154484Y763099D01*
X154560Y763020D01*
X154638Y762945D01*
X154719Y762872D01*
X154803Y762803D01*
X154889Y762736D01*
X154978Y762672D01*
X155068Y762612D01*
X155161Y762555D01*
X155256Y762501D01*
X155352Y762451D01*
X155450Y762404D01*
X155550Y762360D01*
X155652Y762320D01*
X155754Y762284D01*
X155858Y762251D01*
X155963Y762223D01*
X156069Y762197D01*
X156176Y762176D01*
X156284Y762159D01*
X156392Y762145D01*
X156500Y762135D01*
X156609Y762129D01*
X156718Y762127D01*
D23*
X414000Y596900D03*
X461625Y692150D03*
X997744Y763250D03*
X1026775Y377825D03*
X722650Y352425D03*
M02*
