G04 EAGLE Gerber RS-274X export*
G75*
%MOMM*%
%FSLAX34Y34*%
%LPD*%
%INSoldermask Bottom*%
%IPPOS*%
%AMOC8*
5,1,8,0,0,1.08239X$1,22.5*%
G01*
%ADD10R,1.503200X1.803200*%
%ADD11R,2.235200X2.235200*%
%ADD12C,2.235200*%
%ADD13R,1.283200X1.253200*%
%ADD14R,0.838200X1.473200*%
%ADD15R,3.383200X3.383200*%
%ADD16R,4.163200X4.163200*%
%ADD17C,1.103200*%
%ADD18R,2.616200X2.616200*%
%ADD19C,2.616200*%
%ADD20C,2.603200*%
%ADD21C,3.453200*%
%ADD22C,1.611200*%
%ADD23R,1.203200X1.303200*%
%ADD24C,1.041200*%
%ADD25C,2.108200*%
%ADD26P,2.281895X8X22.500000*%
%ADD27R,1.803200X2.903200*%
%ADD28C,0.959600*%
%ADD29C,4.419200*%


D10*
X687063Y490520D03*
X667063Y490520D03*
X687063Y471505D03*
X667063Y471505D03*
D11*
X336865Y38400D03*
D12*
X371865Y38400D03*
X406865Y38400D03*
X441865Y38400D03*
X476865Y38400D03*
X511865Y38400D03*
D11*
X96835Y38400D03*
D12*
X131835Y38400D03*
X166835Y38400D03*
X201835Y38400D03*
X236835Y38400D03*
X271835Y38400D03*
D11*
X38415Y307640D03*
D12*
X38415Y272640D03*
X38415Y237640D03*
X38415Y202640D03*
X38415Y167640D03*
X38415Y132640D03*
D13*
X747730Y423680D03*
X747730Y441180D03*
D14*
X429165Y372850D03*
X420275Y372850D03*
X411385Y372850D03*
D15*
X700050Y93425D03*
X542650Y93425D03*
D16*
X621350Y93425D03*
D17*
X1142200Y962250D03*
X1142200Y1006250D03*
D14*
X843115Y411163D03*
X834225Y411163D03*
X825335Y411163D03*
X824065Y736600D03*
X815175Y736600D03*
X806285Y736600D03*
D18*
X38100Y498475D03*
D19*
X38100Y463475D03*
X38100Y428475D03*
D13*
X408500Y863000D03*
X408500Y845500D03*
D20*
X92850Y847975D03*
D21*
X58550Y865775D03*
X58550Y992775D03*
D20*
X92850Y1010575D03*
D22*
X83950Y893775D03*
X83950Y914075D03*
X83950Y934375D03*
X83950Y954675D03*
X101750Y903975D03*
X101750Y924275D03*
X101750Y944575D03*
X101750Y964875D03*
X149950Y860675D03*
X149950Y883575D03*
X149950Y997875D03*
X149950Y974975D03*
D23*
X197575Y975000D03*
X180575Y975000D03*
D11*
X38100Y612775D03*
D12*
X38100Y577775D03*
D24*
X155275Y580875D03*
X155275Y593875D03*
X168275Y580875D03*
X168275Y593875D03*
X181275Y580875D03*
X181275Y593875D03*
D23*
X188350Y550863D03*
X205350Y550863D03*
X205350Y565150D03*
X188350Y565150D03*
D25*
X180975Y692150D03*
D26*
X231775Y692150D03*
D27*
X192375Y720725D03*
X220375Y720725D03*
D13*
X171450Y659625D03*
X171450Y642125D03*
D27*
X192375Y663575D03*
X220375Y663575D03*
D11*
X282575Y1111250D03*
D12*
X247575Y1111250D03*
X212575Y1111250D03*
X177575Y1111250D03*
X142575Y1111250D03*
X107575Y1111250D03*
D11*
X523875Y1111250D03*
D12*
X488875Y1111250D03*
X453875Y1111250D03*
X418875Y1111250D03*
X383875Y1111250D03*
X348875Y1111250D03*
D11*
X765175Y1111250D03*
D12*
X730175Y1111250D03*
X695175Y1111250D03*
X660175Y1111250D03*
X625175Y1111250D03*
X590175Y1111250D03*
D18*
X38100Y765175D03*
D19*
X38100Y730175D03*
X38100Y695175D03*
D28*
X101920Y441025D03*
X134940Y471505D03*
X211140Y486745D03*
X241620Y479125D03*
X261940Y458805D03*
X420690Y266400D03*
X420690Y244810D03*
X420690Y224490D03*
X420690Y201630D03*
X420690Y181310D03*
X435930Y145750D03*
X443550Y122890D03*
X222570Y178770D03*
X189550Y148290D03*
X298770Y180040D03*
X331790Y152100D03*
X387670Y152100D03*
X390210Y177500D03*
X336870Y177500D03*
X374970Y215600D03*
X296230Y253700D03*
X291150Y276560D03*
X235270Y241000D03*
X283530Y241000D03*
X283530Y192740D03*
X240350Y197820D03*
X253050Y223220D03*
X265750Y210520D03*
X209870Y253700D03*
X220030Y274020D03*
X245430Y286720D03*
X278450Y294340D03*
X187010Y395305D03*
X159070Y354665D03*
X141290Y354665D03*
X90490Y362285D03*
X194630Y415625D03*
X227650Y408005D03*
X235270Y397845D03*
X159070Y380065D03*
X110810Y385145D03*
X150180Y317835D03*
X183200Y280370D03*
X345760Y369270D03*
X366080Y391495D03*
X179390Y470235D03*
X151450Y427055D03*
X151450Y447375D03*
X654050Y479425D03*
X365125Y441325D03*
X77155Y286085D03*
X73980Y254335D03*
X80330Y216235D03*
X118430Y216235D03*
X162880Y181310D03*
X93030Y181310D03*
X137480Y149560D03*
X93030Y149560D03*
X105730Y117810D03*
X140655Y114635D03*
X153355Y92410D03*
X185105Y89235D03*
X220030Y95585D03*
X251780Y95585D03*
X274005Y124160D03*
X347030Y92410D03*
X397830Y98760D03*
X286705Y19385D03*
X210505Y19385D03*
X143830Y19385D03*
X80330Y19385D03*
X20005Y70185D03*
X20005Y133685D03*
X20005Y194010D03*
X20005Y254335D03*
X20005Y317835D03*
X20005Y397210D03*
X54930Y409910D03*
X166055Y486110D03*
X312105Y454360D03*
X432755Y317835D03*
X353380Y19385D03*
X416880Y19385D03*
X461330Y54310D03*
X426405Y105110D03*
X505780Y57485D03*
X477205Y86060D03*
X153355Y263860D03*
X289880Y355935D03*
X286705Y444835D03*
X369255Y305135D03*
X378780Y244810D03*
X48580Y359110D03*
X115255Y330535D03*
X188280Y352760D03*
X685800Y517525D03*
X840293Y396472D03*
X1079500Y406400D03*
X1079500Y530225D03*
X1050925Y676275D03*
X1079500Y609600D03*
X891634Y397013D03*
X685800Y584200D03*
X571500Y393700D03*
X571500Y630238D03*
X958850Y746125D03*
X900893Y746125D03*
X863600Y746125D03*
X771525Y752475D03*
X396875Y533400D03*
X454025Y517525D03*
X473075Y298450D03*
X914400Y203200D03*
X952500Y203200D03*
X869950Y203200D03*
X663575Y200025D03*
X764800Y203482D03*
X727075Y200025D03*
X682625Y165100D03*
X752475Y88900D03*
X933450Y69850D03*
X876300Y76200D03*
X656364Y826488D03*
X673100Y825500D03*
X708025Y826488D03*
X746125Y826488D03*
X739775Y917575D03*
X717550Y917575D03*
X781050Y917564D03*
X412750Y609600D03*
X819150Y1044575D03*
X1019175Y1044575D03*
X838200Y917575D03*
X838200Y996950D03*
X815975Y996950D03*
X628650Y682625D03*
X635000Y974725D03*
X384175Y708025D03*
X454025Y371475D03*
X793503Y406400D03*
X698500Y628650D03*
X971286Y398681D03*
X657225Y558243D03*
X479425Y558363D03*
X473075Y419100D03*
X268092Y419100D03*
X791401Y419100D03*
X203200Y327025D03*
X647700Y553243D03*
X479631Y549275D03*
X479425Y400050D03*
X276225Y403225D03*
X167960Y418165D03*
X117160Y423245D03*
X261940Y476585D03*
X112080Y468965D03*
X955675Y95250D03*
X344490Y476585D03*
X414340Y432135D03*
X439740Y406735D03*
X474665Y374985D03*
X834393Y727728D03*
X763749Y685659D03*
X741524Y720584D03*
X706599Y711059D03*
X763749Y561834D03*
X770099Y479284D03*
X979649Y463409D03*
X871699Y466584D03*
X976474Y577709D03*
X979649Y682484D03*
X970918Y795196D03*
X871540Y67010D03*
X960440Y57485D03*
X1103315Y60660D03*
X938215Y159085D03*
X884240Y235285D03*
X750890Y241635D03*
X846140Y368635D03*
X896940Y368635D03*
X960440Y374985D03*
X1030290Y394035D03*
X1020765Y428960D03*
X700090Y435310D03*
X716759Y539291D03*
X621509Y599616D03*
X707234Y653591D03*
X792959Y828216D03*
X729459Y866316D03*
X850109Y856791D03*
X983459Y853616D03*
X1050134Y742491D03*
X1081884Y688516D03*
X1113634Y691691D03*
X1141415Y689310D03*
X1100140Y555960D03*
X1182690Y546435D03*
X874715Y670260D03*
X874715Y527385D03*
X820740Y619460D03*
X808040Y511510D03*
X935040Y628985D03*
X941390Y517860D03*
X627224Y641209D03*
X570074Y644384D03*
X465299Y647559D03*
X427199Y704709D03*
X465299Y707884D03*
X490699Y714234D03*
X573249Y682484D03*
X413546Y910766D03*
X426246Y898066D03*
X523878Y920291D03*
X479428Y844091D03*
X479428Y875841D03*
X479428Y901241D03*
X479428Y917116D03*
X454028Y932991D03*
X292103Y926641D03*
X288928Y961566D03*
X273053Y863141D03*
X314328Y821866D03*
X120653Y812341D03*
X670721Y582154D03*
X668340Y615491D03*
X862968Y734871D03*
X909799Y774559D03*
X824709Y847266D03*
X824709Y831391D03*
X773274Y463409D03*
X461965Y267035D03*
X461965Y244810D03*
X461965Y222585D03*
X461965Y203535D03*
X461965Y184485D03*
X449265Y133685D03*
X468315Y114635D03*
X506415Y79710D03*
X541340Y19385D03*
X614365Y60660D03*
X588965Y95585D03*
X655640Y95585D03*
X617540Y184485D03*
X617540Y140035D03*
X560390Y143210D03*
X563565Y222585D03*
X588965Y241635D03*
X592140Y273385D03*
X538165Y324185D03*
X449265Y295610D03*
X474665Y321010D03*
X474665Y352760D03*
X541340Y435310D03*
X541340Y482935D03*
X658815Y454360D03*
X652465Y492460D03*
X709615Y460710D03*
X468315Y616285D03*
X366715Y571835D03*
X287340Y597235D03*
X322265Y597235D03*
X303215Y549610D03*
X217490Y511510D03*
X131765Y489285D03*
X20640Y479760D03*
X17465Y425785D03*
X17465Y559135D03*
X17465Y660735D03*
X115890Y676610D03*
X90490Y638510D03*
X150815Y682960D03*
X109540Y736935D03*
X20640Y816310D03*
X17465Y902035D03*
X106365Y879810D03*
X176215Y848060D03*
X217490Y806785D03*
X252415Y873460D03*
X376240Y784560D03*
X474665Y765510D03*
X503240Y736935D03*
X449265Y873460D03*
X328615Y911560D03*
X328615Y943310D03*
X328615Y968710D03*
X246065Y1063960D03*
X319090Y1063960D03*
X382590Y1063960D03*
X446090Y1035385D03*
X541340Y1032210D03*
X538165Y1086185D03*
X461965Y1083010D03*
X436565Y1079835D03*
X382590Y1092535D03*
X354015Y1130635D03*
X119065Y1098885D03*
X68265Y1127460D03*
X20640Y1079835D03*
X103190Y1044910D03*
X144465Y1025860D03*
X293690Y1025860D03*
X906465Y1117935D03*
X992190Y1121110D03*
X1027115Y994110D03*
X1046165Y930610D03*
X1033465Y879810D03*
X1074740Y879810D03*
X1052515Y848060D03*
X1039815Y797260D03*
X1112840Y816310D03*
X1119190Y876635D03*
X1144590Y927435D03*
X1179515Y863935D03*
X1109665Y613110D03*
X1023940Y603585D03*
X1084265Y336885D03*
X1157290Y340060D03*
X1154115Y232110D03*
X1179515Y197185D03*
X1179515Y89235D03*
X1116015Y22560D03*
X1004890Y16210D03*
X1008065Y57485D03*
X1046165Y143210D03*
X871540Y16210D03*
X820740Y19385D03*
X744540Y16210D03*
X684215Y16210D03*
X744540Y114635D03*
X853284Y73360D03*
X840584Y191629D03*
X754859Y159879D03*
X821534Y156704D03*
X808834Y131304D03*
X669134Y318629D03*
X583409Y331329D03*
X526259Y293229D03*
X881859Y585329D03*
X1031084Y693279D03*
X459584Y569454D03*
X377034Y515479D03*
X361159Y658354D03*
X326234Y680579D03*
X272259Y680579D03*
X405609Y683754D03*
X392909Y725029D03*
X170659Y731379D03*
X91284Y693279D03*
X69059Y639304D03*
X91284Y788529D03*
X421484Y779004D03*
X653259Y740904D03*
X681834Y744079D03*
X656434Y855204D03*
X490540Y159085D03*
X522290Y127335D03*
X957265Y343235D03*
X909640Y136860D03*
X823915Y63835D03*
X1179515Y140035D03*
X1144590Y1057610D03*
X1128715Y1098885D03*
X1027115Y1121110D03*
X741365Y1130635D03*
X633415Y1133810D03*
X20640Y968710D03*
X699288Y487363D03*
X466725Y504825D03*
X460375Y333375D03*
X206375Y352425D03*
X168275Y514350D03*
X717550Y1028689D03*
X752475Y1028689D03*
X787400Y1028689D03*
X1101725Y1076325D03*
X584200Y984250D03*
X568325Y825500D03*
X514350Y812800D03*
X393700Y695325D03*
X403225Y628650D03*
X327025Y466725D03*
X303850Y285450D03*
X325440Y228247D03*
X699288Y473075D03*
X307975Y339725D03*
X983450Y371475D03*
X1165149Y371551D03*
X1159157Y854512D03*
X1022350Y857250D03*
X821807Y358493D03*
X524253Y349402D03*
X539341Y961464D03*
X1012825Y962025D03*
X996150Y381000D03*
X1162050Y381000D03*
X1150069Y854357D03*
X1003300Y857250D03*
X1002576Y387426D03*
X1159411Y390088D03*
X1152934Y838735D03*
X993775Y838200D03*
X824700Y348714D03*
X518185Y342618D03*
X533400Y968375D03*
X987425Y968375D03*
X1089025Y568325D03*
X1149886Y568325D03*
X1143000Y901982D03*
X981075Y901982D03*
X1076325Y812800D03*
X971550Y812800D03*
X1070257Y806016D03*
X962025Y812800D03*
X940227Y365125D03*
X1171575Y365125D03*
X1162050Y863600D03*
X955675Y863600D03*
X1063625Y819150D03*
X949325Y819150D03*
X1019175Y799948D03*
X946150Y800100D03*
X977618Y841375D03*
X936625Y841375D03*
X771525Y368300D03*
X532681Y368018D03*
X542389Y952376D03*
X911225Y958850D03*
X825500Y819150D03*
X908126Y819226D03*
X815975Y812800D03*
X901700Y812800D03*
X1089025Y577413D03*
X1146838Y577850D03*
X1136650Y895350D03*
X892175Y895350D03*
X606707Y885391D03*
X882213Y895350D03*
X622300Y895350D03*
X873125Y895350D03*
X538833Y542925D03*
X558992Y942852D03*
X870082Y933450D03*
X641350Y546100D03*
X1063625Y416278D03*
X1124232Y419100D03*
X1127125Y831850D03*
X866775Y835025D03*
X768757Y377388D03*
X537738Y375813D03*
X549904Y942346D03*
X850976Y949249D03*
X758825Y377825D03*
X529689Y384175D03*
X551477Y952500D03*
X844550Y955675D03*
X726199Y403301D03*
X589468Y403659D03*
X596534Y927382D03*
X830768Y943409D03*
X732625Y396875D03*
X583400Y396875D03*
X596100Y936625D03*
X824700Y936625D03*
X844550Y254000D03*
X1184275Y260350D03*
X1181100Y758825D03*
X841375Y755650D03*
X930275Y774700D03*
X1133320Y774700D03*
X1143000Y266700D03*
X926018Y269875D03*
X936701Y768274D03*
X1136368Y765612D03*
X1143000Y257175D03*
X939800Y266700D03*
X1117600Y44450D03*
X854791Y45166D03*
X1110168Y269875D03*
X812800Y279400D03*
X1110168Y279400D03*
X822732Y279400D03*
X1094293Y295275D03*
X952500Y295275D03*
X1094293Y304800D03*
X968375Y301625D03*
X1031875Y513243D03*
X1136726Y514426D03*
X1127407Y94531D03*
X965200Y88900D03*
X1044575Y508243D03*
X1130224Y508076D03*
X1129866Y85443D03*
X952063Y86281D03*
X1050925Y501650D03*
X1136650Y501650D03*
X1136650Y79375D03*
X942975Y86281D03*
X887763Y333375D03*
X1069975Y330200D03*
X1068893Y263525D03*
X917956Y260350D03*
X902224Y244219D03*
X920750Y193675D03*
X904075Y288925D03*
X891375Y288925D03*
X936625Y193675D03*
X892175Y241300D03*
X910425Y298450D03*
X872325Y298450D03*
X878551Y244475D03*
X876300Y196370D03*
X926300Y314325D03*
X1088225Y314325D03*
X926300Y305237D03*
X1082157Y307541D03*
X926300Y295275D03*
X1073069Y305082D03*
X926300Y355600D03*
X1062825Y355600D03*
X931139Y363614D03*
X1056399Y362026D03*
X878187Y342900D03*
X802475Y346075D03*
X806450Y254000D03*
X806450Y241300D03*
X878675Y333812D03*
X688457Y318374D03*
X868713Y333888D03*
X691350Y327462D03*
X866051Y342976D03*
X691350Y336550D03*
X859625Y336550D03*
X700875Y336550D03*
X841568Y315166D03*
X719925Y314325D03*
X850656Y314325D03*
X1003300Y320675D03*
X1012543Y285750D03*
X835025Y285468D03*
X632327Y295275D03*
X850900Y295275D03*
X625475Y276225D03*
X725993Y276225D03*
X619049Y269799D03*
X735081Y276225D03*
X613339Y285750D03*
X771525Y285750D03*
X612111Y305464D03*
X781050Y301625D03*
X614326Y314552D03*
X790575Y301625D03*
X605238Y311443D03*
X797001Y308051D03*
X831050Y323850D03*
X987425Y327025D03*
X979993Y349532D03*
X1104100Y349250D03*
X790575Y784507D03*
X560677Y777875D03*
X549275Y260068D03*
X673100Y231775D03*
X682625Y187325D03*
X847725Y142875D03*
X800893Y781050D03*
X563725Y768787D03*
X558800Y263116D03*
X858868Y263525D03*
D29*
X40000Y1110000D03*
X1160000Y1110000D03*
X1160000Y40000D03*
X40000Y40000D03*
D28*
X485699Y698424D03*
X666468Y704850D03*
X492125Y704850D03*
X672612Y711558D03*
X508000Y711200D03*
X666468Y718266D03*
X514426Y717626D03*
X666468Y727354D03*
X501650Y692714D03*
X675556Y695515D03*
X495300Y685800D03*
X666468Y692150D03*
X1088866Y784225D03*
X317500Y755650D03*
X952424Y809549D03*
X330200Y803275D03*
X640234Y534516D03*
X422275Y536575D03*
X304800Y711200D03*
X441325Y714375D03*
X447675Y1006475D03*
X568325Y1019175D03*
X569821Y720725D03*
X860425Y723900D03*
X758825Y723900D03*
X644525Y254000D03*
X517525Y254000D03*
X920750Y790575D03*
X557629Y787400D03*
X815975Y723900D03*
X704850Y412214D03*
X598739Y425450D03*
X600075Y863600D03*
X701675Y863600D03*
X714421Y409575D03*
X595691Y415206D03*
X603326Y1009726D03*
X469900Y1006475D03*
X723509Y412389D03*
X598556Y406118D03*
X596900Y1003300D03*
X495300Y1003300D03*
X792950Y346075D03*
X511401Y336550D03*
X1085850Y1044575D03*
X1085850Y962025D03*
X1069975Y1009650D03*
X1052750Y962025D03*
X838200Y866775D03*
X793750Y866775D03*
X827875Y425450D03*
X939800Y374650D03*
X558391Y377825D03*
X565150Y974725D03*
X412826Y955751D03*
X1029775Y480500D03*
X1171575Y482600D03*
X1171575Y911225D03*
X406400Y949325D03*
X1036559Y486568D03*
X1165507Y489384D03*
X1165149Y904799D03*
X397312Y949325D03*
X647700Y523593D03*
X535785Y523875D03*
X551533Y933258D03*
X431800Y949325D03*
X803631Y364843D03*
X514449Y367863D03*
X812719Y361668D03*
X511401Y358775D03*
X603532Y758825D03*
X682625Y758825D03*
X819150Y771525D03*
X279400Y752475D03*
X1104900Y790575D03*
X266700Y800100D03*
X831850Y857250D03*
X749300Y857250D03*
X396875Y374650D03*
X508000Y666750D03*
X517525Y104775D03*
X673100Y666750D03*
X390525Y958850D03*
X406400Y873125D03*
X288925Y857250D03*
X384175Y1044575D03*
X378948Y908522D03*
X378619Y866775D03*
X339725Y1000125D03*
X339725Y865750D03*
X349250Y962025D03*
X349250Y898525D03*
X363538Y896938D03*
X363538Y929481D03*
X367506Y1013619D03*
X369860Y905669D03*
X371475Y962025D03*
X203200Y866775D03*
X203200Y892175D03*
X200025Y927100D03*
X200025Y952500D03*
X152400Y1069975D03*
X193675Y1006475D03*
X187325Y1060450D03*
X384099Y841299D03*
X171450Y866775D03*
X390525Y847725D03*
X88900Y587375D03*
X139700Y546100D03*
X174625Y564975D03*
X288925Y625475D03*
X234950Y514350D03*
X234950Y596900D03*
X881425Y764893D03*
X752475Y755650D03*
X882650Y773981D03*
X708025Y762000D03*
X647700Y568325D03*
X609600Y568325D03*
X606425Y673580D03*
X638175Y673580D03*
X652539Y576339D03*
X479425Y577850D03*
X479425Y733425D03*
X187325Y771525D03*
X952500Y723900D03*
X996950Y723900D03*
M02*
