G04 EAGLE Gerber RS-274X export*
G75*
%MOMM*%
%FSLAX34Y34*%
%LPD*%
%INSolderpaste Top*%
%IPPOS*%
%AMOC8*
5,1,8,0,0,1.08239X$1,22.5*%
G01*
%ADD10R,1.080000X1.050000*%
%ADD11R,1.050000X1.080000*%
%ADD12R,1.600000X1.300000*%
%ADD13R,1.300000X1.600000*%
%ADD14R,1.500000X1.300000*%
%ADD15R,0.300000X1.600000*%
%ADD16R,1.600000X0.300000*%
%ADD17R,1.422400X0.279400*%
%ADD18R,1.574800X1.879600*%
%ADD19R,1.000000X1.100000*%
%ADD20R,1.219200X2.235200*%
%ADD21R,3.600000X2.200000*%
%ADD22R,1.400000X1.000000*%
%ADD23R,1.100000X1.000000*%
%ADD24R,1.300000X1.500000*%
%ADD25R,1.500000X0.600000*%
%ADD26R,2.950000X3.300000*%
%ADD27R,1.600000X1.800000*%
%ADD28R,0.250000X1.250000*%
%ADD29R,1.650000X2.050000*%
%ADD30R,0.400000X1.800000*%
%ADD31R,1.000000X0.900000*%
%ADD32R,0.550000X1.700000*%
%ADD33R,0.800000X0.800000*%
%ADD34C,0.075000*%
%ADD35R,1.800000X0.700000*%
%ADD36R,1.500000X3.000000*%
%ADD37R,2.500000X2.000000*%
%ADD38R,3.300000X2.000000*%
%ADD39R,3.100000X0.500000*%
%ADD40C,0.300000*%
%ADD41R,0.919741X0.919741*%
%ADD42R,0.919894X0.920691*%
%ADD43R,0.921600X0.921600*%
%ADD44R,0.920331X0.919950*%
%ADD45C,0.018200*%
%ADD46R,0.600000X1.200000*%
%ADD47R,1.670000X0.760000*%
%ADD48R,1.600000X1.250000*%
%ADD49R,1.400000X1.600000*%
%ADD50R,1.500000X2.000000*%
%ADD51R,0.500000X2.200000*%
%ADD52R,3.100000X2.400000*%
%ADD53R,2.400000X2.400000*%
%ADD54R,3.250000X2.500000*%
%ADD55R,1.143000X2.032000*%
%ADD56R,3.700000X2.200000*%
%ADD57R,1.168400X0.406400*%
%ADD58R,0.406400X1.168400*%
%ADD59R,0.800000X0.800000*%


D10*
X196208Y272327D03*
X196208Y289827D03*
D11*
X232898Y288697D03*
X215398Y288697D03*
D12*
X335908Y265677D03*
X335908Y245677D03*
X359024Y233848D03*
X359024Y253848D03*
D13*
X338608Y216307D03*
X358608Y216307D03*
D14*
X191383Y250808D03*
X191383Y231808D03*
D15*
X287208Y260077D03*
X282208Y260077D03*
X277208Y260077D03*
X272208Y260077D03*
X267208Y260077D03*
X262208Y260077D03*
X257208Y260077D03*
X252208Y260077D03*
X247208Y260077D03*
X242208Y260077D03*
X237208Y260077D03*
X232208Y260077D03*
D16*
X217208Y245077D03*
X217208Y240077D03*
X217208Y235077D03*
X217208Y230077D03*
X217208Y225077D03*
X217208Y220077D03*
X217208Y215077D03*
X217208Y210077D03*
X217208Y205077D03*
X217208Y200077D03*
X217208Y195077D03*
X217208Y190077D03*
D15*
X232208Y175077D03*
X237208Y175077D03*
X242208Y175077D03*
X247208Y175077D03*
X252208Y175077D03*
X257208Y175077D03*
X262208Y175077D03*
X267208Y175077D03*
X272208Y175077D03*
X277208Y175077D03*
X282208Y175077D03*
X287208Y175077D03*
D16*
X302208Y190077D03*
X302208Y195077D03*
X302208Y200077D03*
X302208Y205077D03*
X302208Y210077D03*
X302208Y215077D03*
X302208Y220077D03*
X302208Y225077D03*
X302208Y230077D03*
X302208Y235077D03*
X302208Y240077D03*
X302208Y245077D03*
D17*
X209616Y412831D03*
X209616Y408005D03*
X209616Y402925D03*
X209616Y397845D03*
X209616Y393019D03*
X253304Y393019D03*
X253304Y397845D03*
X253304Y402925D03*
X253304Y408005D03*
X253304Y412831D03*
D18*
X231460Y402925D03*
D19*
G36*
X420680Y420485D02*
X427751Y427556D01*
X435528Y419779D01*
X428457Y412708D01*
X420680Y420485D01*
G37*
G36*
X408660Y408464D02*
X415731Y415535D01*
X423508Y407758D01*
X416437Y400687D01*
X408660Y408464D01*
G37*
D14*
X289880Y409885D03*
X289880Y390885D03*
D20*
X173294Y398353D03*
X150180Y398353D03*
X127066Y398353D03*
D21*
X150180Y336375D03*
D22*
X116320Y446105D03*
X138320Y455605D03*
X138320Y436605D03*
D23*
X165420Y454605D03*
X165420Y437605D03*
D19*
X97720Y374985D03*
X80720Y374985D03*
D10*
X261940Y323055D03*
X261940Y340555D03*
D24*
X221960Y326725D03*
X240960Y326725D03*
D19*
X80720Y397845D03*
X97720Y397845D03*
D11*
X80470Y349585D03*
X97970Y349585D03*
X222710Y369905D03*
X240210Y369905D03*
D24*
X221960Y352125D03*
X240960Y352125D03*
D23*
X193360Y480005D03*
X193360Y463005D03*
D11*
X212550Y461345D03*
X230050Y461345D03*
D24*
X214340Y441025D03*
X233340Y441025D03*
D25*
X383420Y373715D03*
X328420Y373715D03*
X383420Y361015D03*
X383420Y386415D03*
X383420Y399115D03*
X328420Y361015D03*
X328420Y386415D03*
X328420Y399115D03*
D26*
X355920Y380065D03*
D24*
X328640Y443565D03*
X347640Y443565D03*
X328640Y423245D03*
X347640Y423245D03*
D11*
X400230Y420705D03*
X382730Y420705D03*
D27*
X382560Y334345D03*
X410560Y334345D03*
D23*
X432120Y353005D03*
X432120Y336005D03*
D28*
X1036150Y1077950D03*
X1031150Y1077950D03*
X1026150Y1077950D03*
X1021150Y1077950D03*
X1016150Y1077950D03*
X1011150Y1077950D03*
X1006150Y1077950D03*
X1001150Y1077950D03*
X996150Y1077950D03*
X991150Y1077950D03*
X986150Y1077950D03*
X981150Y1077950D03*
X976150Y1077950D03*
X971150Y1077950D03*
X966150Y1077950D03*
X961150Y1077950D03*
X956150Y1077950D03*
X951150Y1077950D03*
X946150Y1077950D03*
X941150Y1077950D03*
X936150Y1077950D03*
X931150Y1077950D03*
X926150Y1077950D03*
X921150Y1077950D03*
X916150Y1077950D03*
X911150Y1077950D03*
X906150Y1077950D03*
X901150Y1077950D03*
X896150Y1077950D03*
X891150Y1077950D03*
X886150Y1077950D03*
X881150Y1077950D03*
X876150Y1077950D03*
X871150Y1077950D03*
X866150Y1077950D03*
X861150Y1077950D03*
X856150Y1077950D03*
X851150Y1077950D03*
X846150Y1077950D03*
X841150Y1077950D03*
D29*
X822150Y1110450D03*
X1055150Y1110450D03*
D10*
X900900Y405625D03*
X900900Y388125D03*
D11*
X700900Y571188D03*
X683400Y571188D03*
D10*
X783425Y743725D03*
X783425Y761225D03*
X783425Y405625D03*
X783425Y388125D03*
X853275Y743725D03*
X853275Y761225D03*
D11*
X700900Y615955D03*
X683400Y615955D03*
D10*
X910425Y743725D03*
X910425Y761225D03*
D11*
X685813Y469565D03*
X668313Y469565D03*
X685813Y489285D03*
X668313Y489285D03*
X1041375Y660400D03*
X1058875Y660400D03*
X1041375Y473075D03*
X1058875Y473075D03*
D10*
X850100Y405625D03*
X850100Y388125D03*
D11*
X1041375Y597958D03*
X1058875Y597958D03*
D10*
X964400Y405625D03*
X964400Y388125D03*
X970750Y743725D03*
X970750Y761225D03*
D11*
X1041375Y535517D03*
X1058875Y535517D03*
D24*
X818970Y1062655D03*
X799970Y1062655D03*
D12*
X1031575Y1044895D03*
X1031575Y1024895D03*
X1080435Y1098865D03*
X1080435Y1118865D03*
D14*
X1101390Y1099365D03*
X1101390Y1118365D03*
D30*
X972800Y219600D03*
X964800Y219600D03*
X956800Y219600D03*
X948800Y219600D03*
X940800Y219600D03*
X932800Y219600D03*
X924800Y219600D03*
X916800Y219600D03*
X908800Y219600D03*
X900800Y219600D03*
X892800Y219600D03*
X884800Y219600D03*
X876800Y219600D03*
X868800Y219600D03*
X860800Y219600D03*
X852800Y219600D03*
X844800Y219600D03*
X836800Y219600D03*
X828800Y219600D03*
X820800Y219600D03*
X812800Y219600D03*
X804800Y219600D03*
X796800Y219600D03*
X788800Y219600D03*
X780800Y219600D03*
X772800Y219600D03*
X764800Y219600D03*
X764800Y110600D03*
X772800Y110600D03*
X780800Y110600D03*
X788800Y110600D03*
X796800Y110600D03*
X804800Y110600D03*
X812800Y110600D03*
X820800Y110600D03*
X828800Y110600D03*
X836800Y110600D03*
X844800Y110600D03*
X852800Y110600D03*
X860800Y110600D03*
X868800Y110600D03*
X876800Y110600D03*
X884800Y110600D03*
X892800Y110600D03*
X900800Y110600D03*
X908800Y110600D03*
X916800Y110600D03*
X924800Y110600D03*
X932800Y110600D03*
X940800Y110600D03*
X948800Y110600D03*
X956800Y110600D03*
X964800Y110600D03*
X972800Y110600D03*
D10*
X886610Y75725D03*
X886610Y58225D03*
X946935Y75725D03*
X946935Y58225D03*
X977100Y254775D03*
X977100Y272275D03*
X740560Y212885D03*
X740560Y195385D03*
X954875Y254775D03*
X954875Y272275D03*
X869150Y254775D03*
X869150Y272275D03*
X907250Y254775D03*
X907250Y272275D03*
X264480Y303090D03*
X264480Y285590D03*
X315280Y303090D03*
X315280Y285590D03*
X1061255Y427500D03*
X1061255Y445000D03*
D23*
X1043475Y427750D03*
X1043475Y444750D03*
D19*
X431240Y233380D03*
X448240Y233380D03*
X431240Y213060D03*
X448240Y213060D03*
X431240Y192740D03*
X448240Y192740D03*
X431240Y256240D03*
X448240Y256240D03*
X431240Y276560D03*
X448240Y276560D03*
X448240Y172420D03*
X431240Y172420D03*
D31*
X400625Y471325D03*
X416625Y471325D03*
X416625Y512325D03*
X400625Y512325D03*
D32*
X394375Y491825D03*
D11*
X417375Y456265D03*
X399875Y456265D03*
D33*
G36*
X720037Y742038D02*
X725693Y736382D01*
X720037Y730726D01*
X714381Y736382D01*
X720037Y742038D01*
G37*
G36*
X730643Y752644D02*
X736299Y746988D01*
X730643Y741332D01*
X724987Y746988D01*
X730643Y752644D01*
G37*
D19*
G36*
X713766Y758208D02*
X720837Y765279D01*
X728614Y757502D01*
X721543Y750431D01*
X713766Y758208D01*
G37*
G36*
X701746Y746188D02*
X708817Y753259D01*
X716594Y745482D01*
X709523Y738411D01*
X701746Y746188D01*
G37*
D34*
X765950Y454000D02*
X765950Y441750D01*
X763700Y441750D01*
X763700Y454000D01*
X765950Y454000D01*
X765950Y442462D02*
X763700Y442462D01*
X763700Y443174D02*
X765950Y443174D01*
X765950Y443886D02*
X763700Y443886D01*
X763700Y444598D02*
X765950Y444598D01*
X765950Y445310D02*
X763700Y445310D01*
X763700Y446022D02*
X765950Y446022D01*
X765950Y446734D02*
X763700Y446734D01*
X763700Y447446D02*
X765950Y447446D01*
X765950Y448158D02*
X763700Y448158D01*
X763700Y448870D02*
X765950Y448870D01*
X765950Y449582D02*
X763700Y449582D01*
X763700Y450294D02*
X765950Y450294D01*
X765950Y451006D02*
X763700Y451006D01*
X763700Y451718D02*
X765950Y451718D01*
X765950Y452430D02*
X763700Y452430D01*
X763700Y453142D02*
X765950Y453142D01*
X765950Y453854D02*
X763700Y453854D01*
X770950Y454000D02*
X770950Y441750D01*
X768700Y441750D01*
X768700Y454000D01*
X770950Y454000D01*
X770950Y442462D02*
X768700Y442462D01*
X768700Y443174D02*
X770950Y443174D01*
X770950Y443886D02*
X768700Y443886D01*
X768700Y444598D02*
X770950Y444598D01*
X770950Y445310D02*
X768700Y445310D01*
X768700Y446022D02*
X770950Y446022D01*
X770950Y446734D02*
X768700Y446734D01*
X768700Y447446D02*
X770950Y447446D01*
X770950Y448158D02*
X768700Y448158D01*
X768700Y448870D02*
X770950Y448870D01*
X770950Y449582D02*
X768700Y449582D01*
X768700Y450294D02*
X770950Y450294D01*
X770950Y451006D02*
X768700Y451006D01*
X768700Y451718D02*
X770950Y451718D01*
X770950Y452430D02*
X768700Y452430D01*
X768700Y453142D02*
X770950Y453142D01*
X770950Y453854D02*
X768700Y453854D01*
X775950Y454000D02*
X775950Y441750D01*
X773700Y441750D01*
X773700Y454000D01*
X775950Y454000D01*
X775950Y442462D02*
X773700Y442462D01*
X773700Y443174D02*
X775950Y443174D01*
X775950Y443886D02*
X773700Y443886D01*
X773700Y444598D02*
X775950Y444598D01*
X775950Y445310D02*
X773700Y445310D01*
X773700Y446022D02*
X775950Y446022D01*
X775950Y446734D02*
X773700Y446734D01*
X773700Y447446D02*
X775950Y447446D01*
X775950Y448158D02*
X773700Y448158D01*
X773700Y448870D02*
X775950Y448870D01*
X775950Y449582D02*
X773700Y449582D01*
X773700Y450294D02*
X775950Y450294D01*
X775950Y451006D02*
X773700Y451006D01*
X773700Y451718D02*
X775950Y451718D01*
X775950Y452430D02*
X773700Y452430D01*
X773700Y453142D02*
X775950Y453142D01*
X775950Y453854D02*
X773700Y453854D01*
X780950Y454000D02*
X780950Y441750D01*
X778700Y441750D01*
X778700Y454000D01*
X780950Y454000D01*
X780950Y442462D02*
X778700Y442462D01*
X778700Y443174D02*
X780950Y443174D01*
X780950Y443886D02*
X778700Y443886D01*
X778700Y444598D02*
X780950Y444598D01*
X780950Y445310D02*
X778700Y445310D01*
X778700Y446022D02*
X780950Y446022D01*
X780950Y446734D02*
X778700Y446734D01*
X778700Y447446D02*
X780950Y447446D01*
X780950Y448158D02*
X778700Y448158D01*
X778700Y448870D02*
X780950Y448870D01*
X780950Y449582D02*
X778700Y449582D01*
X778700Y450294D02*
X780950Y450294D01*
X780950Y451006D02*
X778700Y451006D01*
X778700Y451718D02*
X780950Y451718D01*
X780950Y452430D02*
X778700Y452430D01*
X778700Y453142D02*
X780950Y453142D01*
X780950Y453854D02*
X778700Y453854D01*
X785950Y454000D02*
X785950Y441750D01*
X783700Y441750D01*
X783700Y454000D01*
X785950Y454000D01*
X785950Y442462D02*
X783700Y442462D01*
X783700Y443174D02*
X785950Y443174D01*
X785950Y443886D02*
X783700Y443886D01*
X783700Y444598D02*
X785950Y444598D01*
X785950Y445310D02*
X783700Y445310D01*
X783700Y446022D02*
X785950Y446022D01*
X785950Y446734D02*
X783700Y446734D01*
X783700Y447446D02*
X785950Y447446D01*
X785950Y448158D02*
X783700Y448158D01*
X783700Y448870D02*
X785950Y448870D01*
X785950Y449582D02*
X783700Y449582D01*
X783700Y450294D02*
X785950Y450294D01*
X785950Y451006D02*
X783700Y451006D01*
X783700Y451718D02*
X785950Y451718D01*
X785950Y452430D02*
X783700Y452430D01*
X783700Y453142D02*
X785950Y453142D01*
X785950Y453854D02*
X783700Y453854D01*
X790950Y454000D02*
X790950Y441750D01*
X788700Y441750D01*
X788700Y454000D01*
X790950Y454000D01*
X790950Y442462D02*
X788700Y442462D01*
X788700Y443174D02*
X790950Y443174D01*
X790950Y443886D02*
X788700Y443886D01*
X788700Y444598D02*
X790950Y444598D01*
X790950Y445310D02*
X788700Y445310D01*
X788700Y446022D02*
X790950Y446022D01*
X790950Y446734D02*
X788700Y446734D01*
X788700Y447446D02*
X790950Y447446D01*
X790950Y448158D02*
X788700Y448158D01*
X788700Y448870D02*
X790950Y448870D01*
X790950Y449582D02*
X788700Y449582D01*
X788700Y450294D02*
X790950Y450294D01*
X790950Y451006D02*
X788700Y451006D01*
X788700Y451718D02*
X790950Y451718D01*
X790950Y452430D02*
X788700Y452430D01*
X788700Y453142D02*
X790950Y453142D01*
X790950Y453854D02*
X788700Y453854D01*
X795950Y454000D02*
X795950Y441750D01*
X793700Y441750D01*
X793700Y454000D01*
X795950Y454000D01*
X795950Y442462D02*
X793700Y442462D01*
X793700Y443174D02*
X795950Y443174D01*
X795950Y443886D02*
X793700Y443886D01*
X793700Y444598D02*
X795950Y444598D01*
X795950Y445310D02*
X793700Y445310D01*
X793700Y446022D02*
X795950Y446022D01*
X795950Y446734D02*
X793700Y446734D01*
X793700Y447446D02*
X795950Y447446D01*
X795950Y448158D02*
X793700Y448158D01*
X793700Y448870D02*
X795950Y448870D01*
X795950Y449582D02*
X793700Y449582D01*
X793700Y450294D02*
X795950Y450294D01*
X795950Y451006D02*
X793700Y451006D01*
X793700Y451718D02*
X795950Y451718D01*
X795950Y452430D02*
X793700Y452430D01*
X793700Y453142D02*
X795950Y453142D01*
X795950Y453854D02*
X793700Y453854D01*
X800950Y454000D02*
X800950Y441750D01*
X798700Y441750D01*
X798700Y454000D01*
X800950Y454000D01*
X800950Y442462D02*
X798700Y442462D01*
X798700Y443174D02*
X800950Y443174D01*
X800950Y443886D02*
X798700Y443886D01*
X798700Y444598D02*
X800950Y444598D01*
X800950Y445310D02*
X798700Y445310D01*
X798700Y446022D02*
X800950Y446022D01*
X800950Y446734D02*
X798700Y446734D01*
X798700Y447446D02*
X800950Y447446D01*
X800950Y448158D02*
X798700Y448158D01*
X798700Y448870D02*
X800950Y448870D01*
X800950Y449582D02*
X798700Y449582D01*
X798700Y450294D02*
X800950Y450294D01*
X800950Y451006D02*
X798700Y451006D01*
X798700Y451718D02*
X800950Y451718D01*
X800950Y452430D02*
X798700Y452430D01*
X798700Y453142D02*
X800950Y453142D01*
X800950Y453854D02*
X798700Y453854D01*
X805950Y454000D02*
X805950Y441750D01*
X803700Y441750D01*
X803700Y454000D01*
X805950Y454000D01*
X805950Y442462D02*
X803700Y442462D01*
X803700Y443174D02*
X805950Y443174D01*
X805950Y443886D02*
X803700Y443886D01*
X803700Y444598D02*
X805950Y444598D01*
X805950Y445310D02*
X803700Y445310D01*
X803700Y446022D02*
X805950Y446022D01*
X805950Y446734D02*
X803700Y446734D01*
X803700Y447446D02*
X805950Y447446D01*
X805950Y448158D02*
X803700Y448158D01*
X803700Y448870D02*
X805950Y448870D01*
X805950Y449582D02*
X803700Y449582D01*
X803700Y450294D02*
X805950Y450294D01*
X805950Y451006D02*
X803700Y451006D01*
X803700Y451718D02*
X805950Y451718D01*
X805950Y452430D02*
X803700Y452430D01*
X803700Y453142D02*
X805950Y453142D01*
X805950Y453854D02*
X803700Y453854D01*
X810950Y454000D02*
X810950Y441750D01*
X808700Y441750D01*
X808700Y454000D01*
X810950Y454000D01*
X810950Y442462D02*
X808700Y442462D01*
X808700Y443174D02*
X810950Y443174D01*
X810950Y443886D02*
X808700Y443886D01*
X808700Y444598D02*
X810950Y444598D01*
X810950Y445310D02*
X808700Y445310D01*
X808700Y446022D02*
X810950Y446022D01*
X810950Y446734D02*
X808700Y446734D01*
X808700Y447446D02*
X810950Y447446D01*
X810950Y448158D02*
X808700Y448158D01*
X808700Y448870D02*
X810950Y448870D01*
X810950Y449582D02*
X808700Y449582D01*
X808700Y450294D02*
X810950Y450294D01*
X810950Y451006D02*
X808700Y451006D01*
X808700Y451718D02*
X810950Y451718D01*
X810950Y452430D02*
X808700Y452430D01*
X808700Y453142D02*
X810950Y453142D01*
X810950Y453854D02*
X808700Y453854D01*
X815950Y454000D02*
X815950Y441750D01*
X813700Y441750D01*
X813700Y454000D01*
X815950Y454000D01*
X815950Y442462D02*
X813700Y442462D01*
X813700Y443174D02*
X815950Y443174D01*
X815950Y443886D02*
X813700Y443886D01*
X813700Y444598D02*
X815950Y444598D01*
X815950Y445310D02*
X813700Y445310D01*
X813700Y446022D02*
X815950Y446022D01*
X815950Y446734D02*
X813700Y446734D01*
X813700Y447446D02*
X815950Y447446D01*
X815950Y448158D02*
X813700Y448158D01*
X813700Y448870D02*
X815950Y448870D01*
X815950Y449582D02*
X813700Y449582D01*
X813700Y450294D02*
X815950Y450294D01*
X815950Y451006D02*
X813700Y451006D01*
X813700Y451718D02*
X815950Y451718D01*
X815950Y452430D02*
X813700Y452430D01*
X813700Y453142D02*
X815950Y453142D01*
X815950Y453854D02*
X813700Y453854D01*
X820950Y454000D02*
X820950Y441750D01*
X818700Y441750D01*
X818700Y454000D01*
X820950Y454000D01*
X820950Y442462D02*
X818700Y442462D01*
X818700Y443174D02*
X820950Y443174D01*
X820950Y443886D02*
X818700Y443886D01*
X818700Y444598D02*
X820950Y444598D01*
X820950Y445310D02*
X818700Y445310D01*
X818700Y446022D02*
X820950Y446022D01*
X820950Y446734D02*
X818700Y446734D01*
X818700Y447446D02*
X820950Y447446D01*
X820950Y448158D02*
X818700Y448158D01*
X818700Y448870D02*
X820950Y448870D01*
X820950Y449582D02*
X818700Y449582D01*
X818700Y450294D02*
X820950Y450294D01*
X820950Y451006D02*
X818700Y451006D01*
X818700Y451718D02*
X820950Y451718D01*
X820950Y452430D02*
X818700Y452430D01*
X818700Y453142D02*
X820950Y453142D01*
X820950Y453854D02*
X818700Y453854D01*
X825950Y454000D02*
X825950Y441750D01*
X823700Y441750D01*
X823700Y454000D01*
X825950Y454000D01*
X825950Y442462D02*
X823700Y442462D01*
X823700Y443174D02*
X825950Y443174D01*
X825950Y443886D02*
X823700Y443886D01*
X823700Y444598D02*
X825950Y444598D01*
X825950Y445310D02*
X823700Y445310D01*
X823700Y446022D02*
X825950Y446022D01*
X825950Y446734D02*
X823700Y446734D01*
X823700Y447446D02*
X825950Y447446D01*
X825950Y448158D02*
X823700Y448158D01*
X823700Y448870D02*
X825950Y448870D01*
X825950Y449582D02*
X823700Y449582D01*
X823700Y450294D02*
X825950Y450294D01*
X825950Y451006D02*
X823700Y451006D01*
X823700Y451718D02*
X825950Y451718D01*
X825950Y452430D02*
X823700Y452430D01*
X823700Y453142D02*
X825950Y453142D01*
X825950Y453854D02*
X823700Y453854D01*
X830950Y454000D02*
X830950Y441750D01*
X828700Y441750D01*
X828700Y454000D01*
X830950Y454000D01*
X830950Y442462D02*
X828700Y442462D01*
X828700Y443174D02*
X830950Y443174D01*
X830950Y443886D02*
X828700Y443886D01*
X828700Y444598D02*
X830950Y444598D01*
X830950Y445310D02*
X828700Y445310D01*
X828700Y446022D02*
X830950Y446022D01*
X830950Y446734D02*
X828700Y446734D01*
X828700Y447446D02*
X830950Y447446D01*
X830950Y448158D02*
X828700Y448158D01*
X828700Y448870D02*
X830950Y448870D01*
X830950Y449582D02*
X828700Y449582D01*
X828700Y450294D02*
X830950Y450294D01*
X830950Y451006D02*
X828700Y451006D01*
X828700Y451718D02*
X830950Y451718D01*
X830950Y452430D02*
X828700Y452430D01*
X828700Y453142D02*
X830950Y453142D01*
X830950Y453854D02*
X828700Y453854D01*
X835950Y454000D02*
X835950Y441750D01*
X833700Y441750D01*
X833700Y454000D01*
X835950Y454000D01*
X835950Y442462D02*
X833700Y442462D01*
X833700Y443174D02*
X835950Y443174D01*
X835950Y443886D02*
X833700Y443886D01*
X833700Y444598D02*
X835950Y444598D01*
X835950Y445310D02*
X833700Y445310D01*
X833700Y446022D02*
X835950Y446022D01*
X835950Y446734D02*
X833700Y446734D01*
X833700Y447446D02*
X835950Y447446D01*
X835950Y448158D02*
X833700Y448158D01*
X833700Y448870D02*
X835950Y448870D01*
X835950Y449582D02*
X833700Y449582D01*
X833700Y450294D02*
X835950Y450294D01*
X835950Y451006D02*
X833700Y451006D01*
X833700Y451718D02*
X835950Y451718D01*
X835950Y452430D02*
X833700Y452430D01*
X833700Y453142D02*
X835950Y453142D01*
X835950Y453854D02*
X833700Y453854D01*
X840950Y454000D02*
X840950Y441750D01*
X838700Y441750D01*
X838700Y454000D01*
X840950Y454000D01*
X840950Y442462D02*
X838700Y442462D01*
X838700Y443174D02*
X840950Y443174D01*
X840950Y443886D02*
X838700Y443886D01*
X838700Y444598D02*
X840950Y444598D01*
X840950Y445310D02*
X838700Y445310D01*
X838700Y446022D02*
X840950Y446022D01*
X840950Y446734D02*
X838700Y446734D01*
X838700Y447446D02*
X840950Y447446D01*
X840950Y448158D02*
X838700Y448158D01*
X838700Y448870D02*
X840950Y448870D01*
X840950Y449582D02*
X838700Y449582D01*
X838700Y450294D02*
X840950Y450294D01*
X840950Y451006D02*
X838700Y451006D01*
X838700Y451718D02*
X840950Y451718D01*
X840950Y452430D02*
X838700Y452430D01*
X838700Y453142D02*
X840950Y453142D01*
X840950Y453854D02*
X838700Y453854D01*
X845950Y454000D02*
X845950Y441750D01*
X843700Y441750D01*
X843700Y454000D01*
X845950Y454000D01*
X845950Y442462D02*
X843700Y442462D01*
X843700Y443174D02*
X845950Y443174D01*
X845950Y443886D02*
X843700Y443886D01*
X843700Y444598D02*
X845950Y444598D01*
X845950Y445310D02*
X843700Y445310D01*
X843700Y446022D02*
X845950Y446022D01*
X845950Y446734D02*
X843700Y446734D01*
X843700Y447446D02*
X845950Y447446D01*
X845950Y448158D02*
X843700Y448158D01*
X843700Y448870D02*
X845950Y448870D01*
X845950Y449582D02*
X843700Y449582D01*
X843700Y450294D02*
X845950Y450294D01*
X845950Y451006D02*
X843700Y451006D01*
X843700Y451718D02*
X845950Y451718D01*
X845950Y452430D02*
X843700Y452430D01*
X843700Y453142D02*
X845950Y453142D01*
X845950Y453854D02*
X843700Y453854D01*
X850950Y454000D02*
X850950Y441750D01*
X848700Y441750D01*
X848700Y454000D01*
X850950Y454000D01*
X850950Y442462D02*
X848700Y442462D01*
X848700Y443174D02*
X850950Y443174D01*
X850950Y443886D02*
X848700Y443886D01*
X848700Y444598D02*
X850950Y444598D01*
X850950Y445310D02*
X848700Y445310D01*
X848700Y446022D02*
X850950Y446022D01*
X850950Y446734D02*
X848700Y446734D01*
X848700Y447446D02*
X850950Y447446D01*
X850950Y448158D02*
X848700Y448158D01*
X848700Y448870D02*
X850950Y448870D01*
X850950Y449582D02*
X848700Y449582D01*
X848700Y450294D02*
X850950Y450294D01*
X850950Y451006D02*
X848700Y451006D01*
X848700Y451718D02*
X850950Y451718D01*
X850950Y452430D02*
X848700Y452430D01*
X848700Y453142D02*
X850950Y453142D01*
X850950Y453854D02*
X848700Y453854D01*
X855950Y454000D02*
X855950Y441750D01*
X853700Y441750D01*
X853700Y454000D01*
X855950Y454000D01*
X855950Y442462D02*
X853700Y442462D01*
X853700Y443174D02*
X855950Y443174D01*
X855950Y443886D02*
X853700Y443886D01*
X853700Y444598D02*
X855950Y444598D01*
X855950Y445310D02*
X853700Y445310D01*
X853700Y446022D02*
X855950Y446022D01*
X855950Y446734D02*
X853700Y446734D01*
X853700Y447446D02*
X855950Y447446D01*
X855950Y448158D02*
X853700Y448158D01*
X853700Y448870D02*
X855950Y448870D01*
X855950Y449582D02*
X853700Y449582D01*
X853700Y450294D02*
X855950Y450294D01*
X855950Y451006D02*
X853700Y451006D01*
X853700Y451718D02*
X855950Y451718D01*
X855950Y452430D02*
X853700Y452430D01*
X853700Y453142D02*
X855950Y453142D01*
X855950Y453854D02*
X853700Y453854D01*
X860950Y454000D02*
X860950Y441750D01*
X858700Y441750D01*
X858700Y454000D01*
X860950Y454000D01*
X860950Y442462D02*
X858700Y442462D01*
X858700Y443174D02*
X860950Y443174D01*
X860950Y443886D02*
X858700Y443886D01*
X858700Y444598D02*
X860950Y444598D01*
X860950Y445310D02*
X858700Y445310D01*
X858700Y446022D02*
X860950Y446022D01*
X860950Y446734D02*
X858700Y446734D01*
X858700Y447446D02*
X860950Y447446D01*
X860950Y448158D02*
X858700Y448158D01*
X858700Y448870D02*
X860950Y448870D01*
X860950Y449582D02*
X858700Y449582D01*
X858700Y450294D02*
X860950Y450294D01*
X860950Y451006D02*
X858700Y451006D01*
X858700Y451718D02*
X860950Y451718D01*
X860950Y452430D02*
X858700Y452430D01*
X858700Y453142D02*
X860950Y453142D01*
X860950Y453854D02*
X858700Y453854D01*
X865950Y454000D02*
X865950Y441750D01*
X863700Y441750D01*
X863700Y454000D01*
X865950Y454000D01*
X865950Y442462D02*
X863700Y442462D01*
X863700Y443174D02*
X865950Y443174D01*
X865950Y443886D02*
X863700Y443886D01*
X863700Y444598D02*
X865950Y444598D01*
X865950Y445310D02*
X863700Y445310D01*
X863700Y446022D02*
X865950Y446022D01*
X865950Y446734D02*
X863700Y446734D01*
X863700Y447446D02*
X865950Y447446D01*
X865950Y448158D02*
X863700Y448158D01*
X863700Y448870D02*
X865950Y448870D01*
X865950Y449582D02*
X863700Y449582D01*
X863700Y450294D02*
X865950Y450294D01*
X865950Y451006D02*
X863700Y451006D01*
X863700Y451718D02*
X865950Y451718D01*
X865950Y452430D02*
X863700Y452430D01*
X863700Y453142D02*
X865950Y453142D01*
X865950Y453854D02*
X863700Y453854D01*
X870950Y454000D02*
X870950Y441750D01*
X868700Y441750D01*
X868700Y454000D01*
X870950Y454000D01*
X870950Y442462D02*
X868700Y442462D01*
X868700Y443174D02*
X870950Y443174D01*
X870950Y443886D02*
X868700Y443886D01*
X868700Y444598D02*
X870950Y444598D01*
X870950Y445310D02*
X868700Y445310D01*
X868700Y446022D02*
X870950Y446022D01*
X870950Y446734D02*
X868700Y446734D01*
X868700Y447446D02*
X870950Y447446D01*
X870950Y448158D02*
X868700Y448158D01*
X868700Y448870D02*
X870950Y448870D01*
X870950Y449582D02*
X868700Y449582D01*
X868700Y450294D02*
X870950Y450294D01*
X870950Y451006D02*
X868700Y451006D01*
X868700Y451718D02*
X870950Y451718D01*
X870950Y452430D02*
X868700Y452430D01*
X868700Y453142D02*
X870950Y453142D01*
X870950Y453854D02*
X868700Y453854D01*
X875950Y454000D02*
X875950Y441750D01*
X873700Y441750D01*
X873700Y454000D01*
X875950Y454000D01*
X875950Y442462D02*
X873700Y442462D01*
X873700Y443174D02*
X875950Y443174D01*
X875950Y443886D02*
X873700Y443886D01*
X873700Y444598D02*
X875950Y444598D01*
X875950Y445310D02*
X873700Y445310D01*
X873700Y446022D02*
X875950Y446022D01*
X875950Y446734D02*
X873700Y446734D01*
X873700Y447446D02*
X875950Y447446D01*
X875950Y448158D02*
X873700Y448158D01*
X873700Y448870D02*
X875950Y448870D01*
X875950Y449582D02*
X873700Y449582D01*
X873700Y450294D02*
X875950Y450294D01*
X875950Y451006D02*
X873700Y451006D01*
X873700Y451718D02*
X875950Y451718D01*
X875950Y452430D02*
X873700Y452430D01*
X873700Y453142D02*
X875950Y453142D01*
X875950Y453854D02*
X873700Y453854D01*
X880950Y454000D02*
X880950Y441750D01*
X878700Y441750D01*
X878700Y454000D01*
X880950Y454000D01*
X880950Y442462D02*
X878700Y442462D01*
X878700Y443174D02*
X880950Y443174D01*
X880950Y443886D02*
X878700Y443886D01*
X878700Y444598D02*
X880950Y444598D01*
X880950Y445310D02*
X878700Y445310D01*
X878700Y446022D02*
X880950Y446022D01*
X880950Y446734D02*
X878700Y446734D01*
X878700Y447446D02*
X880950Y447446D01*
X880950Y448158D02*
X878700Y448158D01*
X878700Y448870D02*
X880950Y448870D01*
X880950Y449582D02*
X878700Y449582D01*
X878700Y450294D02*
X880950Y450294D01*
X880950Y451006D02*
X878700Y451006D01*
X878700Y451718D02*
X880950Y451718D01*
X880950Y452430D02*
X878700Y452430D01*
X878700Y453142D02*
X880950Y453142D01*
X880950Y453854D02*
X878700Y453854D01*
X885950Y454000D02*
X885950Y441750D01*
X883700Y441750D01*
X883700Y454000D01*
X885950Y454000D01*
X885950Y442462D02*
X883700Y442462D01*
X883700Y443174D02*
X885950Y443174D01*
X885950Y443886D02*
X883700Y443886D01*
X883700Y444598D02*
X885950Y444598D01*
X885950Y445310D02*
X883700Y445310D01*
X883700Y446022D02*
X885950Y446022D01*
X885950Y446734D02*
X883700Y446734D01*
X883700Y447446D02*
X885950Y447446D01*
X885950Y448158D02*
X883700Y448158D01*
X883700Y448870D02*
X885950Y448870D01*
X885950Y449582D02*
X883700Y449582D01*
X883700Y450294D02*
X885950Y450294D01*
X885950Y451006D02*
X883700Y451006D01*
X883700Y451718D02*
X885950Y451718D01*
X885950Y452430D02*
X883700Y452430D01*
X883700Y453142D02*
X885950Y453142D01*
X885950Y453854D02*
X883700Y453854D01*
X890950Y454000D02*
X890950Y441750D01*
X888700Y441750D01*
X888700Y454000D01*
X890950Y454000D01*
X890950Y442462D02*
X888700Y442462D01*
X888700Y443174D02*
X890950Y443174D01*
X890950Y443886D02*
X888700Y443886D01*
X888700Y444598D02*
X890950Y444598D01*
X890950Y445310D02*
X888700Y445310D01*
X888700Y446022D02*
X890950Y446022D01*
X890950Y446734D02*
X888700Y446734D01*
X888700Y447446D02*
X890950Y447446D01*
X890950Y448158D02*
X888700Y448158D01*
X888700Y448870D02*
X890950Y448870D01*
X890950Y449582D02*
X888700Y449582D01*
X888700Y450294D02*
X890950Y450294D01*
X890950Y451006D02*
X888700Y451006D01*
X888700Y451718D02*
X890950Y451718D01*
X890950Y452430D02*
X888700Y452430D01*
X888700Y453142D02*
X890950Y453142D01*
X890950Y453854D02*
X888700Y453854D01*
X895950Y454000D02*
X895950Y441750D01*
X893700Y441750D01*
X893700Y454000D01*
X895950Y454000D01*
X895950Y442462D02*
X893700Y442462D01*
X893700Y443174D02*
X895950Y443174D01*
X895950Y443886D02*
X893700Y443886D01*
X893700Y444598D02*
X895950Y444598D01*
X895950Y445310D02*
X893700Y445310D01*
X893700Y446022D02*
X895950Y446022D01*
X895950Y446734D02*
X893700Y446734D01*
X893700Y447446D02*
X895950Y447446D01*
X895950Y448158D02*
X893700Y448158D01*
X893700Y448870D02*
X895950Y448870D01*
X895950Y449582D02*
X893700Y449582D01*
X893700Y450294D02*
X895950Y450294D01*
X895950Y451006D02*
X893700Y451006D01*
X893700Y451718D02*
X895950Y451718D01*
X895950Y452430D02*
X893700Y452430D01*
X893700Y453142D02*
X895950Y453142D01*
X895950Y453854D02*
X893700Y453854D01*
X900950Y454000D02*
X900950Y441750D01*
X898700Y441750D01*
X898700Y454000D01*
X900950Y454000D01*
X900950Y442462D02*
X898700Y442462D01*
X898700Y443174D02*
X900950Y443174D01*
X900950Y443886D02*
X898700Y443886D01*
X898700Y444598D02*
X900950Y444598D01*
X900950Y445310D02*
X898700Y445310D01*
X898700Y446022D02*
X900950Y446022D01*
X900950Y446734D02*
X898700Y446734D01*
X898700Y447446D02*
X900950Y447446D01*
X900950Y448158D02*
X898700Y448158D01*
X898700Y448870D02*
X900950Y448870D01*
X900950Y449582D02*
X898700Y449582D01*
X898700Y450294D02*
X900950Y450294D01*
X900950Y451006D02*
X898700Y451006D01*
X898700Y451718D02*
X900950Y451718D01*
X900950Y452430D02*
X898700Y452430D01*
X898700Y453142D02*
X900950Y453142D01*
X900950Y453854D02*
X898700Y453854D01*
X905950Y454000D02*
X905950Y441750D01*
X903700Y441750D01*
X903700Y454000D01*
X905950Y454000D01*
X905950Y442462D02*
X903700Y442462D01*
X903700Y443174D02*
X905950Y443174D01*
X905950Y443886D02*
X903700Y443886D01*
X903700Y444598D02*
X905950Y444598D01*
X905950Y445310D02*
X903700Y445310D01*
X903700Y446022D02*
X905950Y446022D01*
X905950Y446734D02*
X903700Y446734D01*
X903700Y447446D02*
X905950Y447446D01*
X905950Y448158D02*
X903700Y448158D01*
X903700Y448870D02*
X905950Y448870D01*
X905950Y449582D02*
X903700Y449582D01*
X903700Y450294D02*
X905950Y450294D01*
X905950Y451006D02*
X903700Y451006D01*
X903700Y451718D02*
X905950Y451718D01*
X905950Y452430D02*
X903700Y452430D01*
X903700Y453142D02*
X905950Y453142D01*
X905950Y453854D02*
X903700Y453854D01*
X910950Y454000D02*
X910950Y441750D01*
X908700Y441750D01*
X908700Y454000D01*
X910950Y454000D01*
X910950Y442462D02*
X908700Y442462D01*
X908700Y443174D02*
X910950Y443174D01*
X910950Y443886D02*
X908700Y443886D01*
X908700Y444598D02*
X910950Y444598D01*
X910950Y445310D02*
X908700Y445310D01*
X908700Y446022D02*
X910950Y446022D01*
X910950Y446734D02*
X908700Y446734D01*
X908700Y447446D02*
X910950Y447446D01*
X910950Y448158D02*
X908700Y448158D01*
X908700Y448870D02*
X910950Y448870D01*
X910950Y449582D02*
X908700Y449582D01*
X908700Y450294D02*
X910950Y450294D01*
X910950Y451006D02*
X908700Y451006D01*
X908700Y451718D02*
X910950Y451718D01*
X910950Y452430D02*
X908700Y452430D01*
X908700Y453142D02*
X910950Y453142D01*
X910950Y453854D02*
X908700Y453854D01*
X915950Y454000D02*
X915950Y441750D01*
X913700Y441750D01*
X913700Y454000D01*
X915950Y454000D01*
X915950Y442462D02*
X913700Y442462D01*
X913700Y443174D02*
X915950Y443174D01*
X915950Y443886D02*
X913700Y443886D01*
X913700Y444598D02*
X915950Y444598D01*
X915950Y445310D02*
X913700Y445310D01*
X913700Y446022D02*
X915950Y446022D01*
X915950Y446734D02*
X913700Y446734D01*
X913700Y447446D02*
X915950Y447446D01*
X915950Y448158D02*
X913700Y448158D01*
X913700Y448870D02*
X915950Y448870D01*
X915950Y449582D02*
X913700Y449582D01*
X913700Y450294D02*
X915950Y450294D01*
X915950Y451006D02*
X913700Y451006D01*
X913700Y451718D02*
X915950Y451718D01*
X915950Y452430D02*
X913700Y452430D01*
X913700Y453142D02*
X915950Y453142D01*
X915950Y453854D02*
X913700Y453854D01*
X920950Y454000D02*
X920950Y441750D01*
X918700Y441750D01*
X918700Y454000D01*
X920950Y454000D01*
X920950Y442462D02*
X918700Y442462D01*
X918700Y443174D02*
X920950Y443174D01*
X920950Y443886D02*
X918700Y443886D01*
X918700Y444598D02*
X920950Y444598D01*
X920950Y445310D02*
X918700Y445310D01*
X918700Y446022D02*
X920950Y446022D01*
X920950Y446734D02*
X918700Y446734D01*
X918700Y447446D02*
X920950Y447446D01*
X920950Y448158D02*
X918700Y448158D01*
X918700Y448870D02*
X920950Y448870D01*
X920950Y449582D02*
X918700Y449582D01*
X918700Y450294D02*
X920950Y450294D01*
X920950Y451006D02*
X918700Y451006D01*
X918700Y451718D02*
X920950Y451718D01*
X920950Y452430D02*
X918700Y452430D01*
X918700Y453142D02*
X920950Y453142D01*
X920950Y453854D02*
X918700Y453854D01*
X925950Y454000D02*
X925950Y441750D01*
X923700Y441750D01*
X923700Y454000D01*
X925950Y454000D01*
X925950Y442462D02*
X923700Y442462D01*
X923700Y443174D02*
X925950Y443174D01*
X925950Y443886D02*
X923700Y443886D01*
X923700Y444598D02*
X925950Y444598D01*
X925950Y445310D02*
X923700Y445310D01*
X923700Y446022D02*
X925950Y446022D01*
X925950Y446734D02*
X923700Y446734D01*
X923700Y447446D02*
X925950Y447446D01*
X925950Y448158D02*
X923700Y448158D01*
X923700Y448870D02*
X925950Y448870D01*
X925950Y449582D02*
X923700Y449582D01*
X923700Y450294D02*
X925950Y450294D01*
X925950Y451006D02*
X923700Y451006D01*
X923700Y451718D02*
X925950Y451718D01*
X925950Y452430D02*
X923700Y452430D01*
X923700Y453142D02*
X925950Y453142D01*
X925950Y453854D02*
X923700Y453854D01*
X930950Y454000D02*
X930950Y441750D01*
X928700Y441750D01*
X928700Y454000D01*
X930950Y454000D01*
X930950Y442462D02*
X928700Y442462D01*
X928700Y443174D02*
X930950Y443174D01*
X930950Y443886D02*
X928700Y443886D01*
X928700Y444598D02*
X930950Y444598D01*
X930950Y445310D02*
X928700Y445310D01*
X928700Y446022D02*
X930950Y446022D01*
X930950Y446734D02*
X928700Y446734D01*
X928700Y447446D02*
X930950Y447446D01*
X930950Y448158D02*
X928700Y448158D01*
X928700Y448870D02*
X930950Y448870D01*
X930950Y449582D02*
X928700Y449582D01*
X928700Y450294D02*
X930950Y450294D01*
X930950Y451006D02*
X928700Y451006D01*
X928700Y451718D02*
X930950Y451718D01*
X930950Y452430D02*
X928700Y452430D01*
X928700Y453142D02*
X930950Y453142D01*
X930950Y453854D02*
X928700Y453854D01*
X935950Y454000D02*
X935950Y441750D01*
X933700Y441750D01*
X933700Y454000D01*
X935950Y454000D01*
X935950Y442462D02*
X933700Y442462D01*
X933700Y443174D02*
X935950Y443174D01*
X935950Y443886D02*
X933700Y443886D01*
X933700Y444598D02*
X935950Y444598D01*
X935950Y445310D02*
X933700Y445310D01*
X933700Y446022D02*
X935950Y446022D01*
X935950Y446734D02*
X933700Y446734D01*
X933700Y447446D02*
X935950Y447446D01*
X935950Y448158D02*
X933700Y448158D01*
X933700Y448870D02*
X935950Y448870D01*
X935950Y449582D02*
X933700Y449582D01*
X933700Y450294D02*
X935950Y450294D01*
X935950Y451006D02*
X933700Y451006D01*
X933700Y451718D02*
X935950Y451718D01*
X935950Y452430D02*
X933700Y452430D01*
X933700Y453142D02*
X935950Y453142D01*
X935950Y453854D02*
X933700Y453854D01*
X940950Y454000D02*
X940950Y441750D01*
X938700Y441750D01*
X938700Y454000D01*
X940950Y454000D01*
X940950Y442462D02*
X938700Y442462D01*
X938700Y443174D02*
X940950Y443174D01*
X940950Y443886D02*
X938700Y443886D01*
X938700Y444598D02*
X940950Y444598D01*
X940950Y445310D02*
X938700Y445310D01*
X938700Y446022D02*
X940950Y446022D01*
X940950Y446734D02*
X938700Y446734D01*
X938700Y447446D02*
X940950Y447446D01*
X940950Y448158D02*
X938700Y448158D01*
X938700Y448870D02*
X940950Y448870D01*
X940950Y449582D02*
X938700Y449582D01*
X938700Y450294D02*
X940950Y450294D01*
X940950Y451006D02*
X938700Y451006D01*
X938700Y451718D02*
X940950Y451718D01*
X940950Y452430D02*
X938700Y452430D01*
X938700Y453142D02*
X940950Y453142D01*
X940950Y453854D02*
X938700Y453854D01*
X945950Y454000D02*
X945950Y441750D01*
X943700Y441750D01*
X943700Y454000D01*
X945950Y454000D01*
X945950Y442462D02*
X943700Y442462D01*
X943700Y443174D02*
X945950Y443174D01*
X945950Y443886D02*
X943700Y443886D01*
X943700Y444598D02*
X945950Y444598D01*
X945950Y445310D02*
X943700Y445310D01*
X943700Y446022D02*
X945950Y446022D01*
X945950Y446734D02*
X943700Y446734D01*
X943700Y447446D02*
X945950Y447446D01*
X945950Y448158D02*
X943700Y448158D01*
X943700Y448870D02*
X945950Y448870D01*
X945950Y449582D02*
X943700Y449582D01*
X943700Y450294D02*
X945950Y450294D01*
X945950Y451006D02*
X943700Y451006D01*
X943700Y451718D02*
X945950Y451718D01*
X945950Y452430D02*
X943700Y452430D01*
X943700Y453142D02*
X945950Y453142D01*
X945950Y453854D02*
X943700Y453854D01*
X950950Y454000D02*
X950950Y441750D01*
X948700Y441750D01*
X948700Y454000D01*
X950950Y454000D01*
X950950Y442462D02*
X948700Y442462D01*
X948700Y443174D02*
X950950Y443174D01*
X950950Y443886D02*
X948700Y443886D01*
X948700Y444598D02*
X950950Y444598D01*
X950950Y445310D02*
X948700Y445310D01*
X948700Y446022D02*
X950950Y446022D01*
X950950Y446734D02*
X948700Y446734D01*
X948700Y447446D02*
X950950Y447446D01*
X950950Y448158D02*
X948700Y448158D01*
X948700Y448870D02*
X950950Y448870D01*
X950950Y449582D02*
X948700Y449582D01*
X948700Y450294D02*
X950950Y450294D01*
X950950Y451006D02*
X948700Y451006D01*
X948700Y451718D02*
X950950Y451718D01*
X950950Y452430D02*
X948700Y452430D01*
X948700Y453142D02*
X950950Y453142D01*
X950950Y453854D02*
X948700Y453854D01*
X955950Y454000D02*
X955950Y441750D01*
X953700Y441750D01*
X953700Y454000D01*
X955950Y454000D01*
X955950Y442462D02*
X953700Y442462D01*
X953700Y443174D02*
X955950Y443174D01*
X955950Y443886D02*
X953700Y443886D01*
X953700Y444598D02*
X955950Y444598D01*
X955950Y445310D02*
X953700Y445310D01*
X953700Y446022D02*
X955950Y446022D01*
X955950Y446734D02*
X953700Y446734D01*
X953700Y447446D02*
X955950Y447446D01*
X955950Y448158D02*
X953700Y448158D01*
X953700Y448870D02*
X955950Y448870D01*
X955950Y449582D02*
X953700Y449582D01*
X953700Y450294D02*
X955950Y450294D01*
X955950Y451006D02*
X953700Y451006D01*
X953700Y451718D02*
X955950Y451718D01*
X955950Y452430D02*
X953700Y452430D01*
X953700Y453142D02*
X955950Y453142D01*
X955950Y453854D02*
X953700Y453854D01*
X960950Y454000D02*
X960950Y441750D01*
X958700Y441750D01*
X958700Y454000D01*
X960950Y454000D01*
X960950Y442462D02*
X958700Y442462D01*
X958700Y443174D02*
X960950Y443174D01*
X960950Y443886D02*
X958700Y443886D01*
X958700Y444598D02*
X960950Y444598D01*
X960950Y445310D02*
X958700Y445310D01*
X958700Y446022D02*
X960950Y446022D01*
X960950Y446734D02*
X958700Y446734D01*
X958700Y447446D02*
X960950Y447446D01*
X960950Y448158D02*
X958700Y448158D01*
X958700Y448870D02*
X960950Y448870D01*
X960950Y449582D02*
X958700Y449582D01*
X958700Y450294D02*
X960950Y450294D01*
X960950Y451006D02*
X958700Y451006D01*
X958700Y451718D02*
X960950Y451718D01*
X960950Y452430D02*
X958700Y452430D01*
X958700Y453142D02*
X960950Y453142D01*
X960950Y453854D02*
X958700Y453854D01*
X965950Y454000D02*
X965950Y441750D01*
X963700Y441750D01*
X963700Y454000D01*
X965950Y454000D01*
X965950Y442462D02*
X963700Y442462D01*
X963700Y443174D02*
X965950Y443174D01*
X965950Y443886D02*
X963700Y443886D01*
X963700Y444598D02*
X965950Y444598D01*
X965950Y445310D02*
X963700Y445310D01*
X963700Y446022D02*
X965950Y446022D01*
X965950Y446734D02*
X963700Y446734D01*
X963700Y447446D02*
X965950Y447446D01*
X965950Y448158D02*
X963700Y448158D01*
X963700Y448870D02*
X965950Y448870D01*
X965950Y449582D02*
X963700Y449582D01*
X963700Y450294D02*
X965950Y450294D01*
X965950Y451006D02*
X963700Y451006D01*
X963700Y451718D02*
X965950Y451718D01*
X965950Y452430D02*
X963700Y452430D01*
X963700Y453142D02*
X965950Y453142D01*
X965950Y453854D02*
X963700Y453854D01*
X970950Y454000D02*
X970950Y441750D01*
X968700Y441750D01*
X968700Y454000D01*
X970950Y454000D01*
X970950Y442462D02*
X968700Y442462D01*
X968700Y443174D02*
X970950Y443174D01*
X970950Y443886D02*
X968700Y443886D01*
X968700Y444598D02*
X970950Y444598D01*
X970950Y445310D02*
X968700Y445310D01*
X968700Y446022D02*
X970950Y446022D01*
X970950Y446734D02*
X968700Y446734D01*
X968700Y447446D02*
X970950Y447446D01*
X970950Y448158D02*
X968700Y448158D01*
X968700Y448870D02*
X970950Y448870D01*
X970950Y449582D02*
X968700Y449582D01*
X968700Y450294D02*
X970950Y450294D01*
X970950Y451006D02*
X968700Y451006D01*
X968700Y451718D02*
X970950Y451718D01*
X970950Y452430D02*
X968700Y452430D01*
X968700Y453142D02*
X970950Y453142D01*
X970950Y453854D02*
X968700Y453854D01*
X975950Y454000D02*
X975950Y441750D01*
X973700Y441750D01*
X973700Y454000D01*
X975950Y454000D01*
X975950Y442462D02*
X973700Y442462D01*
X973700Y443174D02*
X975950Y443174D01*
X975950Y443886D02*
X973700Y443886D01*
X973700Y444598D02*
X975950Y444598D01*
X975950Y445310D02*
X973700Y445310D01*
X973700Y446022D02*
X975950Y446022D01*
X975950Y446734D02*
X973700Y446734D01*
X973700Y447446D02*
X975950Y447446D01*
X975950Y448158D02*
X973700Y448158D01*
X973700Y448870D02*
X975950Y448870D01*
X975950Y449582D02*
X973700Y449582D01*
X973700Y450294D02*
X975950Y450294D01*
X975950Y451006D02*
X973700Y451006D01*
X973700Y451718D02*
X975950Y451718D01*
X975950Y452430D02*
X973700Y452430D01*
X973700Y453142D02*
X975950Y453142D01*
X975950Y453854D02*
X973700Y453854D01*
X980950Y454000D02*
X980950Y441750D01*
X978700Y441750D01*
X978700Y454000D01*
X980950Y454000D01*
X980950Y442462D02*
X978700Y442462D01*
X978700Y443174D02*
X980950Y443174D01*
X980950Y443886D02*
X978700Y443886D01*
X978700Y444598D02*
X980950Y444598D01*
X980950Y445310D02*
X978700Y445310D01*
X978700Y446022D02*
X980950Y446022D01*
X980950Y446734D02*
X978700Y446734D01*
X978700Y447446D02*
X980950Y447446D01*
X980950Y448158D02*
X978700Y448158D01*
X978700Y448870D02*
X980950Y448870D01*
X980950Y449582D02*
X978700Y449582D01*
X978700Y450294D02*
X980950Y450294D01*
X980950Y451006D02*
X978700Y451006D01*
X978700Y451718D02*
X980950Y451718D01*
X980950Y452430D02*
X978700Y452430D01*
X978700Y453142D02*
X980950Y453142D01*
X980950Y453854D02*
X978700Y453854D01*
X980950Y695350D02*
X980950Y707600D01*
X980950Y695350D02*
X978700Y695350D01*
X978700Y707600D01*
X980950Y707600D01*
X980950Y696062D02*
X978700Y696062D01*
X978700Y696774D02*
X980950Y696774D01*
X980950Y697486D02*
X978700Y697486D01*
X978700Y698198D02*
X980950Y698198D01*
X980950Y698910D02*
X978700Y698910D01*
X978700Y699622D02*
X980950Y699622D01*
X980950Y700334D02*
X978700Y700334D01*
X978700Y701046D02*
X980950Y701046D01*
X980950Y701758D02*
X978700Y701758D01*
X978700Y702470D02*
X980950Y702470D01*
X980950Y703182D02*
X978700Y703182D01*
X978700Y703894D02*
X980950Y703894D01*
X980950Y704606D02*
X978700Y704606D01*
X978700Y705318D02*
X980950Y705318D01*
X980950Y706030D02*
X978700Y706030D01*
X978700Y706742D02*
X980950Y706742D01*
X980950Y707454D02*
X978700Y707454D01*
X975950Y707600D02*
X975950Y695350D01*
X973700Y695350D01*
X973700Y707600D01*
X975950Y707600D01*
X975950Y696062D02*
X973700Y696062D01*
X973700Y696774D02*
X975950Y696774D01*
X975950Y697486D02*
X973700Y697486D01*
X973700Y698198D02*
X975950Y698198D01*
X975950Y698910D02*
X973700Y698910D01*
X973700Y699622D02*
X975950Y699622D01*
X975950Y700334D02*
X973700Y700334D01*
X973700Y701046D02*
X975950Y701046D01*
X975950Y701758D02*
X973700Y701758D01*
X973700Y702470D02*
X975950Y702470D01*
X975950Y703182D02*
X973700Y703182D01*
X973700Y703894D02*
X975950Y703894D01*
X975950Y704606D02*
X973700Y704606D01*
X973700Y705318D02*
X975950Y705318D01*
X975950Y706030D02*
X973700Y706030D01*
X973700Y706742D02*
X975950Y706742D01*
X975950Y707454D02*
X973700Y707454D01*
X970950Y707600D02*
X970950Y695350D01*
X968700Y695350D01*
X968700Y707600D01*
X970950Y707600D01*
X970950Y696062D02*
X968700Y696062D01*
X968700Y696774D02*
X970950Y696774D01*
X970950Y697486D02*
X968700Y697486D01*
X968700Y698198D02*
X970950Y698198D01*
X970950Y698910D02*
X968700Y698910D01*
X968700Y699622D02*
X970950Y699622D01*
X970950Y700334D02*
X968700Y700334D01*
X968700Y701046D02*
X970950Y701046D01*
X970950Y701758D02*
X968700Y701758D01*
X968700Y702470D02*
X970950Y702470D01*
X970950Y703182D02*
X968700Y703182D01*
X968700Y703894D02*
X970950Y703894D01*
X970950Y704606D02*
X968700Y704606D01*
X968700Y705318D02*
X970950Y705318D01*
X970950Y706030D02*
X968700Y706030D01*
X968700Y706742D02*
X970950Y706742D01*
X970950Y707454D02*
X968700Y707454D01*
X965950Y707600D02*
X965950Y695350D01*
X963700Y695350D01*
X963700Y707600D01*
X965950Y707600D01*
X965950Y696062D02*
X963700Y696062D01*
X963700Y696774D02*
X965950Y696774D01*
X965950Y697486D02*
X963700Y697486D01*
X963700Y698198D02*
X965950Y698198D01*
X965950Y698910D02*
X963700Y698910D01*
X963700Y699622D02*
X965950Y699622D01*
X965950Y700334D02*
X963700Y700334D01*
X963700Y701046D02*
X965950Y701046D01*
X965950Y701758D02*
X963700Y701758D01*
X963700Y702470D02*
X965950Y702470D01*
X965950Y703182D02*
X963700Y703182D01*
X963700Y703894D02*
X965950Y703894D01*
X965950Y704606D02*
X963700Y704606D01*
X963700Y705318D02*
X965950Y705318D01*
X965950Y706030D02*
X963700Y706030D01*
X963700Y706742D02*
X965950Y706742D01*
X965950Y707454D02*
X963700Y707454D01*
X960950Y707600D02*
X960950Y695350D01*
X958700Y695350D01*
X958700Y707600D01*
X960950Y707600D01*
X960950Y696062D02*
X958700Y696062D01*
X958700Y696774D02*
X960950Y696774D01*
X960950Y697486D02*
X958700Y697486D01*
X958700Y698198D02*
X960950Y698198D01*
X960950Y698910D02*
X958700Y698910D01*
X958700Y699622D02*
X960950Y699622D01*
X960950Y700334D02*
X958700Y700334D01*
X958700Y701046D02*
X960950Y701046D01*
X960950Y701758D02*
X958700Y701758D01*
X958700Y702470D02*
X960950Y702470D01*
X960950Y703182D02*
X958700Y703182D01*
X958700Y703894D02*
X960950Y703894D01*
X960950Y704606D02*
X958700Y704606D01*
X958700Y705318D02*
X960950Y705318D01*
X960950Y706030D02*
X958700Y706030D01*
X958700Y706742D02*
X960950Y706742D01*
X960950Y707454D02*
X958700Y707454D01*
X955950Y707600D02*
X955950Y695350D01*
X953700Y695350D01*
X953700Y707600D01*
X955950Y707600D01*
X955950Y696062D02*
X953700Y696062D01*
X953700Y696774D02*
X955950Y696774D01*
X955950Y697486D02*
X953700Y697486D01*
X953700Y698198D02*
X955950Y698198D01*
X955950Y698910D02*
X953700Y698910D01*
X953700Y699622D02*
X955950Y699622D01*
X955950Y700334D02*
X953700Y700334D01*
X953700Y701046D02*
X955950Y701046D01*
X955950Y701758D02*
X953700Y701758D01*
X953700Y702470D02*
X955950Y702470D01*
X955950Y703182D02*
X953700Y703182D01*
X953700Y703894D02*
X955950Y703894D01*
X955950Y704606D02*
X953700Y704606D01*
X953700Y705318D02*
X955950Y705318D01*
X955950Y706030D02*
X953700Y706030D01*
X953700Y706742D02*
X955950Y706742D01*
X955950Y707454D02*
X953700Y707454D01*
X950950Y707600D02*
X950950Y695350D01*
X948700Y695350D01*
X948700Y707600D01*
X950950Y707600D01*
X950950Y696062D02*
X948700Y696062D01*
X948700Y696774D02*
X950950Y696774D01*
X950950Y697486D02*
X948700Y697486D01*
X948700Y698198D02*
X950950Y698198D01*
X950950Y698910D02*
X948700Y698910D01*
X948700Y699622D02*
X950950Y699622D01*
X950950Y700334D02*
X948700Y700334D01*
X948700Y701046D02*
X950950Y701046D01*
X950950Y701758D02*
X948700Y701758D01*
X948700Y702470D02*
X950950Y702470D01*
X950950Y703182D02*
X948700Y703182D01*
X948700Y703894D02*
X950950Y703894D01*
X950950Y704606D02*
X948700Y704606D01*
X948700Y705318D02*
X950950Y705318D01*
X950950Y706030D02*
X948700Y706030D01*
X948700Y706742D02*
X950950Y706742D01*
X950950Y707454D02*
X948700Y707454D01*
X945950Y707600D02*
X945950Y695350D01*
X943700Y695350D01*
X943700Y707600D01*
X945950Y707600D01*
X945950Y696062D02*
X943700Y696062D01*
X943700Y696774D02*
X945950Y696774D01*
X945950Y697486D02*
X943700Y697486D01*
X943700Y698198D02*
X945950Y698198D01*
X945950Y698910D02*
X943700Y698910D01*
X943700Y699622D02*
X945950Y699622D01*
X945950Y700334D02*
X943700Y700334D01*
X943700Y701046D02*
X945950Y701046D01*
X945950Y701758D02*
X943700Y701758D01*
X943700Y702470D02*
X945950Y702470D01*
X945950Y703182D02*
X943700Y703182D01*
X943700Y703894D02*
X945950Y703894D01*
X945950Y704606D02*
X943700Y704606D01*
X943700Y705318D02*
X945950Y705318D01*
X945950Y706030D02*
X943700Y706030D01*
X943700Y706742D02*
X945950Y706742D01*
X945950Y707454D02*
X943700Y707454D01*
X940950Y707600D02*
X940950Y695350D01*
X938700Y695350D01*
X938700Y707600D01*
X940950Y707600D01*
X940950Y696062D02*
X938700Y696062D01*
X938700Y696774D02*
X940950Y696774D01*
X940950Y697486D02*
X938700Y697486D01*
X938700Y698198D02*
X940950Y698198D01*
X940950Y698910D02*
X938700Y698910D01*
X938700Y699622D02*
X940950Y699622D01*
X940950Y700334D02*
X938700Y700334D01*
X938700Y701046D02*
X940950Y701046D01*
X940950Y701758D02*
X938700Y701758D01*
X938700Y702470D02*
X940950Y702470D01*
X940950Y703182D02*
X938700Y703182D01*
X938700Y703894D02*
X940950Y703894D01*
X940950Y704606D02*
X938700Y704606D01*
X938700Y705318D02*
X940950Y705318D01*
X940950Y706030D02*
X938700Y706030D01*
X938700Y706742D02*
X940950Y706742D01*
X940950Y707454D02*
X938700Y707454D01*
X935950Y707600D02*
X935950Y695350D01*
X933700Y695350D01*
X933700Y707600D01*
X935950Y707600D01*
X935950Y696062D02*
X933700Y696062D01*
X933700Y696774D02*
X935950Y696774D01*
X935950Y697486D02*
X933700Y697486D01*
X933700Y698198D02*
X935950Y698198D01*
X935950Y698910D02*
X933700Y698910D01*
X933700Y699622D02*
X935950Y699622D01*
X935950Y700334D02*
X933700Y700334D01*
X933700Y701046D02*
X935950Y701046D01*
X935950Y701758D02*
X933700Y701758D01*
X933700Y702470D02*
X935950Y702470D01*
X935950Y703182D02*
X933700Y703182D01*
X933700Y703894D02*
X935950Y703894D01*
X935950Y704606D02*
X933700Y704606D01*
X933700Y705318D02*
X935950Y705318D01*
X935950Y706030D02*
X933700Y706030D01*
X933700Y706742D02*
X935950Y706742D01*
X935950Y707454D02*
X933700Y707454D01*
X930950Y707600D02*
X930950Y695350D01*
X928700Y695350D01*
X928700Y707600D01*
X930950Y707600D01*
X930950Y696062D02*
X928700Y696062D01*
X928700Y696774D02*
X930950Y696774D01*
X930950Y697486D02*
X928700Y697486D01*
X928700Y698198D02*
X930950Y698198D01*
X930950Y698910D02*
X928700Y698910D01*
X928700Y699622D02*
X930950Y699622D01*
X930950Y700334D02*
X928700Y700334D01*
X928700Y701046D02*
X930950Y701046D01*
X930950Y701758D02*
X928700Y701758D01*
X928700Y702470D02*
X930950Y702470D01*
X930950Y703182D02*
X928700Y703182D01*
X928700Y703894D02*
X930950Y703894D01*
X930950Y704606D02*
X928700Y704606D01*
X928700Y705318D02*
X930950Y705318D01*
X930950Y706030D02*
X928700Y706030D01*
X928700Y706742D02*
X930950Y706742D01*
X930950Y707454D02*
X928700Y707454D01*
X925950Y707600D02*
X925950Y695350D01*
X923700Y695350D01*
X923700Y707600D01*
X925950Y707600D01*
X925950Y696062D02*
X923700Y696062D01*
X923700Y696774D02*
X925950Y696774D01*
X925950Y697486D02*
X923700Y697486D01*
X923700Y698198D02*
X925950Y698198D01*
X925950Y698910D02*
X923700Y698910D01*
X923700Y699622D02*
X925950Y699622D01*
X925950Y700334D02*
X923700Y700334D01*
X923700Y701046D02*
X925950Y701046D01*
X925950Y701758D02*
X923700Y701758D01*
X923700Y702470D02*
X925950Y702470D01*
X925950Y703182D02*
X923700Y703182D01*
X923700Y703894D02*
X925950Y703894D01*
X925950Y704606D02*
X923700Y704606D01*
X923700Y705318D02*
X925950Y705318D01*
X925950Y706030D02*
X923700Y706030D01*
X923700Y706742D02*
X925950Y706742D01*
X925950Y707454D02*
X923700Y707454D01*
X920950Y707600D02*
X920950Y695350D01*
X918700Y695350D01*
X918700Y707600D01*
X920950Y707600D01*
X920950Y696062D02*
X918700Y696062D01*
X918700Y696774D02*
X920950Y696774D01*
X920950Y697486D02*
X918700Y697486D01*
X918700Y698198D02*
X920950Y698198D01*
X920950Y698910D02*
X918700Y698910D01*
X918700Y699622D02*
X920950Y699622D01*
X920950Y700334D02*
X918700Y700334D01*
X918700Y701046D02*
X920950Y701046D01*
X920950Y701758D02*
X918700Y701758D01*
X918700Y702470D02*
X920950Y702470D01*
X920950Y703182D02*
X918700Y703182D01*
X918700Y703894D02*
X920950Y703894D01*
X920950Y704606D02*
X918700Y704606D01*
X918700Y705318D02*
X920950Y705318D01*
X920950Y706030D02*
X918700Y706030D01*
X918700Y706742D02*
X920950Y706742D01*
X920950Y707454D02*
X918700Y707454D01*
X915950Y707600D02*
X915950Y695350D01*
X913700Y695350D01*
X913700Y707600D01*
X915950Y707600D01*
X915950Y696062D02*
X913700Y696062D01*
X913700Y696774D02*
X915950Y696774D01*
X915950Y697486D02*
X913700Y697486D01*
X913700Y698198D02*
X915950Y698198D01*
X915950Y698910D02*
X913700Y698910D01*
X913700Y699622D02*
X915950Y699622D01*
X915950Y700334D02*
X913700Y700334D01*
X913700Y701046D02*
X915950Y701046D01*
X915950Y701758D02*
X913700Y701758D01*
X913700Y702470D02*
X915950Y702470D01*
X915950Y703182D02*
X913700Y703182D01*
X913700Y703894D02*
X915950Y703894D01*
X915950Y704606D02*
X913700Y704606D01*
X913700Y705318D02*
X915950Y705318D01*
X915950Y706030D02*
X913700Y706030D01*
X913700Y706742D02*
X915950Y706742D01*
X915950Y707454D02*
X913700Y707454D01*
X910950Y707600D02*
X910950Y695350D01*
X908700Y695350D01*
X908700Y707600D01*
X910950Y707600D01*
X910950Y696062D02*
X908700Y696062D01*
X908700Y696774D02*
X910950Y696774D01*
X910950Y697486D02*
X908700Y697486D01*
X908700Y698198D02*
X910950Y698198D01*
X910950Y698910D02*
X908700Y698910D01*
X908700Y699622D02*
X910950Y699622D01*
X910950Y700334D02*
X908700Y700334D01*
X908700Y701046D02*
X910950Y701046D01*
X910950Y701758D02*
X908700Y701758D01*
X908700Y702470D02*
X910950Y702470D01*
X910950Y703182D02*
X908700Y703182D01*
X908700Y703894D02*
X910950Y703894D01*
X910950Y704606D02*
X908700Y704606D01*
X908700Y705318D02*
X910950Y705318D01*
X910950Y706030D02*
X908700Y706030D01*
X908700Y706742D02*
X910950Y706742D01*
X910950Y707454D02*
X908700Y707454D01*
X905950Y707600D02*
X905950Y695350D01*
X903700Y695350D01*
X903700Y707600D01*
X905950Y707600D01*
X905950Y696062D02*
X903700Y696062D01*
X903700Y696774D02*
X905950Y696774D01*
X905950Y697486D02*
X903700Y697486D01*
X903700Y698198D02*
X905950Y698198D01*
X905950Y698910D02*
X903700Y698910D01*
X903700Y699622D02*
X905950Y699622D01*
X905950Y700334D02*
X903700Y700334D01*
X903700Y701046D02*
X905950Y701046D01*
X905950Y701758D02*
X903700Y701758D01*
X903700Y702470D02*
X905950Y702470D01*
X905950Y703182D02*
X903700Y703182D01*
X903700Y703894D02*
X905950Y703894D01*
X905950Y704606D02*
X903700Y704606D01*
X903700Y705318D02*
X905950Y705318D01*
X905950Y706030D02*
X903700Y706030D01*
X903700Y706742D02*
X905950Y706742D01*
X905950Y707454D02*
X903700Y707454D01*
X900950Y707600D02*
X900950Y695350D01*
X898700Y695350D01*
X898700Y707600D01*
X900950Y707600D01*
X900950Y696062D02*
X898700Y696062D01*
X898700Y696774D02*
X900950Y696774D01*
X900950Y697486D02*
X898700Y697486D01*
X898700Y698198D02*
X900950Y698198D01*
X900950Y698910D02*
X898700Y698910D01*
X898700Y699622D02*
X900950Y699622D01*
X900950Y700334D02*
X898700Y700334D01*
X898700Y701046D02*
X900950Y701046D01*
X900950Y701758D02*
X898700Y701758D01*
X898700Y702470D02*
X900950Y702470D01*
X900950Y703182D02*
X898700Y703182D01*
X898700Y703894D02*
X900950Y703894D01*
X900950Y704606D02*
X898700Y704606D01*
X898700Y705318D02*
X900950Y705318D01*
X900950Y706030D02*
X898700Y706030D01*
X898700Y706742D02*
X900950Y706742D01*
X900950Y707454D02*
X898700Y707454D01*
X895950Y707600D02*
X895950Y695350D01*
X893700Y695350D01*
X893700Y707600D01*
X895950Y707600D01*
X895950Y696062D02*
X893700Y696062D01*
X893700Y696774D02*
X895950Y696774D01*
X895950Y697486D02*
X893700Y697486D01*
X893700Y698198D02*
X895950Y698198D01*
X895950Y698910D02*
X893700Y698910D01*
X893700Y699622D02*
X895950Y699622D01*
X895950Y700334D02*
X893700Y700334D01*
X893700Y701046D02*
X895950Y701046D01*
X895950Y701758D02*
X893700Y701758D01*
X893700Y702470D02*
X895950Y702470D01*
X895950Y703182D02*
X893700Y703182D01*
X893700Y703894D02*
X895950Y703894D01*
X895950Y704606D02*
X893700Y704606D01*
X893700Y705318D02*
X895950Y705318D01*
X895950Y706030D02*
X893700Y706030D01*
X893700Y706742D02*
X895950Y706742D01*
X895950Y707454D02*
X893700Y707454D01*
X890950Y707600D02*
X890950Y695350D01*
X888700Y695350D01*
X888700Y707600D01*
X890950Y707600D01*
X890950Y696062D02*
X888700Y696062D01*
X888700Y696774D02*
X890950Y696774D01*
X890950Y697486D02*
X888700Y697486D01*
X888700Y698198D02*
X890950Y698198D01*
X890950Y698910D02*
X888700Y698910D01*
X888700Y699622D02*
X890950Y699622D01*
X890950Y700334D02*
X888700Y700334D01*
X888700Y701046D02*
X890950Y701046D01*
X890950Y701758D02*
X888700Y701758D01*
X888700Y702470D02*
X890950Y702470D01*
X890950Y703182D02*
X888700Y703182D01*
X888700Y703894D02*
X890950Y703894D01*
X890950Y704606D02*
X888700Y704606D01*
X888700Y705318D02*
X890950Y705318D01*
X890950Y706030D02*
X888700Y706030D01*
X888700Y706742D02*
X890950Y706742D01*
X890950Y707454D02*
X888700Y707454D01*
X885950Y707600D02*
X885950Y695350D01*
X883700Y695350D01*
X883700Y707600D01*
X885950Y707600D01*
X885950Y696062D02*
X883700Y696062D01*
X883700Y696774D02*
X885950Y696774D01*
X885950Y697486D02*
X883700Y697486D01*
X883700Y698198D02*
X885950Y698198D01*
X885950Y698910D02*
X883700Y698910D01*
X883700Y699622D02*
X885950Y699622D01*
X885950Y700334D02*
X883700Y700334D01*
X883700Y701046D02*
X885950Y701046D01*
X885950Y701758D02*
X883700Y701758D01*
X883700Y702470D02*
X885950Y702470D01*
X885950Y703182D02*
X883700Y703182D01*
X883700Y703894D02*
X885950Y703894D01*
X885950Y704606D02*
X883700Y704606D01*
X883700Y705318D02*
X885950Y705318D01*
X885950Y706030D02*
X883700Y706030D01*
X883700Y706742D02*
X885950Y706742D01*
X885950Y707454D02*
X883700Y707454D01*
X880950Y707600D02*
X880950Y695350D01*
X878700Y695350D01*
X878700Y707600D01*
X880950Y707600D01*
X880950Y696062D02*
X878700Y696062D01*
X878700Y696774D02*
X880950Y696774D01*
X880950Y697486D02*
X878700Y697486D01*
X878700Y698198D02*
X880950Y698198D01*
X880950Y698910D02*
X878700Y698910D01*
X878700Y699622D02*
X880950Y699622D01*
X880950Y700334D02*
X878700Y700334D01*
X878700Y701046D02*
X880950Y701046D01*
X880950Y701758D02*
X878700Y701758D01*
X878700Y702470D02*
X880950Y702470D01*
X880950Y703182D02*
X878700Y703182D01*
X878700Y703894D02*
X880950Y703894D01*
X880950Y704606D02*
X878700Y704606D01*
X878700Y705318D02*
X880950Y705318D01*
X880950Y706030D02*
X878700Y706030D01*
X878700Y706742D02*
X880950Y706742D01*
X880950Y707454D02*
X878700Y707454D01*
X875950Y707600D02*
X875950Y695350D01*
X873700Y695350D01*
X873700Y707600D01*
X875950Y707600D01*
X875950Y696062D02*
X873700Y696062D01*
X873700Y696774D02*
X875950Y696774D01*
X875950Y697486D02*
X873700Y697486D01*
X873700Y698198D02*
X875950Y698198D01*
X875950Y698910D02*
X873700Y698910D01*
X873700Y699622D02*
X875950Y699622D01*
X875950Y700334D02*
X873700Y700334D01*
X873700Y701046D02*
X875950Y701046D01*
X875950Y701758D02*
X873700Y701758D01*
X873700Y702470D02*
X875950Y702470D01*
X875950Y703182D02*
X873700Y703182D01*
X873700Y703894D02*
X875950Y703894D01*
X875950Y704606D02*
X873700Y704606D01*
X873700Y705318D02*
X875950Y705318D01*
X875950Y706030D02*
X873700Y706030D01*
X873700Y706742D02*
X875950Y706742D01*
X875950Y707454D02*
X873700Y707454D01*
X870950Y707600D02*
X870950Y695350D01*
X868700Y695350D01*
X868700Y707600D01*
X870950Y707600D01*
X870950Y696062D02*
X868700Y696062D01*
X868700Y696774D02*
X870950Y696774D01*
X870950Y697486D02*
X868700Y697486D01*
X868700Y698198D02*
X870950Y698198D01*
X870950Y698910D02*
X868700Y698910D01*
X868700Y699622D02*
X870950Y699622D01*
X870950Y700334D02*
X868700Y700334D01*
X868700Y701046D02*
X870950Y701046D01*
X870950Y701758D02*
X868700Y701758D01*
X868700Y702470D02*
X870950Y702470D01*
X870950Y703182D02*
X868700Y703182D01*
X868700Y703894D02*
X870950Y703894D01*
X870950Y704606D02*
X868700Y704606D01*
X868700Y705318D02*
X870950Y705318D01*
X870950Y706030D02*
X868700Y706030D01*
X868700Y706742D02*
X870950Y706742D01*
X870950Y707454D02*
X868700Y707454D01*
X865950Y707600D02*
X865950Y695350D01*
X863700Y695350D01*
X863700Y707600D01*
X865950Y707600D01*
X865950Y696062D02*
X863700Y696062D01*
X863700Y696774D02*
X865950Y696774D01*
X865950Y697486D02*
X863700Y697486D01*
X863700Y698198D02*
X865950Y698198D01*
X865950Y698910D02*
X863700Y698910D01*
X863700Y699622D02*
X865950Y699622D01*
X865950Y700334D02*
X863700Y700334D01*
X863700Y701046D02*
X865950Y701046D01*
X865950Y701758D02*
X863700Y701758D01*
X863700Y702470D02*
X865950Y702470D01*
X865950Y703182D02*
X863700Y703182D01*
X863700Y703894D02*
X865950Y703894D01*
X865950Y704606D02*
X863700Y704606D01*
X863700Y705318D02*
X865950Y705318D01*
X865950Y706030D02*
X863700Y706030D01*
X863700Y706742D02*
X865950Y706742D01*
X865950Y707454D02*
X863700Y707454D01*
X860950Y707600D02*
X860950Y695350D01*
X858700Y695350D01*
X858700Y707600D01*
X860950Y707600D01*
X860950Y696062D02*
X858700Y696062D01*
X858700Y696774D02*
X860950Y696774D01*
X860950Y697486D02*
X858700Y697486D01*
X858700Y698198D02*
X860950Y698198D01*
X860950Y698910D02*
X858700Y698910D01*
X858700Y699622D02*
X860950Y699622D01*
X860950Y700334D02*
X858700Y700334D01*
X858700Y701046D02*
X860950Y701046D01*
X860950Y701758D02*
X858700Y701758D01*
X858700Y702470D02*
X860950Y702470D01*
X860950Y703182D02*
X858700Y703182D01*
X858700Y703894D02*
X860950Y703894D01*
X860950Y704606D02*
X858700Y704606D01*
X858700Y705318D02*
X860950Y705318D01*
X860950Y706030D02*
X858700Y706030D01*
X858700Y706742D02*
X860950Y706742D01*
X860950Y707454D02*
X858700Y707454D01*
X855950Y707600D02*
X855950Y695350D01*
X853700Y695350D01*
X853700Y707600D01*
X855950Y707600D01*
X855950Y696062D02*
X853700Y696062D01*
X853700Y696774D02*
X855950Y696774D01*
X855950Y697486D02*
X853700Y697486D01*
X853700Y698198D02*
X855950Y698198D01*
X855950Y698910D02*
X853700Y698910D01*
X853700Y699622D02*
X855950Y699622D01*
X855950Y700334D02*
X853700Y700334D01*
X853700Y701046D02*
X855950Y701046D01*
X855950Y701758D02*
X853700Y701758D01*
X853700Y702470D02*
X855950Y702470D01*
X855950Y703182D02*
X853700Y703182D01*
X853700Y703894D02*
X855950Y703894D01*
X855950Y704606D02*
X853700Y704606D01*
X853700Y705318D02*
X855950Y705318D01*
X855950Y706030D02*
X853700Y706030D01*
X853700Y706742D02*
X855950Y706742D01*
X855950Y707454D02*
X853700Y707454D01*
X850950Y707600D02*
X850950Y695350D01*
X848700Y695350D01*
X848700Y707600D01*
X850950Y707600D01*
X850950Y696062D02*
X848700Y696062D01*
X848700Y696774D02*
X850950Y696774D01*
X850950Y697486D02*
X848700Y697486D01*
X848700Y698198D02*
X850950Y698198D01*
X850950Y698910D02*
X848700Y698910D01*
X848700Y699622D02*
X850950Y699622D01*
X850950Y700334D02*
X848700Y700334D01*
X848700Y701046D02*
X850950Y701046D01*
X850950Y701758D02*
X848700Y701758D01*
X848700Y702470D02*
X850950Y702470D01*
X850950Y703182D02*
X848700Y703182D01*
X848700Y703894D02*
X850950Y703894D01*
X850950Y704606D02*
X848700Y704606D01*
X848700Y705318D02*
X850950Y705318D01*
X850950Y706030D02*
X848700Y706030D01*
X848700Y706742D02*
X850950Y706742D01*
X850950Y707454D02*
X848700Y707454D01*
X845950Y707600D02*
X845950Y695350D01*
X843700Y695350D01*
X843700Y707600D01*
X845950Y707600D01*
X845950Y696062D02*
X843700Y696062D01*
X843700Y696774D02*
X845950Y696774D01*
X845950Y697486D02*
X843700Y697486D01*
X843700Y698198D02*
X845950Y698198D01*
X845950Y698910D02*
X843700Y698910D01*
X843700Y699622D02*
X845950Y699622D01*
X845950Y700334D02*
X843700Y700334D01*
X843700Y701046D02*
X845950Y701046D01*
X845950Y701758D02*
X843700Y701758D01*
X843700Y702470D02*
X845950Y702470D01*
X845950Y703182D02*
X843700Y703182D01*
X843700Y703894D02*
X845950Y703894D01*
X845950Y704606D02*
X843700Y704606D01*
X843700Y705318D02*
X845950Y705318D01*
X845950Y706030D02*
X843700Y706030D01*
X843700Y706742D02*
X845950Y706742D01*
X845950Y707454D02*
X843700Y707454D01*
X840950Y707600D02*
X840950Y695350D01*
X838700Y695350D01*
X838700Y707600D01*
X840950Y707600D01*
X840950Y696062D02*
X838700Y696062D01*
X838700Y696774D02*
X840950Y696774D01*
X840950Y697486D02*
X838700Y697486D01*
X838700Y698198D02*
X840950Y698198D01*
X840950Y698910D02*
X838700Y698910D01*
X838700Y699622D02*
X840950Y699622D01*
X840950Y700334D02*
X838700Y700334D01*
X838700Y701046D02*
X840950Y701046D01*
X840950Y701758D02*
X838700Y701758D01*
X838700Y702470D02*
X840950Y702470D01*
X840950Y703182D02*
X838700Y703182D01*
X838700Y703894D02*
X840950Y703894D01*
X840950Y704606D02*
X838700Y704606D01*
X838700Y705318D02*
X840950Y705318D01*
X840950Y706030D02*
X838700Y706030D01*
X838700Y706742D02*
X840950Y706742D01*
X840950Y707454D02*
X838700Y707454D01*
X835950Y707600D02*
X835950Y695350D01*
X833700Y695350D01*
X833700Y707600D01*
X835950Y707600D01*
X835950Y696062D02*
X833700Y696062D01*
X833700Y696774D02*
X835950Y696774D01*
X835950Y697486D02*
X833700Y697486D01*
X833700Y698198D02*
X835950Y698198D01*
X835950Y698910D02*
X833700Y698910D01*
X833700Y699622D02*
X835950Y699622D01*
X835950Y700334D02*
X833700Y700334D01*
X833700Y701046D02*
X835950Y701046D01*
X835950Y701758D02*
X833700Y701758D01*
X833700Y702470D02*
X835950Y702470D01*
X835950Y703182D02*
X833700Y703182D01*
X833700Y703894D02*
X835950Y703894D01*
X835950Y704606D02*
X833700Y704606D01*
X833700Y705318D02*
X835950Y705318D01*
X835950Y706030D02*
X833700Y706030D01*
X833700Y706742D02*
X835950Y706742D01*
X835950Y707454D02*
X833700Y707454D01*
X830950Y707600D02*
X830950Y695350D01*
X828700Y695350D01*
X828700Y707600D01*
X830950Y707600D01*
X830950Y696062D02*
X828700Y696062D01*
X828700Y696774D02*
X830950Y696774D01*
X830950Y697486D02*
X828700Y697486D01*
X828700Y698198D02*
X830950Y698198D01*
X830950Y698910D02*
X828700Y698910D01*
X828700Y699622D02*
X830950Y699622D01*
X830950Y700334D02*
X828700Y700334D01*
X828700Y701046D02*
X830950Y701046D01*
X830950Y701758D02*
X828700Y701758D01*
X828700Y702470D02*
X830950Y702470D01*
X830950Y703182D02*
X828700Y703182D01*
X828700Y703894D02*
X830950Y703894D01*
X830950Y704606D02*
X828700Y704606D01*
X828700Y705318D02*
X830950Y705318D01*
X830950Y706030D02*
X828700Y706030D01*
X828700Y706742D02*
X830950Y706742D01*
X830950Y707454D02*
X828700Y707454D01*
X825950Y707600D02*
X825950Y695350D01*
X823700Y695350D01*
X823700Y707600D01*
X825950Y707600D01*
X825950Y696062D02*
X823700Y696062D01*
X823700Y696774D02*
X825950Y696774D01*
X825950Y697486D02*
X823700Y697486D01*
X823700Y698198D02*
X825950Y698198D01*
X825950Y698910D02*
X823700Y698910D01*
X823700Y699622D02*
X825950Y699622D01*
X825950Y700334D02*
X823700Y700334D01*
X823700Y701046D02*
X825950Y701046D01*
X825950Y701758D02*
X823700Y701758D01*
X823700Y702470D02*
X825950Y702470D01*
X825950Y703182D02*
X823700Y703182D01*
X823700Y703894D02*
X825950Y703894D01*
X825950Y704606D02*
X823700Y704606D01*
X823700Y705318D02*
X825950Y705318D01*
X825950Y706030D02*
X823700Y706030D01*
X823700Y706742D02*
X825950Y706742D01*
X825950Y707454D02*
X823700Y707454D01*
X820950Y707600D02*
X820950Y695350D01*
X818700Y695350D01*
X818700Y707600D01*
X820950Y707600D01*
X820950Y696062D02*
X818700Y696062D01*
X818700Y696774D02*
X820950Y696774D01*
X820950Y697486D02*
X818700Y697486D01*
X818700Y698198D02*
X820950Y698198D01*
X820950Y698910D02*
X818700Y698910D01*
X818700Y699622D02*
X820950Y699622D01*
X820950Y700334D02*
X818700Y700334D01*
X818700Y701046D02*
X820950Y701046D01*
X820950Y701758D02*
X818700Y701758D01*
X818700Y702470D02*
X820950Y702470D01*
X820950Y703182D02*
X818700Y703182D01*
X818700Y703894D02*
X820950Y703894D01*
X820950Y704606D02*
X818700Y704606D01*
X818700Y705318D02*
X820950Y705318D01*
X820950Y706030D02*
X818700Y706030D01*
X818700Y706742D02*
X820950Y706742D01*
X820950Y707454D02*
X818700Y707454D01*
X815950Y707600D02*
X815950Y695350D01*
X813700Y695350D01*
X813700Y707600D01*
X815950Y707600D01*
X815950Y696062D02*
X813700Y696062D01*
X813700Y696774D02*
X815950Y696774D01*
X815950Y697486D02*
X813700Y697486D01*
X813700Y698198D02*
X815950Y698198D01*
X815950Y698910D02*
X813700Y698910D01*
X813700Y699622D02*
X815950Y699622D01*
X815950Y700334D02*
X813700Y700334D01*
X813700Y701046D02*
X815950Y701046D01*
X815950Y701758D02*
X813700Y701758D01*
X813700Y702470D02*
X815950Y702470D01*
X815950Y703182D02*
X813700Y703182D01*
X813700Y703894D02*
X815950Y703894D01*
X815950Y704606D02*
X813700Y704606D01*
X813700Y705318D02*
X815950Y705318D01*
X815950Y706030D02*
X813700Y706030D01*
X813700Y706742D02*
X815950Y706742D01*
X815950Y707454D02*
X813700Y707454D01*
X810950Y707600D02*
X810950Y695350D01*
X808700Y695350D01*
X808700Y707600D01*
X810950Y707600D01*
X810950Y696062D02*
X808700Y696062D01*
X808700Y696774D02*
X810950Y696774D01*
X810950Y697486D02*
X808700Y697486D01*
X808700Y698198D02*
X810950Y698198D01*
X810950Y698910D02*
X808700Y698910D01*
X808700Y699622D02*
X810950Y699622D01*
X810950Y700334D02*
X808700Y700334D01*
X808700Y701046D02*
X810950Y701046D01*
X810950Y701758D02*
X808700Y701758D01*
X808700Y702470D02*
X810950Y702470D01*
X810950Y703182D02*
X808700Y703182D01*
X808700Y703894D02*
X810950Y703894D01*
X810950Y704606D02*
X808700Y704606D01*
X808700Y705318D02*
X810950Y705318D01*
X810950Y706030D02*
X808700Y706030D01*
X808700Y706742D02*
X810950Y706742D01*
X810950Y707454D02*
X808700Y707454D01*
X805950Y707600D02*
X805950Y695350D01*
X803700Y695350D01*
X803700Y707600D01*
X805950Y707600D01*
X805950Y696062D02*
X803700Y696062D01*
X803700Y696774D02*
X805950Y696774D01*
X805950Y697486D02*
X803700Y697486D01*
X803700Y698198D02*
X805950Y698198D01*
X805950Y698910D02*
X803700Y698910D01*
X803700Y699622D02*
X805950Y699622D01*
X805950Y700334D02*
X803700Y700334D01*
X803700Y701046D02*
X805950Y701046D01*
X805950Y701758D02*
X803700Y701758D01*
X803700Y702470D02*
X805950Y702470D01*
X805950Y703182D02*
X803700Y703182D01*
X803700Y703894D02*
X805950Y703894D01*
X805950Y704606D02*
X803700Y704606D01*
X803700Y705318D02*
X805950Y705318D01*
X805950Y706030D02*
X803700Y706030D01*
X803700Y706742D02*
X805950Y706742D01*
X805950Y707454D02*
X803700Y707454D01*
X800950Y707600D02*
X800950Y695350D01*
X798700Y695350D01*
X798700Y707600D01*
X800950Y707600D01*
X800950Y696062D02*
X798700Y696062D01*
X798700Y696774D02*
X800950Y696774D01*
X800950Y697486D02*
X798700Y697486D01*
X798700Y698198D02*
X800950Y698198D01*
X800950Y698910D02*
X798700Y698910D01*
X798700Y699622D02*
X800950Y699622D01*
X800950Y700334D02*
X798700Y700334D01*
X798700Y701046D02*
X800950Y701046D01*
X800950Y701758D02*
X798700Y701758D01*
X798700Y702470D02*
X800950Y702470D01*
X800950Y703182D02*
X798700Y703182D01*
X798700Y703894D02*
X800950Y703894D01*
X800950Y704606D02*
X798700Y704606D01*
X798700Y705318D02*
X800950Y705318D01*
X800950Y706030D02*
X798700Y706030D01*
X798700Y706742D02*
X800950Y706742D01*
X800950Y707454D02*
X798700Y707454D01*
X795950Y707600D02*
X795950Y695350D01*
X793700Y695350D01*
X793700Y707600D01*
X795950Y707600D01*
X795950Y696062D02*
X793700Y696062D01*
X793700Y696774D02*
X795950Y696774D01*
X795950Y697486D02*
X793700Y697486D01*
X793700Y698198D02*
X795950Y698198D01*
X795950Y698910D02*
X793700Y698910D01*
X793700Y699622D02*
X795950Y699622D01*
X795950Y700334D02*
X793700Y700334D01*
X793700Y701046D02*
X795950Y701046D01*
X795950Y701758D02*
X793700Y701758D01*
X793700Y702470D02*
X795950Y702470D01*
X795950Y703182D02*
X793700Y703182D01*
X793700Y703894D02*
X795950Y703894D01*
X795950Y704606D02*
X793700Y704606D01*
X793700Y705318D02*
X795950Y705318D01*
X795950Y706030D02*
X793700Y706030D01*
X793700Y706742D02*
X795950Y706742D01*
X795950Y707454D02*
X793700Y707454D01*
X790950Y707600D02*
X790950Y695350D01*
X788700Y695350D01*
X788700Y707600D01*
X790950Y707600D01*
X790950Y696062D02*
X788700Y696062D01*
X788700Y696774D02*
X790950Y696774D01*
X790950Y697486D02*
X788700Y697486D01*
X788700Y698198D02*
X790950Y698198D01*
X790950Y698910D02*
X788700Y698910D01*
X788700Y699622D02*
X790950Y699622D01*
X790950Y700334D02*
X788700Y700334D01*
X788700Y701046D02*
X790950Y701046D01*
X790950Y701758D02*
X788700Y701758D01*
X788700Y702470D02*
X790950Y702470D01*
X790950Y703182D02*
X788700Y703182D01*
X788700Y703894D02*
X790950Y703894D01*
X790950Y704606D02*
X788700Y704606D01*
X788700Y705318D02*
X790950Y705318D01*
X790950Y706030D02*
X788700Y706030D01*
X788700Y706742D02*
X790950Y706742D01*
X790950Y707454D02*
X788700Y707454D01*
X785950Y707600D02*
X785950Y695350D01*
X783700Y695350D01*
X783700Y707600D01*
X785950Y707600D01*
X785950Y696062D02*
X783700Y696062D01*
X783700Y696774D02*
X785950Y696774D01*
X785950Y697486D02*
X783700Y697486D01*
X783700Y698198D02*
X785950Y698198D01*
X785950Y698910D02*
X783700Y698910D01*
X783700Y699622D02*
X785950Y699622D01*
X785950Y700334D02*
X783700Y700334D01*
X783700Y701046D02*
X785950Y701046D01*
X785950Y701758D02*
X783700Y701758D01*
X783700Y702470D02*
X785950Y702470D01*
X785950Y703182D02*
X783700Y703182D01*
X783700Y703894D02*
X785950Y703894D01*
X785950Y704606D02*
X783700Y704606D01*
X783700Y705318D02*
X785950Y705318D01*
X785950Y706030D02*
X783700Y706030D01*
X783700Y706742D02*
X785950Y706742D01*
X785950Y707454D02*
X783700Y707454D01*
X780950Y707600D02*
X780950Y695350D01*
X778700Y695350D01*
X778700Y707600D01*
X780950Y707600D01*
X780950Y696062D02*
X778700Y696062D01*
X778700Y696774D02*
X780950Y696774D01*
X780950Y697486D02*
X778700Y697486D01*
X778700Y698198D02*
X780950Y698198D01*
X780950Y698910D02*
X778700Y698910D01*
X778700Y699622D02*
X780950Y699622D01*
X780950Y700334D02*
X778700Y700334D01*
X778700Y701046D02*
X780950Y701046D01*
X780950Y701758D02*
X778700Y701758D01*
X778700Y702470D02*
X780950Y702470D01*
X780950Y703182D02*
X778700Y703182D01*
X778700Y703894D02*
X780950Y703894D01*
X780950Y704606D02*
X778700Y704606D01*
X778700Y705318D02*
X780950Y705318D01*
X780950Y706030D02*
X778700Y706030D01*
X778700Y706742D02*
X780950Y706742D01*
X780950Y707454D02*
X778700Y707454D01*
X775950Y707600D02*
X775950Y695350D01*
X773700Y695350D01*
X773700Y707600D01*
X775950Y707600D01*
X775950Y696062D02*
X773700Y696062D01*
X773700Y696774D02*
X775950Y696774D01*
X775950Y697486D02*
X773700Y697486D01*
X773700Y698198D02*
X775950Y698198D01*
X775950Y698910D02*
X773700Y698910D01*
X773700Y699622D02*
X775950Y699622D01*
X775950Y700334D02*
X773700Y700334D01*
X773700Y701046D02*
X775950Y701046D01*
X775950Y701758D02*
X773700Y701758D01*
X773700Y702470D02*
X775950Y702470D01*
X775950Y703182D02*
X773700Y703182D01*
X773700Y703894D02*
X775950Y703894D01*
X775950Y704606D02*
X773700Y704606D01*
X773700Y705318D02*
X775950Y705318D01*
X775950Y706030D02*
X773700Y706030D01*
X773700Y706742D02*
X775950Y706742D01*
X775950Y707454D02*
X773700Y707454D01*
X770950Y707600D02*
X770950Y695350D01*
X768700Y695350D01*
X768700Y707600D01*
X770950Y707600D01*
X770950Y696062D02*
X768700Y696062D01*
X768700Y696774D02*
X770950Y696774D01*
X770950Y697486D02*
X768700Y697486D01*
X768700Y698198D02*
X770950Y698198D01*
X770950Y698910D02*
X768700Y698910D01*
X768700Y699622D02*
X770950Y699622D01*
X770950Y700334D02*
X768700Y700334D01*
X768700Y701046D02*
X770950Y701046D01*
X770950Y701758D02*
X768700Y701758D01*
X768700Y702470D02*
X770950Y702470D01*
X770950Y703182D02*
X768700Y703182D01*
X768700Y703894D02*
X770950Y703894D01*
X770950Y704606D02*
X768700Y704606D01*
X768700Y705318D02*
X770950Y705318D01*
X770950Y706030D02*
X768700Y706030D01*
X768700Y706742D02*
X770950Y706742D01*
X770950Y707454D02*
X768700Y707454D01*
X765950Y707600D02*
X765950Y695350D01*
X763700Y695350D01*
X763700Y707600D01*
X765950Y707600D01*
X765950Y696062D02*
X763700Y696062D01*
X763700Y696774D02*
X765950Y696774D01*
X765950Y697486D02*
X763700Y697486D01*
X763700Y698198D02*
X765950Y698198D01*
X765950Y698910D02*
X763700Y698910D01*
X763700Y699622D02*
X765950Y699622D01*
X765950Y700334D02*
X763700Y700334D01*
X763700Y701046D02*
X765950Y701046D01*
X765950Y701758D02*
X763700Y701758D01*
X763700Y702470D02*
X765950Y702470D01*
X765950Y703182D02*
X763700Y703182D01*
X763700Y703894D02*
X765950Y703894D01*
X765950Y704606D02*
X763700Y704606D01*
X763700Y705318D02*
X765950Y705318D01*
X765950Y706030D02*
X763700Y706030D01*
X763700Y706742D02*
X765950Y706742D01*
X765950Y707454D02*
X763700Y707454D01*
X751650Y681050D02*
X739400Y681050D01*
X739400Y683300D01*
X751650Y683300D01*
X751650Y681050D01*
X751650Y681762D02*
X739400Y681762D01*
X739400Y682474D02*
X751650Y682474D01*
X751650Y683186D02*
X739400Y683186D01*
X739400Y676050D02*
X751650Y676050D01*
X739400Y676050D02*
X739400Y678300D01*
X751650Y678300D01*
X751650Y676050D01*
X751650Y676762D02*
X739400Y676762D01*
X739400Y677474D02*
X751650Y677474D01*
X751650Y678186D02*
X739400Y678186D01*
X739400Y671050D02*
X751650Y671050D01*
X739400Y671050D02*
X739400Y673300D01*
X751650Y673300D01*
X751650Y671050D01*
X751650Y671762D02*
X739400Y671762D01*
X739400Y672474D02*
X751650Y672474D01*
X751650Y673186D02*
X739400Y673186D01*
X739400Y666050D02*
X751650Y666050D01*
X739400Y666050D02*
X739400Y668300D01*
X751650Y668300D01*
X751650Y666050D01*
X751650Y666762D02*
X739400Y666762D01*
X739400Y667474D02*
X751650Y667474D01*
X751650Y668186D02*
X739400Y668186D01*
X739400Y661050D02*
X751650Y661050D01*
X739400Y661050D02*
X739400Y663300D01*
X751650Y663300D01*
X751650Y661050D01*
X751650Y661762D02*
X739400Y661762D01*
X739400Y662474D02*
X751650Y662474D01*
X751650Y663186D02*
X739400Y663186D01*
X739400Y656050D02*
X751650Y656050D01*
X739400Y656050D02*
X739400Y658300D01*
X751650Y658300D01*
X751650Y656050D01*
X751650Y656762D02*
X739400Y656762D01*
X739400Y657474D02*
X751650Y657474D01*
X751650Y658186D02*
X739400Y658186D01*
X739400Y651050D02*
X751650Y651050D01*
X739400Y651050D02*
X739400Y653300D01*
X751650Y653300D01*
X751650Y651050D01*
X751650Y651762D02*
X739400Y651762D01*
X739400Y652474D02*
X751650Y652474D01*
X751650Y653186D02*
X739400Y653186D01*
X739400Y646050D02*
X751650Y646050D01*
X739400Y646050D02*
X739400Y648300D01*
X751650Y648300D01*
X751650Y646050D01*
X751650Y646762D02*
X739400Y646762D01*
X739400Y647474D02*
X751650Y647474D01*
X751650Y648186D02*
X739400Y648186D01*
X739400Y641050D02*
X751650Y641050D01*
X739400Y641050D02*
X739400Y643300D01*
X751650Y643300D01*
X751650Y641050D01*
X751650Y641762D02*
X739400Y641762D01*
X739400Y642474D02*
X751650Y642474D01*
X751650Y643186D02*
X739400Y643186D01*
X739400Y636050D02*
X751650Y636050D01*
X739400Y636050D02*
X739400Y638300D01*
X751650Y638300D01*
X751650Y636050D01*
X751650Y636762D02*
X739400Y636762D01*
X739400Y637474D02*
X751650Y637474D01*
X751650Y638186D02*
X739400Y638186D01*
X739400Y631050D02*
X751650Y631050D01*
X739400Y631050D02*
X739400Y633300D01*
X751650Y633300D01*
X751650Y631050D01*
X751650Y631762D02*
X739400Y631762D01*
X739400Y632474D02*
X751650Y632474D01*
X751650Y633186D02*
X739400Y633186D01*
X739400Y626050D02*
X751650Y626050D01*
X739400Y626050D02*
X739400Y628300D01*
X751650Y628300D01*
X751650Y626050D01*
X751650Y626762D02*
X739400Y626762D01*
X739400Y627474D02*
X751650Y627474D01*
X751650Y628186D02*
X739400Y628186D01*
X739400Y621050D02*
X751650Y621050D01*
X739400Y621050D02*
X739400Y623300D01*
X751650Y623300D01*
X751650Y621050D01*
X751650Y621762D02*
X739400Y621762D01*
X739400Y622474D02*
X751650Y622474D01*
X751650Y623186D02*
X739400Y623186D01*
X739400Y616050D02*
X751650Y616050D01*
X739400Y616050D02*
X739400Y618300D01*
X751650Y618300D01*
X751650Y616050D01*
X751650Y616762D02*
X739400Y616762D01*
X739400Y617474D02*
X751650Y617474D01*
X751650Y618186D02*
X739400Y618186D01*
X739400Y611050D02*
X751650Y611050D01*
X739400Y611050D02*
X739400Y613300D01*
X751650Y613300D01*
X751650Y611050D01*
X751650Y611762D02*
X739400Y611762D01*
X739400Y612474D02*
X751650Y612474D01*
X751650Y613186D02*
X739400Y613186D01*
X739400Y606050D02*
X751650Y606050D01*
X739400Y606050D02*
X739400Y608300D01*
X751650Y608300D01*
X751650Y606050D01*
X751650Y606762D02*
X739400Y606762D01*
X739400Y607474D02*
X751650Y607474D01*
X751650Y608186D02*
X739400Y608186D01*
X739400Y601050D02*
X751650Y601050D01*
X739400Y601050D02*
X739400Y603300D01*
X751650Y603300D01*
X751650Y601050D01*
X751650Y601762D02*
X739400Y601762D01*
X739400Y602474D02*
X751650Y602474D01*
X751650Y603186D02*
X739400Y603186D01*
X739400Y596050D02*
X751650Y596050D01*
X739400Y596050D02*
X739400Y598300D01*
X751650Y598300D01*
X751650Y596050D01*
X751650Y596762D02*
X739400Y596762D01*
X739400Y597474D02*
X751650Y597474D01*
X751650Y598186D02*
X739400Y598186D01*
X739400Y591050D02*
X751650Y591050D01*
X739400Y591050D02*
X739400Y593300D01*
X751650Y593300D01*
X751650Y591050D01*
X751650Y591762D02*
X739400Y591762D01*
X739400Y592474D02*
X751650Y592474D01*
X751650Y593186D02*
X739400Y593186D01*
X739400Y586050D02*
X751650Y586050D01*
X739400Y586050D02*
X739400Y588300D01*
X751650Y588300D01*
X751650Y586050D01*
X751650Y586762D02*
X739400Y586762D01*
X739400Y587474D02*
X751650Y587474D01*
X751650Y588186D02*
X739400Y588186D01*
X739400Y581050D02*
X751650Y581050D01*
X739400Y581050D02*
X739400Y583300D01*
X751650Y583300D01*
X751650Y581050D01*
X751650Y581762D02*
X739400Y581762D01*
X739400Y582474D02*
X751650Y582474D01*
X751650Y583186D02*
X739400Y583186D01*
X739400Y576050D02*
X751650Y576050D01*
X739400Y576050D02*
X739400Y578300D01*
X751650Y578300D01*
X751650Y576050D01*
X751650Y576762D02*
X739400Y576762D01*
X739400Y577474D02*
X751650Y577474D01*
X751650Y578186D02*
X739400Y578186D01*
X739400Y571050D02*
X751650Y571050D01*
X739400Y571050D02*
X739400Y573300D01*
X751650Y573300D01*
X751650Y571050D01*
X751650Y571762D02*
X739400Y571762D01*
X739400Y572474D02*
X751650Y572474D01*
X751650Y573186D02*
X739400Y573186D01*
X739400Y566050D02*
X751650Y566050D01*
X739400Y566050D02*
X739400Y568300D01*
X751650Y568300D01*
X751650Y566050D01*
X751650Y566762D02*
X739400Y566762D01*
X739400Y567474D02*
X751650Y567474D01*
X751650Y568186D02*
X739400Y568186D01*
X739400Y561050D02*
X751650Y561050D01*
X739400Y561050D02*
X739400Y563300D01*
X751650Y563300D01*
X751650Y561050D01*
X751650Y561762D02*
X739400Y561762D01*
X739400Y562474D02*
X751650Y562474D01*
X751650Y563186D02*
X739400Y563186D01*
X739400Y556050D02*
X751650Y556050D01*
X739400Y556050D02*
X739400Y558300D01*
X751650Y558300D01*
X751650Y556050D01*
X751650Y556762D02*
X739400Y556762D01*
X739400Y557474D02*
X751650Y557474D01*
X751650Y558186D02*
X739400Y558186D01*
X739400Y551050D02*
X751650Y551050D01*
X739400Y551050D02*
X739400Y553300D01*
X751650Y553300D01*
X751650Y551050D01*
X751650Y551762D02*
X739400Y551762D01*
X739400Y552474D02*
X751650Y552474D01*
X751650Y553186D02*
X739400Y553186D01*
X739400Y546050D02*
X751650Y546050D01*
X739400Y546050D02*
X739400Y548300D01*
X751650Y548300D01*
X751650Y546050D01*
X751650Y546762D02*
X739400Y546762D01*
X739400Y547474D02*
X751650Y547474D01*
X751650Y548186D02*
X739400Y548186D01*
X739400Y541050D02*
X751650Y541050D01*
X739400Y541050D02*
X739400Y543300D01*
X751650Y543300D01*
X751650Y541050D01*
X751650Y541762D02*
X739400Y541762D01*
X739400Y542474D02*
X751650Y542474D01*
X751650Y543186D02*
X739400Y543186D01*
X739400Y536050D02*
X751650Y536050D01*
X739400Y536050D02*
X739400Y538300D01*
X751650Y538300D01*
X751650Y536050D01*
X751650Y536762D02*
X739400Y536762D01*
X739400Y537474D02*
X751650Y537474D01*
X751650Y538186D02*
X739400Y538186D01*
X739400Y531050D02*
X751650Y531050D01*
X739400Y531050D02*
X739400Y533300D01*
X751650Y533300D01*
X751650Y531050D01*
X751650Y531762D02*
X739400Y531762D01*
X739400Y532474D02*
X751650Y532474D01*
X751650Y533186D02*
X739400Y533186D01*
X739400Y526050D02*
X751650Y526050D01*
X739400Y526050D02*
X739400Y528300D01*
X751650Y528300D01*
X751650Y526050D01*
X751650Y526762D02*
X739400Y526762D01*
X739400Y527474D02*
X751650Y527474D01*
X751650Y528186D02*
X739400Y528186D01*
X739400Y521050D02*
X751650Y521050D01*
X739400Y521050D02*
X739400Y523300D01*
X751650Y523300D01*
X751650Y521050D01*
X751650Y521762D02*
X739400Y521762D01*
X739400Y522474D02*
X751650Y522474D01*
X751650Y523186D02*
X739400Y523186D01*
X739400Y516050D02*
X751650Y516050D01*
X739400Y516050D02*
X739400Y518300D01*
X751650Y518300D01*
X751650Y516050D01*
X751650Y516762D02*
X739400Y516762D01*
X739400Y517474D02*
X751650Y517474D01*
X751650Y518186D02*
X739400Y518186D01*
X739400Y511050D02*
X751650Y511050D01*
X739400Y511050D02*
X739400Y513300D01*
X751650Y513300D01*
X751650Y511050D01*
X751650Y511762D02*
X739400Y511762D01*
X739400Y512474D02*
X751650Y512474D01*
X751650Y513186D02*
X739400Y513186D01*
X739400Y506050D02*
X751650Y506050D01*
X739400Y506050D02*
X739400Y508300D01*
X751650Y508300D01*
X751650Y506050D01*
X751650Y506762D02*
X739400Y506762D01*
X739400Y507474D02*
X751650Y507474D01*
X751650Y508186D02*
X739400Y508186D01*
X739400Y501050D02*
X751650Y501050D01*
X739400Y501050D02*
X739400Y503300D01*
X751650Y503300D01*
X751650Y501050D01*
X751650Y501762D02*
X739400Y501762D01*
X739400Y502474D02*
X751650Y502474D01*
X751650Y503186D02*
X739400Y503186D01*
X739400Y496050D02*
X751650Y496050D01*
X739400Y496050D02*
X739400Y498300D01*
X751650Y498300D01*
X751650Y496050D01*
X751650Y496762D02*
X739400Y496762D01*
X739400Y497474D02*
X751650Y497474D01*
X751650Y498186D02*
X739400Y498186D01*
X739400Y491050D02*
X751650Y491050D01*
X739400Y491050D02*
X739400Y493300D01*
X751650Y493300D01*
X751650Y491050D01*
X751650Y491762D02*
X739400Y491762D01*
X739400Y492474D02*
X751650Y492474D01*
X751650Y493186D02*
X739400Y493186D01*
X739400Y486050D02*
X751650Y486050D01*
X739400Y486050D02*
X739400Y488300D01*
X751650Y488300D01*
X751650Y486050D01*
X751650Y486762D02*
X739400Y486762D01*
X739400Y487474D02*
X751650Y487474D01*
X751650Y488186D02*
X739400Y488186D01*
X739400Y481050D02*
X751650Y481050D01*
X739400Y481050D02*
X739400Y483300D01*
X751650Y483300D01*
X751650Y481050D01*
X751650Y481762D02*
X739400Y481762D01*
X739400Y482474D02*
X751650Y482474D01*
X751650Y483186D02*
X739400Y483186D01*
X739400Y476050D02*
X751650Y476050D01*
X739400Y476050D02*
X739400Y478300D01*
X751650Y478300D01*
X751650Y476050D01*
X751650Y476762D02*
X739400Y476762D01*
X739400Y477474D02*
X751650Y477474D01*
X751650Y478186D02*
X739400Y478186D01*
X739400Y471050D02*
X751650Y471050D01*
X739400Y471050D02*
X739400Y473300D01*
X751650Y473300D01*
X751650Y471050D01*
X751650Y471762D02*
X739400Y471762D01*
X739400Y472474D02*
X751650Y472474D01*
X751650Y473186D02*
X739400Y473186D01*
X739400Y466050D02*
X751650Y466050D01*
X739400Y466050D02*
X739400Y468300D01*
X751650Y468300D01*
X751650Y466050D01*
X751650Y466762D02*
X739400Y466762D01*
X739400Y467474D02*
X751650Y467474D01*
X751650Y468186D02*
X739400Y468186D01*
X993000Y466050D02*
X1005250Y466050D01*
X993000Y466050D02*
X993000Y468300D01*
X1005250Y468300D01*
X1005250Y466050D01*
X1005250Y466762D02*
X993000Y466762D01*
X993000Y467474D02*
X1005250Y467474D01*
X1005250Y468186D02*
X993000Y468186D01*
X993000Y471050D02*
X1005250Y471050D01*
X993000Y471050D02*
X993000Y473300D01*
X1005250Y473300D01*
X1005250Y471050D01*
X1005250Y471762D02*
X993000Y471762D01*
X993000Y472474D02*
X1005250Y472474D01*
X1005250Y473186D02*
X993000Y473186D01*
X993000Y476050D02*
X1005250Y476050D01*
X993000Y476050D02*
X993000Y478300D01*
X1005250Y478300D01*
X1005250Y476050D01*
X1005250Y476762D02*
X993000Y476762D01*
X993000Y477474D02*
X1005250Y477474D01*
X1005250Y478186D02*
X993000Y478186D01*
X993000Y481050D02*
X1005250Y481050D01*
X993000Y481050D02*
X993000Y483300D01*
X1005250Y483300D01*
X1005250Y481050D01*
X1005250Y481762D02*
X993000Y481762D01*
X993000Y482474D02*
X1005250Y482474D01*
X1005250Y483186D02*
X993000Y483186D01*
X993000Y486050D02*
X1005250Y486050D01*
X993000Y486050D02*
X993000Y488300D01*
X1005250Y488300D01*
X1005250Y486050D01*
X1005250Y486762D02*
X993000Y486762D01*
X993000Y487474D02*
X1005250Y487474D01*
X1005250Y488186D02*
X993000Y488186D01*
X993000Y491050D02*
X1005250Y491050D01*
X993000Y491050D02*
X993000Y493300D01*
X1005250Y493300D01*
X1005250Y491050D01*
X1005250Y491762D02*
X993000Y491762D01*
X993000Y492474D02*
X1005250Y492474D01*
X1005250Y493186D02*
X993000Y493186D01*
X993000Y496050D02*
X1005250Y496050D01*
X993000Y496050D02*
X993000Y498300D01*
X1005250Y498300D01*
X1005250Y496050D01*
X1005250Y496762D02*
X993000Y496762D01*
X993000Y497474D02*
X1005250Y497474D01*
X1005250Y498186D02*
X993000Y498186D01*
X993000Y501050D02*
X1005250Y501050D01*
X993000Y501050D02*
X993000Y503300D01*
X1005250Y503300D01*
X1005250Y501050D01*
X1005250Y501762D02*
X993000Y501762D01*
X993000Y502474D02*
X1005250Y502474D01*
X1005250Y503186D02*
X993000Y503186D01*
X993000Y506050D02*
X1005250Y506050D01*
X993000Y506050D02*
X993000Y508300D01*
X1005250Y508300D01*
X1005250Y506050D01*
X1005250Y506762D02*
X993000Y506762D01*
X993000Y507474D02*
X1005250Y507474D01*
X1005250Y508186D02*
X993000Y508186D01*
X993000Y511050D02*
X1005250Y511050D01*
X993000Y511050D02*
X993000Y513300D01*
X1005250Y513300D01*
X1005250Y511050D01*
X1005250Y511762D02*
X993000Y511762D01*
X993000Y512474D02*
X1005250Y512474D01*
X1005250Y513186D02*
X993000Y513186D01*
X993000Y516050D02*
X1005250Y516050D01*
X993000Y516050D02*
X993000Y518300D01*
X1005250Y518300D01*
X1005250Y516050D01*
X1005250Y516762D02*
X993000Y516762D01*
X993000Y517474D02*
X1005250Y517474D01*
X1005250Y518186D02*
X993000Y518186D01*
X993000Y521050D02*
X1005250Y521050D01*
X993000Y521050D02*
X993000Y523300D01*
X1005250Y523300D01*
X1005250Y521050D01*
X1005250Y521762D02*
X993000Y521762D01*
X993000Y522474D02*
X1005250Y522474D01*
X1005250Y523186D02*
X993000Y523186D01*
X993000Y526050D02*
X1005250Y526050D01*
X993000Y526050D02*
X993000Y528300D01*
X1005250Y528300D01*
X1005250Y526050D01*
X1005250Y526762D02*
X993000Y526762D01*
X993000Y527474D02*
X1005250Y527474D01*
X1005250Y528186D02*
X993000Y528186D01*
X993000Y531050D02*
X1005250Y531050D01*
X993000Y531050D02*
X993000Y533300D01*
X1005250Y533300D01*
X1005250Y531050D01*
X1005250Y531762D02*
X993000Y531762D01*
X993000Y532474D02*
X1005250Y532474D01*
X1005250Y533186D02*
X993000Y533186D01*
X993000Y536050D02*
X1005250Y536050D01*
X993000Y536050D02*
X993000Y538300D01*
X1005250Y538300D01*
X1005250Y536050D01*
X1005250Y536762D02*
X993000Y536762D01*
X993000Y537474D02*
X1005250Y537474D01*
X1005250Y538186D02*
X993000Y538186D01*
X993000Y541050D02*
X1005250Y541050D01*
X993000Y541050D02*
X993000Y543300D01*
X1005250Y543300D01*
X1005250Y541050D01*
X1005250Y541762D02*
X993000Y541762D01*
X993000Y542474D02*
X1005250Y542474D01*
X1005250Y543186D02*
X993000Y543186D01*
X993000Y546050D02*
X1005250Y546050D01*
X993000Y546050D02*
X993000Y548300D01*
X1005250Y548300D01*
X1005250Y546050D01*
X1005250Y546762D02*
X993000Y546762D01*
X993000Y547474D02*
X1005250Y547474D01*
X1005250Y548186D02*
X993000Y548186D01*
X993000Y551050D02*
X1005250Y551050D01*
X993000Y551050D02*
X993000Y553300D01*
X1005250Y553300D01*
X1005250Y551050D01*
X1005250Y551762D02*
X993000Y551762D01*
X993000Y552474D02*
X1005250Y552474D01*
X1005250Y553186D02*
X993000Y553186D01*
X993000Y556050D02*
X1005250Y556050D01*
X993000Y556050D02*
X993000Y558300D01*
X1005250Y558300D01*
X1005250Y556050D01*
X1005250Y556762D02*
X993000Y556762D01*
X993000Y557474D02*
X1005250Y557474D01*
X1005250Y558186D02*
X993000Y558186D01*
X993000Y561050D02*
X1005250Y561050D01*
X993000Y561050D02*
X993000Y563300D01*
X1005250Y563300D01*
X1005250Y561050D01*
X1005250Y561762D02*
X993000Y561762D01*
X993000Y562474D02*
X1005250Y562474D01*
X1005250Y563186D02*
X993000Y563186D01*
X993000Y566050D02*
X1005250Y566050D01*
X993000Y566050D02*
X993000Y568300D01*
X1005250Y568300D01*
X1005250Y566050D01*
X1005250Y566762D02*
X993000Y566762D01*
X993000Y567474D02*
X1005250Y567474D01*
X1005250Y568186D02*
X993000Y568186D01*
X993000Y571050D02*
X1005250Y571050D01*
X993000Y571050D02*
X993000Y573300D01*
X1005250Y573300D01*
X1005250Y571050D01*
X1005250Y571762D02*
X993000Y571762D01*
X993000Y572474D02*
X1005250Y572474D01*
X1005250Y573186D02*
X993000Y573186D01*
X993000Y576050D02*
X1005250Y576050D01*
X993000Y576050D02*
X993000Y578300D01*
X1005250Y578300D01*
X1005250Y576050D01*
X1005250Y576762D02*
X993000Y576762D01*
X993000Y577474D02*
X1005250Y577474D01*
X1005250Y578186D02*
X993000Y578186D01*
X993000Y581050D02*
X1005250Y581050D01*
X993000Y581050D02*
X993000Y583300D01*
X1005250Y583300D01*
X1005250Y581050D01*
X1005250Y581762D02*
X993000Y581762D01*
X993000Y582474D02*
X1005250Y582474D01*
X1005250Y583186D02*
X993000Y583186D01*
X993000Y586050D02*
X1005250Y586050D01*
X993000Y586050D02*
X993000Y588300D01*
X1005250Y588300D01*
X1005250Y586050D01*
X1005250Y586762D02*
X993000Y586762D01*
X993000Y587474D02*
X1005250Y587474D01*
X1005250Y588186D02*
X993000Y588186D01*
X993000Y591050D02*
X1005250Y591050D01*
X993000Y591050D02*
X993000Y593300D01*
X1005250Y593300D01*
X1005250Y591050D01*
X1005250Y591762D02*
X993000Y591762D01*
X993000Y592474D02*
X1005250Y592474D01*
X1005250Y593186D02*
X993000Y593186D01*
X993000Y596050D02*
X1005250Y596050D01*
X993000Y596050D02*
X993000Y598300D01*
X1005250Y598300D01*
X1005250Y596050D01*
X1005250Y596762D02*
X993000Y596762D01*
X993000Y597474D02*
X1005250Y597474D01*
X1005250Y598186D02*
X993000Y598186D01*
X993000Y601050D02*
X1005250Y601050D01*
X993000Y601050D02*
X993000Y603300D01*
X1005250Y603300D01*
X1005250Y601050D01*
X1005250Y601762D02*
X993000Y601762D01*
X993000Y602474D02*
X1005250Y602474D01*
X1005250Y603186D02*
X993000Y603186D01*
X993000Y606050D02*
X1005250Y606050D01*
X993000Y606050D02*
X993000Y608300D01*
X1005250Y608300D01*
X1005250Y606050D01*
X1005250Y606762D02*
X993000Y606762D01*
X993000Y607474D02*
X1005250Y607474D01*
X1005250Y608186D02*
X993000Y608186D01*
X993000Y611050D02*
X1005250Y611050D01*
X993000Y611050D02*
X993000Y613300D01*
X1005250Y613300D01*
X1005250Y611050D01*
X1005250Y611762D02*
X993000Y611762D01*
X993000Y612474D02*
X1005250Y612474D01*
X1005250Y613186D02*
X993000Y613186D01*
X993000Y616050D02*
X1005250Y616050D01*
X993000Y616050D02*
X993000Y618300D01*
X1005250Y618300D01*
X1005250Y616050D01*
X1005250Y616762D02*
X993000Y616762D01*
X993000Y617474D02*
X1005250Y617474D01*
X1005250Y618186D02*
X993000Y618186D01*
X993000Y621050D02*
X1005250Y621050D01*
X993000Y621050D02*
X993000Y623300D01*
X1005250Y623300D01*
X1005250Y621050D01*
X1005250Y621762D02*
X993000Y621762D01*
X993000Y622474D02*
X1005250Y622474D01*
X1005250Y623186D02*
X993000Y623186D01*
X993000Y626050D02*
X1005250Y626050D01*
X993000Y626050D02*
X993000Y628300D01*
X1005250Y628300D01*
X1005250Y626050D01*
X1005250Y626762D02*
X993000Y626762D01*
X993000Y627474D02*
X1005250Y627474D01*
X1005250Y628186D02*
X993000Y628186D01*
X993000Y631050D02*
X1005250Y631050D01*
X993000Y631050D02*
X993000Y633300D01*
X1005250Y633300D01*
X1005250Y631050D01*
X1005250Y631762D02*
X993000Y631762D01*
X993000Y632474D02*
X1005250Y632474D01*
X1005250Y633186D02*
X993000Y633186D01*
X993000Y636050D02*
X1005250Y636050D01*
X993000Y636050D02*
X993000Y638300D01*
X1005250Y638300D01*
X1005250Y636050D01*
X1005250Y636762D02*
X993000Y636762D01*
X993000Y637474D02*
X1005250Y637474D01*
X1005250Y638186D02*
X993000Y638186D01*
X993000Y641050D02*
X1005250Y641050D01*
X993000Y641050D02*
X993000Y643300D01*
X1005250Y643300D01*
X1005250Y641050D01*
X1005250Y641762D02*
X993000Y641762D01*
X993000Y642474D02*
X1005250Y642474D01*
X1005250Y643186D02*
X993000Y643186D01*
X993000Y646050D02*
X1005250Y646050D01*
X993000Y646050D02*
X993000Y648300D01*
X1005250Y648300D01*
X1005250Y646050D01*
X1005250Y646762D02*
X993000Y646762D01*
X993000Y647474D02*
X1005250Y647474D01*
X1005250Y648186D02*
X993000Y648186D01*
X993000Y651050D02*
X1005250Y651050D01*
X993000Y651050D02*
X993000Y653300D01*
X1005250Y653300D01*
X1005250Y651050D01*
X1005250Y651762D02*
X993000Y651762D01*
X993000Y652474D02*
X1005250Y652474D01*
X1005250Y653186D02*
X993000Y653186D01*
X993000Y656050D02*
X1005250Y656050D01*
X993000Y656050D02*
X993000Y658300D01*
X1005250Y658300D01*
X1005250Y656050D01*
X1005250Y656762D02*
X993000Y656762D01*
X993000Y657474D02*
X1005250Y657474D01*
X1005250Y658186D02*
X993000Y658186D01*
X993000Y661050D02*
X1005250Y661050D01*
X993000Y661050D02*
X993000Y663300D01*
X1005250Y663300D01*
X1005250Y661050D01*
X1005250Y661762D02*
X993000Y661762D01*
X993000Y662474D02*
X1005250Y662474D01*
X1005250Y663186D02*
X993000Y663186D01*
X993000Y666050D02*
X1005250Y666050D01*
X993000Y666050D02*
X993000Y668300D01*
X1005250Y668300D01*
X1005250Y666050D01*
X1005250Y666762D02*
X993000Y666762D01*
X993000Y667474D02*
X1005250Y667474D01*
X1005250Y668186D02*
X993000Y668186D01*
X993000Y671050D02*
X1005250Y671050D01*
X993000Y671050D02*
X993000Y673300D01*
X1005250Y673300D01*
X1005250Y671050D01*
X1005250Y671762D02*
X993000Y671762D01*
X993000Y672474D02*
X1005250Y672474D01*
X1005250Y673186D02*
X993000Y673186D01*
X993000Y676050D02*
X1005250Y676050D01*
X993000Y676050D02*
X993000Y678300D01*
X1005250Y678300D01*
X1005250Y676050D01*
X1005250Y676762D02*
X993000Y676762D01*
X993000Y677474D02*
X1005250Y677474D01*
X1005250Y678186D02*
X993000Y678186D01*
X993000Y681050D02*
X1005250Y681050D01*
X993000Y681050D02*
X993000Y683300D01*
X1005250Y683300D01*
X1005250Y681050D01*
X1005250Y681762D02*
X993000Y681762D01*
X993000Y682474D02*
X1005250Y682474D01*
X1005250Y683186D02*
X993000Y683186D01*
D35*
X638395Y151125D03*
X538855Y176525D03*
X638395Y138425D03*
X638395Y163825D03*
X638395Y176525D03*
X538855Y163825D03*
X538855Y189225D03*
X538855Y201925D03*
X638395Y201925D03*
X538855Y227325D03*
X638395Y189225D03*
X638395Y214625D03*
X538855Y214625D03*
X638395Y227325D03*
X538855Y151125D03*
X538855Y138425D03*
D10*
X670050Y155400D03*
X670050Y172900D03*
D13*
X1040450Y642025D03*
X1060450Y642025D03*
D12*
X946825Y407350D03*
X946825Y387350D03*
D36*
X353700Y732300D03*
X341000Y777300D03*
X328300Y732300D03*
X315600Y777300D03*
X302900Y732300D03*
X290200Y777300D03*
X277500Y732300D03*
X264800Y777300D03*
D37*
X1172200Y1028750D03*
X1172200Y939750D03*
D38*
X1113200Y1028750D03*
X1113200Y939750D03*
D39*
X1112200Y968250D03*
X1112200Y976250D03*
X1112200Y984250D03*
X1112200Y992250D03*
X1112200Y1000250D03*
D40*
X1068450Y1042300D02*
X1068450Y1052900D01*
X1071450Y1052900D01*
X1071450Y1042300D01*
X1068450Y1042300D01*
X1068450Y1045150D02*
X1071450Y1045150D01*
X1071450Y1048000D02*
X1068450Y1048000D01*
X1068450Y1050850D02*
X1071450Y1050850D01*
X1058950Y1052900D02*
X1058950Y1042300D01*
X1058950Y1052900D02*
X1061950Y1052900D01*
X1061950Y1042300D01*
X1058950Y1042300D01*
X1058950Y1045150D02*
X1061950Y1045150D01*
X1061950Y1048000D02*
X1058950Y1048000D01*
X1058950Y1050850D02*
X1061950Y1050850D01*
X1049450Y1052900D02*
X1049450Y1042300D01*
X1049450Y1052900D02*
X1052450Y1052900D01*
X1052450Y1042300D01*
X1049450Y1042300D01*
X1049450Y1045150D02*
X1052450Y1045150D01*
X1052450Y1048000D02*
X1049450Y1048000D01*
X1049450Y1050850D02*
X1052450Y1050850D01*
X1049450Y1029400D02*
X1049450Y1018800D01*
X1049450Y1029400D02*
X1052450Y1029400D01*
X1052450Y1018800D01*
X1049450Y1018800D01*
X1049450Y1021650D02*
X1052450Y1021650D01*
X1052450Y1024500D02*
X1049450Y1024500D01*
X1049450Y1027350D02*
X1052450Y1027350D01*
X1058950Y1029400D02*
X1058950Y1018800D01*
X1058950Y1029400D02*
X1061950Y1029400D01*
X1061950Y1018800D01*
X1058950Y1018800D01*
X1058950Y1021650D02*
X1061950Y1021650D01*
X1061950Y1024500D02*
X1058950Y1024500D01*
X1058950Y1027350D02*
X1061950Y1027350D01*
X1068450Y1029400D02*
X1068450Y1018800D01*
X1068450Y1029400D02*
X1071450Y1029400D01*
X1071450Y1018800D01*
X1068450Y1018800D01*
X1068450Y1021650D02*
X1071450Y1021650D01*
X1071450Y1024500D02*
X1068450Y1024500D01*
X1068450Y1027350D02*
X1071450Y1027350D01*
D19*
X1052750Y977900D03*
X1069750Y977900D03*
X1052750Y996950D03*
X1069750Y996950D03*
D11*
X685813Y508000D03*
X668313Y508000D03*
D41*
X413499Y911001D03*
D42*
X413499Y898397D03*
D43*
X426108Y898392D03*
D44*
X426102Y911000D03*
D45*
X434941Y893409D02*
X443359Y893409D01*
X443359Y890991D01*
X434941Y890991D01*
X434941Y893409D01*
X434941Y891164D02*
X443359Y891164D01*
X443359Y891337D02*
X434941Y891337D01*
X434941Y891510D02*
X443359Y891510D01*
X443359Y891683D02*
X434941Y891683D01*
X434941Y891856D02*
X443359Y891856D01*
X443359Y892029D02*
X434941Y892029D01*
X434941Y892202D02*
X443359Y892202D01*
X443359Y892375D02*
X434941Y892375D01*
X434941Y892548D02*
X443359Y892548D01*
X443359Y892721D02*
X434941Y892721D01*
X434941Y892894D02*
X443359Y892894D01*
X443359Y893067D02*
X434941Y893067D01*
X434941Y893240D02*
X443359Y893240D01*
X443359Y898409D02*
X434941Y898409D01*
X443359Y898409D02*
X443359Y895991D01*
X434941Y895991D01*
X434941Y898409D01*
X434941Y896164D02*
X443359Y896164D01*
X443359Y896337D02*
X434941Y896337D01*
X434941Y896510D02*
X443359Y896510D01*
X443359Y896683D02*
X434941Y896683D01*
X434941Y896856D02*
X443359Y896856D01*
X443359Y897029D02*
X434941Y897029D01*
X434941Y897202D02*
X443359Y897202D01*
X443359Y897375D02*
X434941Y897375D01*
X434941Y897548D02*
X443359Y897548D01*
X443359Y897721D02*
X434941Y897721D01*
X434941Y897894D02*
X443359Y897894D01*
X443359Y898067D02*
X434941Y898067D01*
X434941Y898240D02*
X443359Y898240D01*
X443359Y903409D02*
X434941Y903409D01*
X443359Y903409D02*
X443359Y900991D01*
X434941Y900991D01*
X434941Y903409D01*
X434941Y901164D02*
X443359Y901164D01*
X443359Y901337D02*
X434941Y901337D01*
X434941Y901510D02*
X443359Y901510D01*
X443359Y901683D02*
X434941Y901683D01*
X434941Y901856D02*
X443359Y901856D01*
X443359Y902029D02*
X434941Y902029D01*
X434941Y902202D02*
X443359Y902202D01*
X443359Y902375D02*
X434941Y902375D01*
X434941Y902548D02*
X443359Y902548D01*
X443359Y902721D02*
X434941Y902721D01*
X434941Y902894D02*
X443359Y902894D01*
X443359Y903067D02*
X434941Y903067D01*
X434941Y903240D02*
X443359Y903240D01*
X443359Y908409D02*
X434941Y908409D01*
X443359Y908409D02*
X443359Y905991D01*
X434941Y905991D01*
X434941Y908409D01*
X434941Y906164D02*
X443359Y906164D01*
X443359Y906337D02*
X434941Y906337D01*
X434941Y906510D02*
X443359Y906510D01*
X443359Y906683D02*
X434941Y906683D01*
X434941Y906856D02*
X443359Y906856D01*
X443359Y907029D02*
X434941Y907029D01*
X434941Y907202D02*
X443359Y907202D01*
X443359Y907375D02*
X434941Y907375D01*
X434941Y907548D02*
X443359Y907548D01*
X443359Y907721D02*
X434941Y907721D01*
X434941Y907894D02*
X443359Y907894D01*
X443359Y908067D02*
X434941Y908067D01*
X434941Y908240D02*
X443359Y908240D01*
X443359Y913409D02*
X434941Y913409D01*
X443359Y913409D02*
X443359Y910991D01*
X434941Y910991D01*
X434941Y913409D01*
X434941Y911164D02*
X443359Y911164D01*
X443359Y911337D02*
X434941Y911337D01*
X434941Y911510D02*
X443359Y911510D01*
X443359Y911683D02*
X434941Y911683D01*
X434941Y911856D02*
X443359Y911856D01*
X443359Y912029D02*
X434941Y912029D01*
X434941Y912202D02*
X443359Y912202D01*
X443359Y912375D02*
X434941Y912375D01*
X434941Y912548D02*
X443359Y912548D01*
X443359Y912721D02*
X434941Y912721D01*
X434941Y912894D02*
X443359Y912894D01*
X443359Y913067D02*
X434941Y913067D01*
X434941Y913240D02*
X443359Y913240D01*
X443359Y918409D02*
X434941Y918409D01*
X443359Y918409D02*
X443359Y915991D01*
X434941Y915991D01*
X434941Y918409D01*
X434941Y916164D02*
X443359Y916164D01*
X443359Y916337D02*
X434941Y916337D01*
X434941Y916510D02*
X443359Y916510D01*
X443359Y916683D02*
X434941Y916683D01*
X434941Y916856D02*
X443359Y916856D01*
X443359Y917029D02*
X434941Y917029D01*
X434941Y917202D02*
X443359Y917202D01*
X443359Y917375D02*
X434941Y917375D01*
X434941Y917548D02*
X443359Y917548D01*
X443359Y917721D02*
X434941Y917721D01*
X434941Y917894D02*
X443359Y917894D01*
X443359Y918067D02*
X434941Y918067D01*
X434941Y918240D02*
X443359Y918240D01*
X404659Y918409D02*
X396241Y918409D01*
X404659Y918409D02*
X404659Y915991D01*
X396241Y915991D01*
X396241Y918409D01*
X396241Y916164D02*
X404659Y916164D01*
X404659Y916337D02*
X396241Y916337D01*
X396241Y916510D02*
X404659Y916510D01*
X404659Y916683D02*
X396241Y916683D01*
X396241Y916856D02*
X404659Y916856D01*
X404659Y917029D02*
X396241Y917029D01*
X396241Y917202D02*
X404659Y917202D01*
X404659Y917375D02*
X396241Y917375D01*
X396241Y917548D02*
X404659Y917548D01*
X404659Y917721D02*
X396241Y917721D01*
X396241Y917894D02*
X404659Y917894D01*
X404659Y918067D02*
X396241Y918067D01*
X396241Y918240D02*
X404659Y918240D01*
X404659Y913409D02*
X396241Y913409D01*
X404659Y913409D02*
X404659Y910991D01*
X396241Y910991D01*
X396241Y913409D01*
X396241Y911164D02*
X404659Y911164D01*
X404659Y911337D02*
X396241Y911337D01*
X396241Y911510D02*
X404659Y911510D01*
X404659Y911683D02*
X396241Y911683D01*
X396241Y911856D02*
X404659Y911856D01*
X404659Y912029D02*
X396241Y912029D01*
X396241Y912202D02*
X404659Y912202D01*
X404659Y912375D02*
X396241Y912375D01*
X396241Y912548D02*
X404659Y912548D01*
X404659Y912721D02*
X396241Y912721D01*
X396241Y912894D02*
X404659Y912894D01*
X404659Y913067D02*
X396241Y913067D01*
X396241Y913240D02*
X404659Y913240D01*
X404659Y908409D02*
X396241Y908409D01*
X404659Y908409D02*
X404659Y905991D01*
X396241Y905991D01*
X396241Y908409D01*
X396241Y906164D02*
X404659Y906164D01*
X404659Y906337D02*
X396241Y906337D01*
X396241Y906510D02*
X404659Y906510D01*
X404659Y906683D02*
X396241Y906683D01*
X396241Y906856D02*
X404659Y906856D01*
X404659Y907029D02*
X396241Y907029D01*
X396241Y907202D02*
X404659Y907202D01*
X404659Y907375D02*
X396241Y907375D01*
X396241Y907548D02*
X404659Y907548D01*
X404659Y907721D02*
X396241Y907721D01*
X396241Y907894D02*
X404659Y907894D01*
X404659Y908067D02*
X396241Y908067D01*
X396241Y908240D02*
X404659Y908240D01*
X404659Y903409D02*
X396241Y903409D01*
X404659Y903409D02*
X404659Y900991D01*
X396241Y900991D01*
X396241Y903409D01*
X396241Y901164D02*
X404659Y901164D01*
X404659Y901337D02*
X396241Y901337D01*
X396241Y901510D02*
X404659Y901510D01*
X404659Y901683D02*
X396241Y901683D01*
X396241Y901856D02*
X404659Y901856D01*
X404659Y902029D02*
X396241Y902029D01*
X396241Y902202D02*
X404659Y902202D01*
X404659Y902375D02*
X396241Y902375D01*
X396241Y902548D02*
X404659Y902548D01*
X404659Y902721D02*
X396241Y902721D01*
X396241Y902894D02*
X404659Y902894D01*
X404659Y903067D02*
X396241Y903067D01*
X396241Y903240D02*
X404659Y903240D01*
X404659Y898409D02*
X396241Y898409D01*
X404659Y898409D02*
X404659Y895991D01*
X396241Y895991D01*
X396241Y898409D01*
X396241Y896164D02*
X404659Y896164D01*
X404659Y896337D02*
X396241Y896337D01*
X396241Y896510D02*
X404659Y896510D01*
X404659Y896683D02*
X396241Y896683D01*
X396241Y896856D02*
X404659Y896856D01*
X404659Y897029D02*
X396241Y897029D01*
X396241Y897202D02*
X404659Y897202D01*
X404659Y897375D02*
X396241Y897375D01*
X396241Y897548D02*
X404659Y897548D01*
X404659Y897721D02*
X396241Y897721D01*
X396241Y897894D02*
X404659Y897894D01*
X404659Y898067D02*
X396241Y898067D01*
X396241Y898240D02*
X404659Y898240D01*
X404659Y893409D02*
X396241Y893409D01*
X404659Y893409D02*
X404659Y890991D01*
X396241Y890991D01*
X396241Y893409D01*
X396241Y891164D02*
X404659Y891164D01*
X404659Y891337D02*
X396241Y891337D01*
X396241Y891510D02*
X404659Y891510D01*
X404659Y891683D02*
X396241Y891683D01*
X396241Y891856D02*
X404659Y891856D01*
X404659Y892029D02*
X396241Y892029D01*
X396241Y892202D02*
X404659Y892202D01*
X404659Y892375D02*
X396241Y892375D01*
X396241Y892548D02*
X404659Y892548D01*
X404659Y892721D02*
X396241Y892721D01*
X396241Y892894D02*
X404659Y892894D01*
X404659Y893067D02*
X396241Y893067D01*
X396241Y893240D02*
X404659Y893240D01*
X408509Y889559D02*
X408509Y881141D01*
X406091Y881141D01*
X406091Y889559D01*
X408509Y889559D01*
X408509Y881314D02*
X406091Y881314D01*
X406091Y881487D02*
X408509Y881487D01*
X408509Y881660D02*
X406091Y881660D01*
X406091Y881833D02*
X408509Y881833D01*
X408509Y882006D02*
X406091Y882006D01*
X406091Y882179D02*
X408509Y882179D01*
X408509Y882352D02*
X406091Y882352D01*
X406091Y882525D02*
X408509Y882525D01*
X408509Y882698D02*
X406091Y882698D01*
X406091Y882871D02*
X408509Y882871D01*
X408509Y883044D02*
X406091Y883044D01*
X406091Y883217D02*
X408509Y883217D01*
X408509Y883390D02*
X406091Y883390D01*
X406091Y883563D02*
X408509Y883563D01*
X408509Y883736D02*
X406091Y883736D01*
X406091Y883909D02*
X408509Y883909D01*
X408509Y884082D02*
X406091Y884082D01*
X406091Y884255D02*
X408509Y884255D01*
X408509Y884428D02*
X406091Y884428D01*
X406091Y884601D02*
X408509Y884601D01*
X408509Y884774D02*
X406091Y884774D01*
X406091Y884947D02*
X408509Y884947D01*
X408509Y885120D02*
X406091Y885120D01*
X406091Y885293D02*
X408509Y885293D01*
X408509Y885466D02*
X406091Y885466D01*
X406091Y885639D02*
X408509Y885639D01*
X408509Y885812D02*
X406091Y885812D01*
X406091Y885985D02*
X408509Y885985D01*
X408509Y886158D02*
X406091Y886158D01*
X406091Y886331D02*
X408509Y886331D01*
X408509Y886504D02*
X406091Y886504D01*
X406091Y886677D02*
X408509Y886677D01*
X408509Y886850D02*
X406091Y886850D01*
X406091Y887023D02*
X408509Y887023D01*
X408509Y887196D02*
X406091Y887196D01*
X406091Y887369D02*
X408509Y887369D01*
X408509Y887542D02*
X406091Y887542D01*
X406091Y887715D02*
X408509Y887715D01*
X408509Y887888D02*
X406091Y887888D01*
X406091Y888061D02*
X408509Y888061D01*
X408509Y888234D02*
X406091Y888234D01*
X406091Y888407D02*
X408509Y888407D01*
X408509Y888580D02*
X406091Y888580D01*
X406091Y888753D02*
X408509Y888753D01*
X408509Y888926D02*
X406091Y888926D01*
X406091Y889099D02*
X408509Y889099D01*
X408509Y889272D02*
X406091Y889272D01*
X406091Y889445D02*
X408509Y889445D01*
X413509Y889559D02*
X413509Y881141D01*
X411091Y881141D01*
X411091Y889559D01*
X413509Y889559D01*
X413509Y881314D02*
X411091Y881314D01*
X411091Y881487D02*
X413509Y881487D01*
X413509Y881660D02*
X411091Y881660D01*
X411091Y881833D02*
X413509Y881833D01*
X413509Y882006D02*
X411091Y882006D01*
X411091Y882179D02*
X413509Y882179D01*
X413509Y882352D02*
X411091Y882352D01*
X411091Y882525D02*
X413509Y882525D01*
X413509Y882698D02*
X411091Y882698D01*
X411091Y882871D02*
X413509Y882871D01*
X413509Y883044D02*
X411091Y883044D01*
X411091Y883217D02*
X413509Y883217D01*
X413509Y883390D02*
X411091Y883390D01*
X411091Y883563D02*
X413509Y883563D01*
X413509Y883736D02*
X411091Y883736D01*
X411091Y883909D02*
X413509Y883909D01*
X413509Y884082D02*
X411091Y884082D01*
X411091Y884255D02*
X413509Y884255D01*
X413509Y884428D02*
X411091Y884428D01*
X411091Y884601D02*
X413509Y884601D01*
X413509Y884774D02*
X411091Y884774D01*
X411091Y884947D02*
X413509Y884947D01*
X413509Y885120D02*
X411091Y885120D01*
X411091Y885293D02*
X413509Y885293D01*
X413509Y885466D02*
X411091Y885466D01*
X411091Y885639D02*
X413509Y885639D01*
X413509Y885812D02*
X411091Y885812D01*
X411091Y885985D02*
X413509Y885985D01*
X413509Y886158D02*
X411091Y886158D01*
X411091Y886331D02*
X413509Y886331D01*
X413509Y886504D02*
X411091Y886504D01*
X411091Y886677D02*
X413509Y886677D01*
X413509Y886850D02*
X411091Y886850D01*
X411091Y887023D02*
X413509Y887023D01*
X413509Y887196D02*
X411091Y887196D01*
X411091Y887369D02*
X413509Y887369D01*
X413509Y887542D02*
X411091Y887542D01*
X411091Y887715D02*
X413509Y887715D01*
X413509Y887888D02*
X411091Y887888D01*
X411091Y888061D02*
X413509Y888061D01*
X413509Y888234D02*
X411091Y888234D01*
X411091Y888407D02*
X413509Y888407D01*
X413509Y888580D02*
X411091Y888580D01*
X411091Y888753D02*
X413509Y888753D01*
X413509Y888926D02*
X411091Y888926D01*
X411091Y889099D02*
X413509Y889099D01*
X413509Y889272D02*
X411091Y889272D01*
X411091Y889445D02*
X413509Y889445D01*
X418509Y889559D02*
X418509Y881141D01*
X416091Y881141D01*
X416091Y889559D01*
X418509Y889559D01*
X418509Y881314D02*
X416091Y881314D01*
X416091Y881487D02*
X418509Y881487D01*
X418509Y881660D02*
X416091Y881660D01*
X416091Y881833D02*
X418509Y881833D01*
X418509Y882006D02*
X416091Y882006D01*
X416091Y882179D02*
X418509Y882179D01*
X418509Y882352D02*
X416091Y882352D01*
X416091Y882525D02*
X418509Y882525D01*
X418509Y882698D02*
X416091Y882698D01*
X416091Y882871D02*
X418509Y882871D01*
X418509Y883044D02*
X416091Y883044D01*
X416091Y883217D02*
X418509Y883217D01*
X418509Y883390D02*
X416091Y883390D01*
X416091Y883563D02*
X418509Y883563D01*
X418509Y883736D02*
X416091Y883736D01*
X416091Y883909D02*
X418509Y883909D01*
X418509Y884082D02*
X416091Y884082D01*
X416091Y884255D02*
X418509Y884255D01*
X418509Y884428D02*
X416091Y884428D01*
X416091Y884601D02*
X418509Y884601D01*
X418509Y884774D02*
X416091Y884774D01*
X416091Y884947D02*
X418509Y884947D01*
X418509Y885120D02*
X416091Y885120D01*
X416091Y885293D02*
X418509Y885293D01*
X418509Y885466D02*
X416091Y885466D01*
X416091Y885639D02*
X418509Y885639D01*
X418509Y885812D02*
X416091Y885812D01*
X416091Y885985D02*
X418509Y885985D01*
X418509Y886158D02*
X416091Y886158D01*
X416091Y886331D02*
X418509Y886331D01*
X418509Y886504D02*
X416091Y886504D01*
X416091Y886677D02*
X418509Y886677D01*
X418509Y886850D02*
X416091Y886850D01*
X416091Y887023D02*
X418509Y887023D01*
X418509Y887196D02*
X416091Y887196D01*
X416091Y887369D02*
X418509Y887369D01*
X418509Y887542D02*
X416091Y887542D01*
X416091Y887715D02*
X418509Y887715D01*
X418509Y887888D02*
X416091Y887888D01*
X416091Y888061D02*
X418509Y888061D01*
X418509Y888234D02*
X416091Y888234D01*
X416091Y888407D02*
X418509Y888407D01*
X418509Y888580D02*
X416091Y888580D01*
X416091Y888753D02*
X418509Y888753D01*
X418509Y888926D02*
X416091Y888926D01*
X416091Y889099D02*
X418509Y889099D01*
X418509Y889272D02*
X416091Y889272D01*
X416091Y889445D02*
X418509Y889445D01*
X423509Y889559D02*
X423509Y881141D01*
X421091Y881141D01*
X421091Y889559D01*
X423509Y889559D01*
X423509Y881314D02*
X421091Y881314D01*
X421091Y881487D02*
X423509Y881487D01*
X423509Y881660D02*
X421091Y881660D01*
X421091Y881833D02*
X423509Y881833D01*
X423509Y882006D02*
X421091Y882006D01*
X421091Y882179D02*
X423509Y882179D01*
X423509Y882352D02*
X421091Y882352D01*
X421091Y882525D02*
X423509Y882525D01*
X423509Y882698D02*
X421091Y882698D01*
X421091Y882871D02*
X423509Y882871D01*
X423509Y883044D02*
X421091Y883044D01*
X421091Y883217D02*
X423509Y883217D01*
X423509Y883390D02*
X421091Y883390D01*
X421091Y883563D02*
X423509Y883563D01*
X423509Y883736D02*
X421091Y883736D01*
X421091Y883909D02*
X423509Y883909D01*
X423509Y884082D02*
X421091Y884082D01*
X421091Y884255D02*
X423509Y884255D01*
X423509Y884428D02*
X421091Y884428D01*
X421091Y884601D02*
X423509Y884601D01*
X423509Y884774D02*
X421091Y884774D01*
X421091Y884947D02*
X423509Y884947D01*
X423509Y885120D02*
X421091Y885120D01*
X421091Y885293D02*
X423509Y885293D01*
X423509Y885466D02*
X421091Y885466D01*
X421091Y885639D02*
X423509Y885639D01*
X423509Y885812D02*
X421091Y885812D01*
X421091Y885985D02*
X423509Y885985D01*
X423509Y886158D02*
X421091Y886158D01*
X421091Y886331D02*
X423509Y886331D01*
X423509Y886504D02*
X421091Y886504D01*
X421091Y886677D02*
X423509Y886677D01*
X423509Y886850D02*
X421091Y886850D01*
X421091Y887023D02*
X423509Y887023D01*
X423509Y887196D02*
X421091Y887196D01*
X421091Y887369D02*
X423509Y887369D01*
X423509Y887542D02*
X421091Y887542D01*
X421091Y887715D02*
X423509Y887715D01*
X423509Y887888D02*
X421091Y887888D01*
X421091Y888061D02*
X423509Y888061D01*
X423509Y888234D02*
X421091Y888234D01*
X421091Y888407D02*
X423509Y888407D01*
X423509Y888580D02*
X421091Y888580D01*
X421091Y888753D02*
X423509Y888753D01*
X423509Y888926D02*
X421091Y888926D01*
X421091Y889099D02*
X423509Y889099D01*
X423509Y889272D02*
X421091Y889272D01*
X421091Y889445D02*
X423509Y889445D01*
X428509Y889559D02*
X428509Y881141D01*
X426091Y881141D01*
X426091Y889559D01*
X428509Y889559D01*
X428509Y881314D02*
X426091Y881314D01*
X426091Y881487D02*
X428509Y881487D01*
X428509Y881660D02*
X426091Y881660D01*
X426091Y881833D02*
X428509Y881833D01*
X428509Y882006D02*
X426091Y882006D01*
X426091Y882179D02*
X428509Y882179D01*
X428509Y882352D02*
X426091Y882352D01*
X426091Y882525D02*
X428509Y882525D01*
X428509Y882698D02*
X426091Y882698D01*
X426091Y882871D02*
X428509Y882871D01*
X428509Y883044D02*
X426091Y883044D01*
X426091Y883217D02*
X428509Y883217D01*
X428509Y883390D02*
X426091Y883390D01*
X426091Y883563D02*
X428509Y883563D01*
X428509Y883736D02*
X426091Y883736D01*
X426091Y883909D02*
X428509Y883909D01*
X428509Y884082D02*
X426091Y884082D01*
X426091Y884255D02*
X428509Y884255D01*
X428509Y884428D02*
X426091Y884428D01*
X426091Y884601D02*
X428509Y884601D01*
X428509Y884774D02*
X426091Y884774D01*
X426091Y884947D02*
X428509Y884947D01*
X428509Y885120D02*
X426091Y885120D01*
X426091Y885293D02*
X428509Y885293D01*
X428509Y885466D02*
X426091Y885466D01*
X426091Y885639D02*
X428509Y885639D01*
X428509Y885812D02*
X426091Y885812D01*
X426091Y885985D02*
X428509Y885985D01*
X428509Y886158D02*
X426091Y886158D01*
X426091Y886331D02*
X428509Y886331D01*
X428509Y886504D02*
X426091Y886504D01*
X426091Y886677D02*
X428509Y886677D01*
X428509Y886850D02*
X426091Y886850D01*
X426091Y887023D02*
X428509Y887023D01*
X428509Y887196D02*
X426091Y887196D01*
X426091Y887369D02*
X428509Y887369D01*
X428509Y887542D02*
X426091Y887542D01*
X426091Y887715D02*
X428509Y887715D01*
X428509Y887888D02*
X426091Y887888D01*
X426091Y888061D02*
X428509Y888061D01*
X428509Y888234D02*
X426091Y888234D01*
X426091Y888407D02*
X428509Y888407D01*
X428509Y888580D02*
X426091Y888580D01*
X426091Y888753D02*
X428509Y888753D01*
X428509Y888926D02*
X426091Y888926D01*
X426091Y889099D02*
X428509Y889099D01*
X428509Y889272D02*
X426091Y889272D01*
X426091Y889445D02*
X428509Y889445D01*
X433509Y889559D02*
X433509Y881141D01*
X431091Y881141D01*
X431091Y889559D01*
X433509Y889559D01*
X433509Y881314D02*
X431091Y881314D01*
X431091Y881487D02*
X433509Y881487D01*
X433509Y881660D02*
X431091Y881660D01*
X431091Y881833D02*
X433509Y881833D01*
X433509Y882006D02*
X431091Y882006D01*
X431091Y882179D02*
X433509Y882179D01*
X433509Y882352D02*
X431091Y882352D01*
X431091Y882525D02*
X433509Y882525D01*
X433509Y882698D02*
X431091Y882698D01*
X431091Y882871D02*
X433509Y882871D01*
X433509Y883044D02*
X431091Y883044D01*
X431091Y883217D02*
X433509Y883217D01*
X433509Y883390D02*
X431091Y883390D01*
X431091Y883563D02*
X433509Y883563D01*
X433509Y883736D02*
X431091Y883736D01*
X431091Y883909D02*
X433509Y883909D01*
X433509Y884082D02*
X431091Y884082D01*
X431091Y884255D02*
X433509Y884255D01*
X433509Y884428D02*
X431091Y884428D01*
X431091Y884601D02*
X433509Y884601D01*
X433509Y884774D02*
X431091Y884774D01*
X431091Y884947D02*
X433509Y884947D01*
X433509Y885120D02*
X431091Y885120D01*
X431091Y885293D02*
X433509Y885293D01*
X433509Y885466D02*
X431091Y885466D01*
X431091Y885639D02*
X433509Y885639D01*
X433509Y885812D02*
X431091Y885812D01*
X431091Y885985D02*
X433509Y885985D01*
X433509Y886158D02*
X431091Y886158D01*
X431091Y886331D02*
X433509Y886331D01*
X433509Y886504D02*
X431091Y886504D01*
X431091Y886677D02*
X433509Y886677D01*
X433509Y886850D02*
X431091Y886850D01*
X431091Y887023D02*
X433509Y887023D01*
X433509Y887196D02*
X431091Y887196D01*
X431091Y887369D02*
X433509Y887369D01*
X433509Y887542D02*
X431091Y887542D01*
X431091Y887715D02*
X433509Y887715D01*
X433509Y887888D02*
X431091Y887888D01*
X431091Y888061D02*
X433509Y888061D01*
X433509Y888234D02*
X431091Y888234D01*
X431091Y888407D02*
X433509Y888407D01*
X433509Y888580D02*
X431091Y888580D01*
X431091Y888753D02*
X433509Y888753D01*
X433509Y888926D02*
X431091Y888926D01*
X431091Y889099D02*
X433509Y889099D01*
X433509Y889272D02*
X431091Y889272D01*
X431091Y889445D02*
X433509Y889445D01*
X433509Y919841D02*
X433509Y928259D01*
X433509Y919841D02*
X431091Y919841D01*
X431091Y928259D01*
X433509Y928259D01*
X433509Y920014D02*
X431091Y920014D01*
X431091Y920187D02*
X433509Y920187D01*
X433509Y920360D02*
X431091Y920360D01*
X431091Y920533D02*
X433509Y920533D01*
X433509Y920706D02*
X431091Y920706D01*
X431091Y920879D02*
X433509Y920879D01*
X433509Y921052D02*
X431091Y921052D01*
X431091Y921225D02*
X433509Y921225D01*
X433509Y921398D02*
X431091Y921398D01*
X431091Y921571D02*
X433509Y921571D01*
X433509Y921744D02*
X431091Y921744D01*
X431091Y921917D02*
X433509Y921917D01*
X433509Y922090D02*
X431091Y922090D01*
X431091Y922263D02*
X433509Y922263D01*
X433509Y922436D02*
X431091Y922436D01*
X431091Y922609D02*
X433509Y922609D01*
X433509Y922782D02*
X431091Y922782D01*
X431091Y922955D02*
X433509Y922955D01*
X433509Y923128D02*
X431091Y923128D01*
X431091Y923301D02*
X433509Y923301D01*
X433509Y923474D02*
X431091Y923474D01*
X431091Y923647D02*
X433509Y923647D01*
X433509Y923820D02*
X431091Y923820D01*
X431091Y923993D02*
X433509Y923993D01*
X433509Y924166D02*
X431091Y924166D01*
X431091Y924339D02*
X433509Y924339D01*
X433509Y924512D02*
X431091Y924512D01*
X431091Y924685D02*
X433509Y924685D01*
X433509Y924858D02*
X431091Y924858D01*
X431091Y925031D02*
X433509Y925031D01*
X433509Y925204D02*
X431091Y925204D01*
X431091Y925377D02*
X433509Y925377D01*
X433509Y925550D02*
X431091Y925550D01*
X431091Y925723D02*
X433509Y925723D01*
X433509Y925896D02*
X431091Y925896D01*
X431091Y926069D02*
X433509Y926069D01*
X433509Y926242D02*
X431091Y926242D01*
X431091Y926415D02*
X433509Y926415D01*
X433509Y926588D02*
X431091Y926588D01*
X431091Y926761D02*
X433509Y926761D01*
X433509Y926934D02*
X431091Y926934D01*
X431091Y927107D02*
X433509Y927107D01*
X433509Y927280D02*
X431091Y927280D01*
X431091Y927453D02*
X433509Y927453D01*
X433509Y927626D02*
X431091Y927626D01*
X431091Y927799D02*
X433509Y927799D01*
X433509Y927972D02*
X431091Y927972D01*
X431091Y928145D02*
X433509Y928145D01*
X428509Y928259D02*
X428509Y919841D01*
X426091Y919841D01*
X426091Y928259D01*
X428509Y928259D01*
X428509Y920014D02*
X426091Y920014D01*
X426091Y920187D02*
X428509Y920187D01*
X428509Y920360D02*
X426091Y920360D01*
X426091Y920533D02*
X428509Y920533D01*
X428509Y920706D02*
X426091Y920706D01*
X426091Y920879D02*
X428509Y920879D01*
X428509Y921052D02*
X426091Y921052D01*
X426091Y921225D02*
X428509Y921225D01*
X428509Y921398D02*
X426091Y921398D01*
X426091Y921571D02*
X428509Y921571D01*
X428509Y921744D02*
X426091Y921744D01*
X426091Y921917D02*
X428509Y921917D01*
X428509Y922090D02*
X426091Y922090D01*
X426091Y922263D02*
X428509Y922263D01*
X428509Y922436D02*
X426091Y922436D01*
X426091Y922609D02*
X428509Y922609D01*
X428509Y922782D02*
X426091Y922782D01*
X426091Y922955D02*
X428509Y922955D01*
X428509Y923128D02*
X426091Y923128D01*
X426091Y923301D02*
X428509Y923301D01*
X428509Y923474D02*
X426091Y923474D01*
X426091Y923647D02*
X428509Y923647D01*
X428509Y923820D02*
X426091Y923820D01*
X426091Y923993D02*
X428509Y923993D01*
X428509Y924166D02*
X426091Y924166D01*
X426091Y924339D02*
X428509Y924339D01*
X428509Y924512D02*
X426091Y924512D01*
X426091Y924685D02*
X428509Y924685D01*
X428509Y924858D02*
X426091Y924858D01*
X426091Y925031D02*
X428509Y925031D01*
X428509Y925204D02*
X426091Y925204D01*
X426091Y925377D02*
X428509Y925377D01*
X428509Y925550D02*
X426091Y925550D01*
X426091Y925723D02*
X428509Y925723D01*
X428509Y925896D02*
X426091Y925896D01*
X426091Y926069D02*
X428509Y926069D01*
X428509Y926242D02*
X426091Y926242D01*
X426091Y926415D02*
X428509Y926415D01*
X428509Y926588D02*
X426091Y926588D01*
X426091Y926761D02*
X428509Y926761D01*
X428509Y926934D02*
X426091Y926934D01*
X426091Y927107D02*
X428509Y927107D01*
X428509Y927280D02*
X426091Y927280D01*
X426091Y927453D02*
X428509Y927453D01*
X428509Y927626D02*
X426091Y927626D01*
X426091Y927799D02*
X428509Y927799D01*
X428509Y927972D02*
X426091Y927972D01*
X426091Y928145D02*
X428509Y928145D01*
X423509Y928259D02*
X423509Y919841D01*
X421091Y919841D01*
X421091Y928259D01*
X423509Y928259D01*
X423509Y920014D02*
X421091Y920014D01*
X421091Y920187D02*
X423509Y920187D01*
X423509Y920360D02*
X421091Y920360D01*
X421091Y920533D02*
X423509Y920533D01*
X423509Y920706D02*
X421091Y920706D01*
X421091Y920879D02*
X423509Y920879D01*
X423509Y921052D02*
X421091Y921052D01*
X421091Y921225D02*
X423509Y921225D01*
X423509Y921398D02*
X421091Y921398D01*
X421091Y921571D02*
X423509Y921571D01*
X423509Y921744D02*
X421091Y921744D01*
X421091Y921917D02*
X423509Y921917D01*
X423509Y922090D02*
X421091Y922090D01*
X421091Y922263D02*
X423509Y922263D01*
X423509Y922436D02*
X421091Y922436D01*
X421091Y922609D02*
X423509Y922609D01*
X423509Y922782D02*
X421091Y922782D01*
X421091Y922955D02*
X423509Y922955D01*
X423509Y923128D02*
X421091Y923128D01*
X421091Y923301D02*
X423509Y923301D01*
X423509Y923474D02*
X421091Y923474D01*
X421091Y923647D02*
X423509Y923647D01*
X423509Y923820D02*
X421091Y923820D01*
X421091Y923993D02*
X423509Y923993D01*
X423509Y924166D02*
X421091Y924166D01*
X421091Y924339D02*
X423509Y924339D01*
X423509Y924512D02*
X421091Y924512D01*
X421091Y924685D02*
X423509Y924685D01*
X423509Y924858D02*
X421091Y924858D01*
X421091Y925031D02*
X423509Y925031D01*
X423509Y925204D02*
X421091Y925204D01*
X421091Y925377D02*
X423509Y925377D01*
X423509Y925550D02*
X421091Y925550D01*
X421091Y925723D02*
X423509Y925723D01*
X423509Y925896D02*
X421091Y925896D01*
X421091Y926069D02*
X423509Y926069D01*
X423509Y926242D02*
X421091Y926242D01*
X421091Y926415D02*
X423509Y926415D01*
X423509Y926588D02*
X421091Y926588D01*
X421091Y926761D02*
X423509Y926761D01*
X423509Y926934D02*
X421091Y926934D01*
X421091Y927107D02*
X423509Y927107D01*
X423509Y927280D02*
X421091Y927280D01*
X421091Y927453D02*
X423509Y927453D01*
X423509Y927626D02*
X421091Y927626D01*
X421091Y927799D02*
X423509Y927799D01*
X423509Y927972D02*
X421091Y927972D01*
X421091Y928145D02*
X423509Y928145D01*
X418509Y928259D02*
X418509Y919841D01*
X416091Y919841D01*
X416091Y928259D01*
X418509Y928259D01*
X418509Y920014D02*
X416091Y920014D01*
X416091Y920187D02*
X418509Y920187D01*
X418509Y920360D02*
X416091Y920360D01*
X416091Y920533D02*
X418509Y920533D01*
X418509Y920706D02*
X416091Y920706D01*
X416091Y920879D02*
X418509Y920879D01*
X418509Y921052D02*
X416091Y921052D01*
X416091Y921225D02*
X418509Y921225D01*
X418509Y921398D02*
X416091Y921398D01*
X416091Y921571D02*
X418509Y921571D01*
X418509Y921744D02*
X416091Y921744D01*
X416091Y921917D02*
X418509Y921917D01*
X418509Y922090D02*
X416091Y922090D01*
X416091Y922263D02*
X418509Y922263D01*
X418509Y922436D02*
X416091Y922436D01*
X416091Y922609D02*
X418509Y922609D01*
X418509Y922782D02*
X416091Y922782D01*
X416091Y922955D02*
X418509Y922955D01*
X418509Y923128D02*
X416091Y923128D01*
X416091Y923301D02*
X418509Y923301D01*
X418509Y923474D02*
X416091Y923474D01*
X416091Y923647D02*
X418509Y923647D01*
X418509Y923820D02*
X416091Y923820D01*
X416091Y923993D02*
X418509Y923993D01*
X418509Y924166D02*
X416091Y924166D01*
X416091Y924339D02*
X418509Y924339D01*
X418509Y924512D02*
X416091Y924512D01*
X416091Y924685D02*
X418509Y924685D01*
X418509Y924858D02*
X416091Y924858D01*
X416091Y925031D02*
X418509Y925031D01*
X418509Y925204D02*
X416091Y925204D01*
X416091Y925377D02*
X418509Y925377D01*
X418509Y925550D02*
X416091Y925550D01*
X416091Y925723D02*
X418509Y925723D01*
X418509Y925896D02*
X416091Y925896D01*
X416091Y926069D02*
X418509Y926069D01*
X418509Y926242D02*
X416091Y926242D01*
X416091Y926415D02*
X418509Y926415D01*
X418509Y926588D02*
X416091Y926588D01*
X416091Y926761D02*
X418509Y926761D01*
X418509Y926934D02*
X416091Y926934D01*
X416091Y927107D02*
X418509Y927107D01*
X418509Y927280D02*
X416091Y927280D01*
X416091Y927453D02*
X418509Y927453D01*
X418509Y927626D02*
X416091Y927626D01*
X416091Y927799D02*
X418509Y927799D01*
X418509Y927972D02*
X416091Y927972D01*
X416091Y928145D02*
X418509Y928145D01*
X413509Y928259D02*
X413509Y919841D01*
X411091Y919841D01*
X411091Y928259D01*
X413509Y928259D01*
X413509Y920014D02*
X411091Y920014D01*
X411091Y920187D02*
X413509Y920187D01*
X413509Y920360D02*
X411091Y920360D01*
X411091Y920533D02*
X413509Y920533D01*
X413509Y920706D02*
X411091Y920706D01*
X411091Y920879D02*
X413509Y920879D01*
X413509Y921052D02*
X411091Y921052D01*
X411091Y921225D02*
X413509Y921225D01*
X413509Y921398D02*
X411091Y921398D01*
X411091Y921571D02*
X413509Y921571D01*
X413509Y921744D02*
X411091Y921744D01*
X411091Y921917D02*
X413509Y921917D01*
X413509Y922090D02*
X411091Y922090D01*
X411091Y922263D02*
X413509Y922263D01*
X413509Y922436D02*
X411091Y922436D01*
X411091Y922609D02*
X413509Y922609D01*
X413509Y922782D02*
X411091Y922782D01*
X411091Y922955D02*
X413509Y922955D01*
X413509Y923128D02*
X411091Y923128D01*
X411091Y923301D02*
X413509Y923301D01*
X413509Y923474D02*
X411091Y923474D01*
X411091Y923647D02*
X413509Y923647D01*
X413509Y923820D02*
X411091Y923820D01*
X411091Y923993D02*
X413509Y923993D01*
X413509Y924166D02*
X411091Y924166D01*
X411091Y924339D02*
X413509Y924339D01*
X413509Y924512D02*
X411091Y924512D01*
X411091Y924685D02*
X413509Y924685D01*
X413509Y924858D02*
X411091Y924858D01*
X411091Y925031D02*
X413509Y925031D01*
X413509Y925204D02*
X411091Y925204D01*
X411091Y925377D02*
X413509Y925377D01*
X413509Y925550D02*
X411091Y925550D01*
X411091Y925723D02*
X413509Y925723D01*
X413509Y925896D02*
X411091Y925896D01*
X411091Y926069D02*
X413509Y926069D01*
X413509Y926242D02*
X411091Y926242D01*
X411091Y926415D02*
X413509Y926415D01*
X413509Y926588D02*
X411091Y926588D01*
X411091Y926761D02*
X413509Y926761D01*
X413509Y926934D02*
X411091Y926934D01*
X411091Y927107D02*
X413509Y927107D01*
X413509Y927280D02*
X411091Y927280D01*
X411091Y927453D02*
X413509Y927453D01*
X413509Y927626D02*
X411091Y927626D01*
X411091Y927799D02*
X413509Y927799D01*
X413509Y927972D02*
X411091Y927972D01*
X411091Y928145D02*
X413509Y928145D01*
X408509Y928259D02*
X408509Y919841D01*
X406091Y919841D01*
X406091Y928259D01*
X408509Y928259D01*
X408509Y920014D02*
X406091Y920014D01*
X406091Y920187D02*
X408509Y920187D01*
X408509Y920360D02*
X406091Y920360D01*
X406091Y920533D02*
X408509Y920533D01*
X408509Y920706D02*
X406091Y920706D01*
X406091Y920879D02*
X408509Y920879D01*
X408509Y921052D02*
X406091Y921052D01*
X406091Y921225D02*
X408509Y921225D01*
X408509Y921398D02*
X406091Y921398D01*
X406091Y921571D02*
X408509Y921571D01*
X408509Y921744D02*
X406091Y921744D01*
X406091Y921917D02*
X408509Y921917D01*
X408509Y922090D02*
X406091Y922090D01*
X406091Y922263D02*
X408509Y922263D01*
X408509Y922436D02*
X406091Y922436D01*
X406091Y922609D02*
X408509Y922609D01*
X408509Y922782D02*
X406091Y922782D01*
X406091Y922955D02*
X408509Y922955D01*
X408509Y923128D02*
X406091Y923128D01*
X406091Y923301D02*
X408509Y923301D01*
X408509Y923474D02*
X406091Y923474D01*
X406091Y923647D02*
X408509Y923647D01*
X408509Y923820D02*
X406091Y923820D01*
X406091Y923993D02*
X408509Y923993D01*
X408509Y924166D02*
X406091Y924166D01*
X406091Y924339D02*
X408509Y924339D01*
X408509Y924512D02*
X406091Y924512D01*
X406091Y924685D02*
X408509Y924685D01*
X408509Y924858D02*
X406091Y924858D01*
X406091Y925031D02*
X408509Y925031D01*
X408509Y925204D02*
X406091Y925204D01*
X406091Y925377D02*
X408509Y925377D01*
X408509Y925550D02*
X406091Y925550D01*
X406091Y925723D02*
X408509Y925723D01*
X408509Y925896D02*
X406091Y925896D01*
X406091Y926069D02*
X408509Y926069D01*
X408509Y926242D02*
X406091Y926242D01*
X406091Y926415D02*
X408509Y926415D01*
X408509Y926588D02*
X406091Y926588D01*
X406091Y926761D02*
X408509Y926761D01*
X408509Y926934D02*
X406091Y926934D01*
X406091Y927107D02*
X408509Y927107D01*
X408509Y927280D02*
X406091Y927280D01*
X406091Y927453D02*
X408509Y927453D01*
X408509Y927626D02*
X406091Y927626D01*
X406091Y927799D02*
X408509Y927799D01*
X408509Y927972D02*
X406091Y927972D01*
X406091Y928145D02*
X408509Y928145D01*
D46*
X367100Y1001241D03*
X357600Y1001241D03*
X348100Y1001241D03*
X348100Y976241D03*
X357600Y976241D03*
X367100Y976241D03*
D47*
X308425Y865750D03*
X308425Y878450D03*
X308425Y891150D03*
X308425Y903850D03*
X308425Y916550D03*
X308425Y929250D03*
X308425Y941950D03*
X308425Y954650D03*
X223125Y954650D03*
X223125Y941950D03*
X223125Y929250D03*
X223125Y916550D03*
X223125Y903850D03*
X223125Y891150D03*
X223125Y878450D03*
X223125Y865750D03*
D48*
X441638Y827675D03*
X404638Y827675D03*
X404638Y805675D03*
X441638Y805675D03*
D19*
X494750Y925996D03*
X511750Y925996D03*
X494750Y849593D03*
X511750Y849593D03*
X494750Y892479D03*
X511750Y892479D03*
X494750Y968882D03*
X511750Y968882D03*
X494750Y871036D03*
X511750Y871036D03*
X494750Y947439D03*
X511750Y947439D03*
X494750Y828150D03*
X511750Y828150D03*
D11*
X286725Y827600D03*
X269225Y827600D03*
D10*
X384518Y972741D03*
X384518Y990241D03*
D23*
X403520Y973975D03*
X403520Y990975D03*
D49*
X425129Y975491D03*
X425129Y1005491D03*
D10*
X481300Y801875D03*
X481300Y784375D03*
X497963Y801888D03*
X497963Y784388D03*
D11*
X494500Y909237D03*
X512000Y909237D03*
D23*
X356925Y808175D03*
X356925Y825175D03*
D10*
X282856Y1006021D03*
X282856Y988521D03*
D23*
X154909Y1041856D03*
X154909Y1058856D03*
X134669Y1041856D03*
X134669Y1058856D03*
D19*
X237275Y1007000D03*
X220275Y1007000D03*
D23*
X175150Y1041856D03*
X175150Y1058856D03*
D50*
X235225Y1032100D03*
X205225Y1032100D03*
D10*
X385481Y807925D03*
X385481Y825425D03*
X462250Y824025D03*
X462250Y806525D03*
D23*
X470425Y973975D03*
X470425Y990975D03*
X446739Y990975D03*
X446739Y973975D03*
D19*
X210375Y1056750D03*
X227375Y1056750D03*
X197575Y825225D03*
X180575Y825225D03*
X197575Y803000D03*
X180575Y803000D03*
X511750Y990325D03*
X494750Y990325D03*
D10*
X325725Y1005380D03*
X325725Y987880D03*
D19*
X327075Y1028975D03*
X344075Y1028975D03*
X234200Y828950D03*
X251200Y828950D03*
X369925Y1028975D03*
X386925Y1028975D03*
D23*
X304003Y1005771D03*
X304003Y988771D03*
D11*
X700900Y676275D03*
X683400Y676275D03*
D51*
X149225Y558625D03*
X161925Y558625D03*
X174625Y558625D03*
X187325Y558625D03*
X187325Y616125D03*
X174625Y616125D03*
X161925Y616125D03*
X149225Y616125D03*
D52*
X168275Y587375D03*
D19*
X215338Y606425D03*
X232338Y606425D03*
X232338Y623888D03*
X215338Y623888D03*
D10*
X209550Y553225D03*
X209550Y570725D03*
D13*
X180500Y530225D03*
X200500Y530225D03*
X156050Y530225D03*
X136050Y530225D03*
D10*
X117475Y527825D03*
X117475Y545325D03*
D11*
X243663Y666750D03*
X261163Y666750D03*
X178575Y644525D03*
X196075Y644525D03*
D19*
X260913Y650875D03*
X243913Y650875D03*
D53*
X117475Y609375D03*
X117475Y565375D03*
D10*
X90488Y597675D03*
X90488Y615175D03*
D54*
X133350Y649450D03*
X133350Y709450D03*
D12*
X257175Y532925D03*
X257175Y552925D03*
X234950Y532925D03*
X234950Y552925D03*
X352425Y532925D03*
X352425Y552925D03*
X374650Y532925D03*
X374650Y552925D03*
D55*
X281686Y510921D03*
X304800Y510921D03*
X327914Y510921D03*
D56*
X304800Y574929D03*
D12*
X307975Y647225D03*
X307975Y667225D03*
X288925Y647225D03*
X288925Y667225D03*
X403225Y647225D03*
X403225Y667225D03*
X422275Y647225D03*
X422275Y667225D03*
D55*
X332486Y625221D03*
X355600Y625221D03*
X378714Y625221D03*
D56*
X355600Y689229D03*
D57*
X731139Y1012571D03*
X731139Y1025779D03*
X710311Y1019175D03*
D19*
X729225Y1039495D03*
X712225Y1039495D03*
X712225Y996315D03*
X729225Y996315D03*
D57*
X766064Y1012571D03*
X766064Y1025779D03*
X745236Y1019175D03*
D19*
X764150Y1039495D03*
X747150Y1039495D03*
X747150Y996315D03*
X764150Y996315D03*
D57*
X800989Y1012571D03*
X800989Y1025779D03*
X780161Y1019175D03*
D19*
X799075Y1039495D03*
X782075Y1039495D03*
X782075Y996315D03*
X799075Y996315D03*
D57*
X794639Y901446D03*
X794639Y914654D03*
X773811Y908050D03*
D19*
X792725Y928370D03*
X775725Y928370D03*
X775725Y885190D03*
X792725Y885190D03*
D57*
X750189Y901446D03*
X750189Y914654D03*
X729361Y908050D03*
D19*
X748275Y928370D03*
X731275Y928370D03*
X731275Y885190D03*
X748275Y885190D03*
D57*
X705739Y901446D03*
X705739Y914654D03*
X684911Y908050D03*
D19*
X703825Y928370D03*
X686825Y928370D03*
X686825Y885190D03*
X703825Y885190D03*
D57*
X759714Y812546D03*
X759714Y825754D03*
X738886Y819150D03*
D19*
X757800Y839470D03*
X740800Y839470D03*
X740800Y796290D03*
X757800Y796290D03*
D57*
X721614Y812546D03*
X721614Y825754D03*
X700786Y819150D03*
D19*
X719700Y839470D03*
X702700Y839470D03*
X702700Y796290D03*
X719700Y796290D03*
D57*
X683514Y812546D03*
X683514Y825754D03*
X662686Y819150D03*
D19*
X681600Y839470D03*
X664600Y839470D03*
X664600Y796290D03*
X681600Y796290D03*
D57*
X645414Y812546D03*
X645414Y825754D03*
X624586Y819150D03*
D19*
X643500Y839470D03*
X626500Y839470D03*
X626500Y796290D03*
X643500Y796290D03*
D58*
X152654Y775589D03*
X139446Y775589D03*
X146050Y754761D03*
D23*
X125730Y773675D03*
X125730Y756675D03*
X168910Y756675D03*
X168910Y773675D03*
D59*
X420250Y596900D03*
X405250Y596900D03*
D19*
X404250Y577850D03*
X421250Y577850D03*
D59*
X467875Y692150D03*
X452875Y692150D03*
D19*
X451875Y673100D03*
X468875Y673100D03*
D59*
X997744Y769500D03*
X997744Y754500D03*
D23*
X997744Y806219D03*
X997744Y789219D03*
D59*
X1033025Y377825D03*
X1018025Y377825D03*
D19*
X1068950Y377825D03*
X1051950Y377825D03*
D59*
X716400Y352425D03*
X731400Y352425D03*
D19*
X680475Y352425D03*
X697475Y352425D03*
M02*
