M48
;GenerationSoftware,Autodesk,EAGLE,9.3.0*%
;CreationDate,2019-04-25T03:15:16Z*%
FMAT,2
ICI,OFF
METRIC,TZ,000.000
T8C0.330
T7C0.350
T6C0.813
T5C0.900
T4C1.200
T3C1.600
T2C3.200
T1C3.250
%
G90
M71
T1
X5855Y99277
X5855Y86578
T2
X116000Y111000
X116000Y4000
X4000Y4000
X4000Y111000
T3
X9285Y101057
X9285Y84798
T4
X3810Y69518
X62517Y111125
X59017Y111125
X33687Y3840
X37187Y3840
X40687Y3840
X44186Y3840
X47686Y3840
X51186Y3840
X9684Y3840
X13183Y3840
X16684Y3840
X20184Y3840
X23683Y3840
X27183Y3840
X3841Y30764
X3841Y27264
X3841Y23764
X3841Y20264
X3841Y16764
X3841Y13264
X3810Y49847
X3810Y46347
X3810Y42848
X3810Y76518
X3810Y73018
X34888Y111125
X3810Y61277
X3810Y57777
X28257Y111125
X24757Y111125
X21258Y111125
X17758Y111125
X14257Y111125
X10758Y111125
X52387Y111125
X48887Y111125
X45387Y111125
X41888Y111125
X38388Y111125
X76518Y111125
X73018Y111125
X69518Y111125
X66018Y111125
T5
X114220Y96225
X114220Y100625
X8395Y89377
X8395Y91407
X10175Y90397
X8395Y93437
X10175Y92427
X10175Y94457
X10175Y96487
X14995Y86068
X14995Y88357
X14995Y99787
X14995Y97497
X8395Y95467
T6
X18098Y69215
X23177Y69215
T7
X21051Y1938
X14383Y1938
X8033Y1938
X2000Y7018
X2000Y13368
X2000Y19401
X2000Y25433
X2000Y31783
X2000Y39721
X5493Y40991
X16606Y48611
X31210Y45436
X43276Y31783
X35338Y1938
X41688Y1938
X46133Y5431
X42641Y10511
X50578Y5748
X47720Y8606
X15335Y26386
X28988Y35594
X28670Y44483
X36926Y30513
X37878Y24481
X4858Y35911
X11525Y33054
X18828Y35276
X68580Y51752
X84029Y39647
X107950Y40640
X107950Y53022
X105092Y67628
X107950Y60960
X89163Y39701
X68580Y58420
X57150Y39370
X57150Y63024
X95885Y74613
X90089Y74613
X86360Y74613
X77153Y75248
X39688Y53340
X45402Y51752
X47307Y29845
X91440Y20320
X95250Y20320
X86995Y20320
X66358Y20003
X76480Y20348
X72708Y20003
X68263Y16510
X75248Y8890
X93345Y6985
X87630Y7620
X65636Y82649
X67310Y82550
X70803Y82649
X74613Y82649
X73978Y91757
X71755Y91757
X78105Y91756
X41275Y60960
X81915Y104457
X101917Y104457
X83820Y91757
X83820Y99695
X81598Y99695
X62865Y68263
X63500Y97472
X38418Y70803
X45402Y37148
X79350Y40640
X69850Y62865
X97129Y39868
X65723Y55824
X47942Y55836
X47307Y41910
X26809Y41910
X79140Y41910
X20320Y32702
X64770Y55324
X47963Y54927
X47942Y40005
X27622Y40323
X16796Y41817
X11716Y42325
X26194Y47658
X11208Y46896
X95567Y9525
X34449Y47658
X41434Y43214
X43974Y40674
X47466Y37499
X83439Y72773
X76375Y68566
X74152Y72058
X70660Y71106
X76375Y56183
X77010Y47928
X97965Y46341
X87170Y46658
X97647Y57771
X97965Y68248
X97092Y79520
X87154Y6701
X96044Y5748
X110331Y6066
X93821Y15908
X88424Y23528
X75089Y24163
X84614Y36864
X89694Y36864
X96044Y37499
X103029Y39404
X102076Y42896
X70009Y43531
X71676Y53929
X62151Y59962
X70723Y65359
X79296Y82822
X72946Y86632
X85011Y85679
X98346Y85362
X105013Y74249
X108188Y68852
X111363Y69169
X114141Y68931
X110014Y55596
X118269Y54643
X87471Y67026
X87471Y52738
X82074Y61946
X80804Y51151
X93504Y62898
X94139Y51786
X62722Y64121
X57007Y64438
X46530Y64756
X42720Y70471
X46530Y70788
X49070Y71423
X57325Y68248
X41355Y91077
X42625Y89807
X52388Y92029
X47943Y84409
X47943Y87584
X47943Y90124
X47943Y91712
X45403Y93299
X29210Y92664
X28893Y96157
X27305Y86314
X31433Y82187
X12065Y81234
X67072Y58215
X66834Y61549
X86297Y73487
X90980Y77456
X82471Y84727
X82471Y83139
X77327Y46341
X46196Y26703
X46196Y24481
X46196Y22258
X46196Y20354
X46196Y18449
X44926Y13368
X46831Y11463
X50641Y7971
X54134Y1938
X61436Y6066
X58896Y9559
X65564Y9559
X61754Y18449
X61754Y14003
X56039Y14321
X56356Y22258
X58896Y24163
X59214Y27338
X53816Y32418
X44926Y29561
X47466Y32101
X47466Y35276
X54134Y43531
X54134Y48293
X65882Y45436
X65246Y49246
X70962Y46071
X46831Y61628
X36672Y57183
X28734Y59723
X32226Y59723
X30321Y54961
X21749Y51151
X13176Y48928
X2064Y47976
X1746Y42579
X1746Y55913
X1746Y66074
X11589Y67661
X9049Y63851
X15081Y68296
X10954Y73694
X2064Y81631
X1746Y90203
X10637Y87981
X17622Y84806
X21749Y80679
X25241Y87346
X37624Y78456
X47466Y76551
X50324Y73694
X44926Y87346
X32862Y91156
X32862Y94331
X32862Y96871
X24606Y106396
X31909Y106396
X38259Y106396
X44609Y103538
X54134Y103221
X53816Y108618
X46196Y108301
X43657Y107983
X38259Y109253
X35402Y113063
X11906Y109888
X6826Y112746
X2064Y107983
X10319Y104491
X14446Y102586
X29369Y102586
X90646Y111793
X99219Y112111
X102711Y99411
X104616Y93061
X103346Y87981
X107474Y87981
X105251Y84806
X103981Y79726
X111284Y81631
X111919Y87663
X114459Y92743
X117951Y86394
X110966Y61311
X102394Y60358
X108426Y33689
X115729Y34006
X115411Y23211
X117951Y19719
X117951Y8924
X111601Y2256
X100489Y1621
X100806Y5748
X104616Y14321
X87154Y1621
X82074Y1938
X74454Y1621
X68422Y1621
X74454Y11463
X85328Y7336
X84058Y19163
X75486Y15988
X82153Y15670
X80883Y13130
X66913Y31863
X58341Y33133
X52626Y29323
X88186Y58533
X103108Y69328
X45958Y56945
X37703Y51548
X36116Y65835
X32623Y68058
X27226Y68058
X40561Y68375
X39291Y72503
X17066Y73138
X9128Y69328
X6906Y63930
X9128Y78853
X42148Y77900
X65326Y74090
X68183Y74408
X65643Y85520
X49054Y15908
X52229Y12733
X95726Y34324
X90964Y13686
X82392Y6383
X117951Y14003
X114459Y105761
X112871Y109888
X102711Y112111
X74137Y113063
X63341Y113381
X2064Y96871
X69929Y48736
X46672Y50482
X46037Y33338
X20638Y35243
X16828Y51435
X71755Y102869
X75248Y102869
X78740Y102869
X110172Y107632
X58420Y98425
X56832Y82550
X51435Y81280
X39370Y69533
X40323Y62865
X32702Y46672
X30385Y28545
X32544Y22825
X69929Y47307
X30797Y33973
X98345Y37148
X116515Y37155
X115916Y85451
X102235Y85725
X82181Y35849
X52425Y34940
X53934Y96146
X101282Y96202
X99615Y38100
X116205Y38100
X115007Y85436
X100330Y85725
X100258Y38743
X115941Y39009
X115293Y83873
X99377Y83820
X82470Y34871
X51819Y34262
X53340Y96837
X98742Y96837
X108902Y56832
X114989Y56832
X114300Y90198
X98107Y90198
X107632Y81280
X97155Y81280
X107026Y80602
X96202Y81280
X94023Y36513
X117157Y36513
X116205Y86360
X95567Y86360
X106362Y81915
X94932Y81915
X101917Y79995
X94615Y80010
X97762Y84138
X93662Y84138
X77153Y36830
X53268Y36802
X54239Y95238
X91122Y95885
X82550Y81915
X90813Y81923
X81598Y81280
X90170Y81280
X108902Y57741
X114684Y57785
X113665Y89535
X89217Y89535
X60671Y88539
X88221Y89535
X62230Y89535
X87313Y89535
X53883Y54292
X55899Y94285
X87008Y93345
X64135Y54610
X106362Y41628
X112423Y41910
X112712Y83185
X86678Y83503
X76876Y37739
X53774Y37581
X54990Y94235
X85098Y94925
X75883Y37783
X52969Y38418
X55148Y95250
X84455Y95567
X72620Y40330
X58947Y40366
X59653Y92738
X83077Y94341
X73263Y39688
X58340Y39688
X59610Y93662
X82470Y93662
X84455Y25400
X118427Y26035
X118110Y75883
X84138Y75565
X93027Y77470
X113332Y77470
X114300Y26670
X92602Y26987
X93670Y76827
X113637Y76561
X114300Y25717
X93980Y26670
X111760Y4445
X85479Y4517
X111017Y26987
X81280Y27940
X111017Y27940
X82273Y27940
X109429Y29527
X95250Y29527
X109429Y30480
X96837Y30162
X103187Y51324
X113673Y51443
X112741Y9453
X96520Y8890
X104457Y50824
X113022Y50808
X112987Y8544
X95206Y8628
X105092Y50165
X113665Y50165
X113665Y7937
X94297Y8628
X88776Y33338
X106997Y33020
X106889Y26352
X91796Y26035
X90222Y24422
X92075Y19368
X90407Y28892
X89137Y28892
X93662Y19368
X89217Y24130
X91042Y29845
X87233Y29845
X87855Y24447
X87630Y19637
X92630Y31432
X108822Y31432
X92630Y30524
X108216Y30754
X92630Y29527
X107307Y30508
X92630Y35560
X106282Y35560
X93114Y36361
X105640Y36203
X87819Y34290
X80248Y34608
X80645Y25400
X80645Y24130
X87867Y33381
X68846Y31837
X86871Y33389
X69135Y32746
X86605Y34298
X69135Y33655
X85963Y33655
X70088Y33655
X84157Y31517
X71993Y31432
X85066Y31432
X100330Y32067
X101254Y28575
X83503Y28547
X63233Y29527
X85090Y29527
X62547Y27622
X72599Y27622
X61905Y26980
X73508Y27622
X61334Y28575
X77153Y28575
X61211Y30546
X78105Y30162
X61433Y31455
X79058Y30162
X60524Y31144
X79700Y30805
X83105Y32385
X98742Y32702
X97999Y34953
X110410Y34925
X79058Y78451
X56068Y77788
X54927Y26007
X67310Y23177
X68263Y18733
X84773Y14287
X80089Y78105
X56372Y76879
X55880Y26312
X85887Y26352
X10192Y44102
X13494Y47150
X21114Y48674
X24162Y47912
X48570Y69842
X66647Y70485
X49212Y70485
X67261Y71156
X50800Y71120
X26194Y45880
X51443Y71763
X66647Y72735
X50165Y69271
X67556Y69551
X49530Y68580
X66647Y69215
X108887Y78423
X31750Y75565
X95242Y80955
X33020Y80328
X64023Y53452
X42228Y53657
X30480Y71120
X44132Y71438
X44767Y100647
X56832Y101917
X56982Y72073
X86043Y72390
X75883Y72390
X64452Y25400
X51752Y25400
X92075Y79058
X55763Y78740
X81598Y72390
X70485Y41221
X59874Y42545
X60007Y86360
X70168Y86360
X71442Y40958
X59569Y41521
X60333Y100973
X46990Y100647
X72351Y41239
X59856Y40612
X59690Y100330
X49530Y100330
X79295Y34608
X51140Y33655
X108585Y104457
X108585Y96202
X106997Y100965
X105275Y96202
X83820Y86678
X79375Y86678
X82788Y42545
X93980Y37465
X55839Y37783
X56515Y97472
X41283Y95575
X102977Y48050
X117157Y48260
X117157Y91122
X40640Y94932
X103656Y48657
X116551Y48938
X116515Y90480
X39731Y94932
X64770Y52359
X53578Y52387
X55153Y93326
X43180Y94932
X80363Y36484
X51445Y36786
X81272Y36167
X51140Y35878
X60353Y75883
X68263Y75883
X81915Y77153
X27940Y75248
X110490Y79058
X26670Y80010
X83185Y85725
X74930Y85725
X39688Y37465
X50800Y66675
X51752Y10478
X67310Y66675
X39053Y95885
X40640Y87313
X28892Y85725
X38418Y104457
X37895Y90852
X37862Y86678
X33973Y100012
X33973Y86575
X34925Y96202
X34925Y89852
X36354Y89694
X36354Y92948
X36751Y101362
X36986Y90567
X37148Y96202
X20320Y86678
X20320Y89217
X20003Y92710
X66647Y71827
X15240Y106997
X19368Y100647
X18733Y106045
X38410Y84130
X17145Y86678
X39053Y84773
X8890Y58737
X13970Y54610
X17463Y56497
X28892Y62547
X23495Y51435
X23495Y59690
X88142Y76489
X75248Y75565
X88265Y77398
X70803Y76200
X64770Y56832
X60960Y56832
X60642Y67358
X63817Y67358
X65254Y57634
X47942Y57785
X47942Y73343
X18733Y77153
X95250Y72390
X99695Y72390
X42069Y26640
X42069Y24481
X42069Y22449
X42069Y20163
X42069Y18131
X43593Y14575
X44355Y12289
X22257Y17877
X18955Y14829
X29877Y18004
X33179Y15210
X38767Y15210
X39021Y17750
X33687Y17750
X37497Y21560
X29623Y25370
X29115Y27656
X23527Y24100
X28353Y24100
X28353Y19274
X24035Y19782
X25305Y22322
X26575Y21052
X20987Y25370
X22003Y27402
X24543Y28672
X27845Y29434
X18701Y39531
X15907Y35467
X14129Y35467
X9049Y36229
X19463Y41563
X22765Y40801
X23527Y39785
X15907Y38007
X11081Y38515
X15018Y31783
X18320Y28037
X34576Y36927
X36608Y39150
X17939Y47023
X15145Y42706
X15145Y44737
X65405Y47942
X36513Y44132
X7715Y28608
X7398Y25433
X8033Y21624
X11843Y21624
X16288Y18131
X9303Y18131
X13748Y14956
X9303Y14956
X10573Y11781
X14065Y11463
X15335Y9241
X18511Y8924
X22003Y9559
X25178Y9559
X27400Y12416
X34703Y9241
X39783Y9876
X28670Y1938
X20003Y95250
T8
X18128Y59387
X15527Y58087
X15527Y59387
X16828Y58087
X16828Y59387
X18128Y58087
M30